<svg width="96" height="96" viewBox="0 0 96 96" fill="none" xmlns="http://www.w3.org/2000/svg">
<path fill-rule="evenodd" clip-rule="evenodd" d="M2.00002 9C2.00002 8.44772 2.44773 8 3.00002 8C8.67697 8 14.3129 8.19112 19.9402 8.38195L19.9816 8.38335C25.6281 8.57483 31.2663 8.76555 36.9623 8.76555C45.2582 8.76555 53.5429 9.14943 61.7982 9.53196L61.8028 9.53217C70.0675 9.91513 78.3027 10.2967 86.5369 10.2967C87.2211 10.2967 87.858 10.309 88.4144 10.3785C88.9688 10.4479 89.5271 10.5828 90.0124 10.8836C91.095 11.5545 91.3865 12.7481 91.3865 14.1675C91.3865 14.7945 91.3823 15.4156 91.3781 16.0318C91.3597 18.7107 91.3419 21.2977 91.6776 23.8846C92.0868 27.0379 92.4467 31.788 92.7037 35.7284C92.8325 37.7032 92.936 39.4824 93.0072 40.7679C93.0429 41.4107 93.0704 41.9302 93.0891 42.2892C93.0985 42.4688 93.1056 42.6081 93.1104 42.7028L93.1176 42.847C93.1176 42.8471 93.1177 42.8476 92.1189 42.8969L93.1176 42.847L93.1189 42.8722V46.9995L93.4202 52.5888L93.4203 52.5903L93.4206 52.595L93.4211 52.6038L93.4219 52.6133L93.4451 52.9571C93.461 53.1935 93.4836 53.5352 93.5107 53.9567C93.565 54.7994 93.6373 55.9617 93.7097 57.2395C93.8539 59.7856 94 62.8218 94 64.6938C94 68.1739 93.8173 71.6563 93.636 75.1101L93.6351 75.1285C93.453 78.5972 93.2729 82.0372 93.2729 85.47C93.2729 85.7678 93.3047 86.0866 93.342 86.4598C93.3461 86.501 93.3503 86.5427 93.3545 86.5852C93.3935 86.9794 93.4377 87.4555 93.4046 87.8983C93.3717 88.3378 93.2532 88.9051 92.8255 89.3568C92.3764 89.831 91.7599 90 91.118 90H81.3827C76.4046 90 71.8817 89.6176 67.1877 89.1782C66.6796 89.1306 66.1695 89.0824 65.6566 89.0339C61.425 88.6339 56.9991 88.2155 51.8909 88.0002C44.1415 87.6736 37.5045 87.7173 31.1388 87.7841C30.6785 87.7889 30.2196 87.7938 29.7618 87.7988C23.8914 87.8621 18.1939 87.9235 12.0322 87.7027C11.569 87.6861 10.9439 87.727 10.1775 87.7771C10.0364 87.7863 9.89047 87.7959 9.73988 87.8054C8.81023 87.8644 7.7473 87.9194 6.74822 87.8608C5.7708 87.8036 4.72295 87.6326 3.89329 87.1492C2.98288 86.6186 2.38498 85.7348 2.38498 84.4918V69.3509C2.38498 59.5392 2.48128 49.7305 2.57751 39.9284C2.67376 30.1248 2.76994 20.3275 2.76994 10.5311C2.76994 10.3348 2.82652 10.1517 2.92426 9.99717C2.40736 9.95846 2.00002 9.5268 2.00002 9ZM4.62057 10.0051C4.71527 10.1579 4.76994 10.3381 4.76994 10.5311C4.76994 20.3373 4.67368 30.1424 4.57746 39.9427L4.57741 39.948C4.48116 49.7517 4.38498 59.5507 4.38498 69.3509V84.4918C4.38498 84.9793 4.56586 85.2263 4.90029 85.4212C5.31546 85.6631 5.97849 85.8123 6.86524 85.8643C7.73033 85.915 8.68486 85.8684 9.61322 85.8095C9.74881 85.8008 9.88516 85.7919 10.0213 85.7829C10.7785 85.7329 11.5293 85.6834 12.1038 85.704C18.2169 85.923 23.8699 85.8621 29.7479 85.7988C30.2031 85.7939 30.6596 85.789 31.1178 85.7842C37.4886 85.7174 44.1699 85.673 51.9751 86.002C57.1384 86.2195 61.6158 86.6429 65.8447 87.0428C66.3579 87.0913 66.8674 87.1395 67.3741 87.1869C72.0617 87.6257 76.505 88 81.3827 88H91.118C91.2582 88 91.335 87.9842 91.3718 87.9724C91.3828 87.9414 91.4008 87.8743 91.4102 87.7489C91.4284 87.5055 91.4053 87.1972 91.3643 86.7823C91.3602 86.7409 91.3559 86.6984 91.3515 86.6549C91.3155 86.298 91.2729 85.8748 91.2729 85.47C91.2729 81.9785 91.456 78.4885 91.6374 75.0309L91.6378 75.0237C91.8198 71.555 92 68.1188 92 64.6938C92 62.8866 91.8574 59.9048 91.7129 57.3526C91.6409 56.0812 91.5689 54.9243 91.5149 54.0851C91.4879 53.6656 91.4654 53.3257 91.4496 53.0907L91.425 52.728L91.425 52.7269L91.4244 52.719L91.1189 47.0534V42.9218L91.1129 42.8038C91.1082 42.7101 91.1011 42.5717 91.0918 42.3932C91.0733 42.0362 91.0458 41.5189 91.0103 40.8786C90.9393 39.5977 90.8363 37.8253 90.708 35.8586C90.4508 31.9162 90.0943 27.2245 89.6943 24.142C89.3393 21.4067 89.3589 18.6529 89.378 15.9658C89.3823 15.3626 89.3865 14.7629 89.3865 14.1675C89.3865 12.9244 89.1185 12.6825 88.9589 12.5836C88.8232 12.4995 88.5897 12.416 88.1663 12.3631C87.7449 12.3104 87.2179 12.2967 86.5369 12.2967C78.2549 12.2967 69.9795 11.9132 61.7287 11.5309L61.7103 11.53C53.4457 11.1471 45.2057 10.7656 36.9623 10.7656C31.2269 10.7656 25.5551 10.5735 19.9138 10.3822L19.8889 10.3814C14.7906 10.2085 9.7175 10.0364 4.62057 10.0051ZM91.4003 87.9601C91.4004 87.9604 91.3978 87.9622 91.3917 87.965C91.397 87.9611 91.4002 87.9597 91.4003 87.9601Z" fill="#F4F1ED"/>
<path fill-rule="evenodd" clip-rule="evenodd" d="M2.00088 28.9585C2.02381 28.4067 2.48973 27.9779 3.04154 28.0009C7.24622 28.1756 11.4529 28.3629 15.6604 28.5503C31.9326 29.2748 48.2179 30 64.4536 30C68.4306 30 72.3854 30.2522 76.2993 30.5018L76.3028 30.502C80.2283 30.7524 84.1126 31 88 31C88.5523 31 89 31.4477 89 32C89 32.5523 88.5523 33 88 33C84.0476 33 80.109 32.7488 76.2033 32.4997L76.1755 32.498C72.2501 32.2476 68.3575 32 64.4536 32C48.1689 32 31.8264 31.2722 15.5491 30.5474C11.3472 30.3602 7.14961 30.1733 2.9585 29.9991C2.40669 29.9762 1.97795 29.5103 2.00088 28.9585Z" fill="#F4F1ED"/>
<path fill-rule="evenodd" clip-rule="evenodd" d="M14.4331 15.57C14.927 15.323 15.5277 15.5232 15.7747 16.0172C15.8046 16.0769 15.9025 16.2152 16.0905 16.4283C16.2235 16.579 16.3614 16.7233 16.496 16.8641C16.54 16.9101 16.5837 16.9558 16.6267 17.0013C17.095 17.4956 17.253 18.0582 17.3019 18.5458C17.332 18.8457 17.3215 19.2151 17.314 19.4816C17.3113 19.5762 17.309 19.6578 17.309 19.7187C17.309 20.2555 17.1703 20.7429 16.8868 21.1524C16.6081 21.5549 16.2342 21.8178 15.8638 21.9888C15.1556 22.3155 14.3333 22.3628 13.7577 22.3628C12.8287 22.3628 12.0763 21.9731 11.594 21.3258C11.1374 20.7128 10.9826 19.953 11.0207 19.2591C11.0933 17.938 11.9532 16.2824 13.7493 16.0828C13.8196 16.075 13.8889 16.0747 13.9566 16.0812C14.0455 15.8667 14.2091 15.682 14.4331 15.57ZM14.5942 17.7554C14.4366 17.9261 14.2192 18.0429 13.9702 18.0706C13.5067 18.1221 13.0594 18.6095 13.0177 19.3687C12.9987 19.715 13.0851 19.9796 13.1979 20.131C13.2852 20.2482 13.4306 20.3628 13.7577 20.3628C14.2793 20.3628 14.7325 20.3081 15.0258 20.1728C15.156 20.1127 15.2143 20.0546 15.2425 20.0138C15.2659 19.98 15.309 19.9019 15.309 19.7187C15.309 19.5862 15.3133 19.4379 15.317 19.3108C15.3187 19.2534 15.3202 19.2003 15.3212 19.155C15.3248 18.9866 15.3231 18.8571 15.3119 18.7455C15.2914 18.5414 15.2453 18.4511 15.1748 18.3767C15.1434 18.3435 15.1077 18.3062 15.069 18.2657C14.9314 18.1219 14.7556 17.938 14.5942 17.7554Z" fill="#F4F1ED"/>
<path fill-rule="evenodd" clip-rule="evenodd" d="M26.2792 16.4847C26.0767 16.2095 25.7382 16.0452 25.3735 16.0817C24.8006 16.1389 24.1114 16.258 23.5597 16.6815C22.942 17.1556 22.6797 17.856 22.6375 18.6569C22.5965 19.4361 22.6053 20.256 23.0661 20.9075C23.5327 21.5671 24.3001 21.8254 25.0013 22.0202C25.5525 22.1733 26.3154 22.2334 27.0001 22.0223C27.3541 21.9132 27.7402 21.7142 28.0412 21.362C28.3549 20.995 28.5141 20.5333 28.5141 20.0248C28.5141 19.901 28.5154 19.7723 28.5167 19.6457C28.5189 19.4287 28.5211 19.2177 28.5164 19.0472C28.5085 18.7584 28.4816 18.42 28.3555 18.0839C28.075 17.3367 27.439 16.9416 26.7367 16.5905C26.5896 16.5169 26.433 16.483 26.2792 16.4847ZM25.4863 18.081C25.0296 18.1334 24.8504 18.212 24.7776 18.2679C24.7771 18.2683 24.7766 18.2687 24.7759 18.2692C24.7581 18.2818 24.6562 18.3541 24.6347 18.7621C24.592 19.5737 24.6814 19.7278 24.6989 19.7525C24.7106 19.7691 24.8014 19.889 25.5366 20.0932C25.8225 20.1726 26.1822 20.1816 26.4108 20.1111C26.4658 20.0941 26.4966 20.0778 26.5116 20.0682C26.5129 20.0589 26.5141 20.0449 26.5141 20.0248C26.5141 19.8414 26.5158 19.6917 26.5173 19.5617C26.5194 19.3835 26.521 19.2423 26.5172 19.1017C26.511 18.8776 26.4906 18.8068 26.4831 18.7869C26.4815 18.7827 26.4813 18.7824 26.4793 18.7797C26.476 18.7752 26.4613 18.7564 26.4218 18.7234C26.3324 18.6487 26.1662 18.5413 25.8422 18.3793C25.6968 18.3066 25.5768 18.2033 25.4863 18.081Z" fill="#F4F1ED"/>
<path fill-rule="evenodd" clip-rule="evenodd" d="M37.5338 16.5655C37.4929 16.4808 37.4393 16.4005 37.3728 16.3273C37.0013 15.9187 36.3688 15.8886 35.9602 16.2601C35.7619 16.4403 35.5903 16.5817 35.4198 16.7221C35.3695 16.7635 35.3193 16.8049 35.2685 16.8471C35.0611 17.0198 34.8218 17.2252 34.6183 17.4796C34.1491 18.0659 34 18.7389 34 19.6533C34 20.5243 34.308 21.2111 34.9414 21.659C35.4326 22.0065 36.0532 22.1434 36.4772 22.237C36.4989 22.2418 36.52 22.2464 36.5406 22.251C37.0413 22.3622 37.8601 22.4788 38.6232 22.3777C39.0055 22.327 39.4549 22.2115 39.8467 21.9425C40.2712 21.6509 40.5885 21.2027 40.673 20.6112C40.8512 19.3634 40.3715 18.3769 39.6108 17.6865C39.0168 17.1475 38.2634 16.7936 37.5338 16.5655ZM36.5647 18.3704C36.559 18.3751 36.5534 18.3798 36.5479 18.3844C36.3448 18.5534 36.2454 18.6473 36.1799 18.7291C36.1109 18.8154 36 18.9631 36 19.6533C36 19.8523 36.0326 19.9412 36.0461 19.9702C36.0554 19.9901 36.0645 20.0037 36.0962 20.0261C36.1395 20.0568 36.2222 20.1001 36.3801 20.1501C36.5405 20.201 36.7267 20.2436 36.9745 20.2986C37.3652 20.3854 37.9253 20.4527 38.3603 20.395C38.5466 20.3703 38.6499 20.3301 38.6963 20.3048C38.7604 19.8102 38.5967 19.467 38.2667 19.1676C37.8894 18.8251 37.2929 18.553 36.5944 18.3783C36.5844 18.3759 36.5745 18.3732 36.5647 18.3704Z" fill="#F4F1ED"/>
</svg>
