<svg width="96" height="96" viewBox="0 0 96 96" fill="none" xmlns="http://www.w3.org/2000/svg">
<path fill-rule="evenodd" clip-rule="evenodd" d="M65.9872 1.0305C68.7004 1.04568 71.4101 1.06084 74.1128 1.06084C75.4832 1.06084 76.8492 1.12616 78.1857 1.19007L78.1918 1.19036C79.5383 1.25475 80.8548 1.3176 82.1641 1.3176C82.4582 1.3176 82.9578 1.36964 83.3152 1.78193C83.6754 2.19756 83.6343 2.68568 83.6091 2.87764C83.5872 3.04453 83.5359 3.24214 83.5058 3.35803C83.4995 3.38214 83.4942 3.40272 83.4902 3.41875C83.4544 3.56319 83.4466 3.62738 83.4466 3.65847C83.4466 4.66328 83.5119 5.60486 83.5792 6.57433C83.6255 7.24038 83.6726 7.9196 83.7001 8.64153C83.7166 9.07413 83.7317 9.5035 83.7468 9.93055C83.808 11.6634 83.8679 13.358 84.0082 15.0742C84.1637 16.9752 84.4028 18.8708 84.6452 20.7924L84.6819 21.0833C84.9356 23.0964 85.1882 25.1374 85.3367 27.1943C85.5572 30.2476 85.5504 33.3029 85.5178 36.3245C85.5134 36.7344 85.5085 37.1436 85.5036 37.552C85.4723 40.166 85.4414 42.7515 85.5364 45.3312C85.8022 52.5497 86.0564 59.745 85.989 67.0023C85.9542 70.7587 85.5795 74.4711 85.134 78.1432C85.004 79.2149 84.8682 80.2807 84.733 81.3431C84.4025 83.9384 84.0746 86.5138 83.8379 89.1083C83.8107 89.4067 83.8074 89.7546 83.8034 90.1722C83.8023 90.2878 83.8011 90.4088 83.7994 90.5355C83.7919 91.0849 83.7728 91.7185 83.6727 92.3132C83.5745 92.8964 83.3809 93.56 82.9389 94.0896C82.4563 94.6678 81.7663 94.9816 80.9211 94.9816C79.3933 94.9816 77.8628 94.9862 76.3303 94.9908C70.9258 95.007 65.4967 95.0233 60.0807 94.8383C55.5061 94.6821 50.9494 94.4704 46.4006 94.259C37.5854 93.8493 28.7999 93.441 19.9715 93.441C19.9715 93.441 19.9693 93.441 19.9635 93.4412L19.9399 93.442C19.9196 93.4429 19.8933 93.4444 19.8603 93.4466C19.7938 93.451 19.7101 93.4575 19.6082 93.466C19.5329 93.4722 19.4448 93.4798 19.3484 93.488C19.1971 93.501 19.0253 93.5157 18.8498 93.53C18.2605 93.5778 17.5195 93.6296 16.7906 93.6394C16.0785 93.6489 15.3065 93.6202 14.6826 93.4792C14.3757 93.4099 14.021 93.2958 13.7191 93.084C13.3908 92.8537 13.0742 92.4635 13.0538 91.9071C13.032 91.313 12.9425 90.7173 12.8369 90.066C12.8276 90.0088 12.8181 89.951 12.8086 89.8927C12.7129 89.306 12.609 88.6691 12.5614 88.0208C12.371 85.4249 12.3843 82.7354 12.3971 80.142C12.4002 79.499 12.4034 78.8618 12.4034 78.2335C12.4034 76.7973 12.4072 75.3676 12.4111 73.9428C12.4332 65.6983 12.4549 57.6171 11.7293 49.3929C10.787 38.7148 10.9641 28.0036 11.1402 17.3476C11.1977 13.8695 11.2551 10.3973 11.2734 6.93402C11.2763 6.38174 11.7264 5.93641 12.2787 5.93933C12.831 5.94225 13.2763 6.39233 13.2734 6.94461C13.2548 10.4585 13.1969 13.9627 13.1392 17.4597C12.9637 28.0898 12.7894 38.653 13.7215 49.2171C14.4558 57.5394 14.4336 65.7224 14.4111 73.9638C14.4073 75.385 14.4034 76.8079 14.4034 78.2335C14.4034 78.8844 14.4002 79.5369 14.3971 80.1895C14.3845 82.7754 14.372 85.3645 14.5561 87.8745C14.5968 88.4298 14.6864 88.98 14.7844 89.5818C14.7932 89.636 14.8021 89.6908 14.8111 89.7459C14.9005 90.2977 14.9929 90.8911 15.0351 91.5064C15.061 91.5135 15.0903 91.5209 15.1234 91.5284C15.5083 91.6154 16.0865 91.6486 16.7638 91.6396C17.4243 91.6307 18.1119 91.5833 18.6881 91.5365C18.8269 91.5253 18.9667 91.5133 19.1013 91.5017C19.4746 91.4696 19.808 91.441 19.9715 91.441C28.8434 91.441 37.7136 91.853 46.5596 92.2639C51.0968 92.4747 55.6276 92.6851 60.149 92.8395C65.5241 93.0231 70.9037 93.007 76.3021 92.9908C77.8401 92.9862 79.3797 92.9816 80.9211 92.9816C81.2279 92.9816 81.3344 92.8907 81.4034 92.8081C81.513 92.6768 81.626 92.4232 81.7004 91.9813C81.7729 91.5509 81.7921 91.0514 81.7996 90.5082C81.8009 90.4085 81.8019 90.3057 81.8028 90.2012C81.8067 89.7725 81.8108 89.3147 81.8462 88.9267C82.0863 86.2945 82.4213 83.6631 82.7536 81.0533C82.8879 79.999 83.0217 78.9482 83.1486 77.9023C83.5917 74.25 83.9553 70.6262 83.9891 66.9838C84.056 59.7791 83.8037 52.6278 83.5377 45.4048C83.4408 42.7724 83.4725 40.1332 83.5038 37.5225C83.5087 37.1152 83.5136 36.7087 83.5179 36.3029C83.5505 33.2843 83.5559 30.3016 83.3419 27.3383C83.1978 25.3418 82.9519 23.3506 82.6976 21.3334C82.6849 21.2325 82.6721 21.1315 82.6594 21.0305C82.4183 19.1195 82.174 17.1836 82.0149 15.2372C81.8704 13.4702 81.8086 11.7177 81.7473 9.98047C81.7324 9.55862 81.7175 9.13768 81.7015 8.71765C81.6793 8.13417 81.6364 7.50031 81.592 6.84489C81.5211 5.7986 81.4466 4.69737 81.4466 3.65847C81.4466 3.53677 81.4573 3.41964 81.4729 3.31232C80.3448 3.29561 79.2202 3.24183 78.1135 3.1889L78.0963 3.18808C76.75 3.1237 75.4296 3.06084 74.1128 3.06084C71.3858 3.06084 68.6635 3.04559 65.9441 3.03036C60.252 2.99847 54.5728 2.96665 48.8904 3.07492C44.1285 3.16566 39.3406 3.42794 34.5781 3.77148C33.1808 3.87227 31.8081 3.82653 30.4807 3.75932C30.1958 3.74489 29.9139 3.72956 29.6343 3.71434C28.5945 3.65777 27.5861 3.60289 26.5679 3.60289C25.3054 3.60289 24.0374 3.83313 22.6644 4.08566L22.6209 4.09365C21.2919 4.33811 19.8605 4.60141 18.4036 4.60141C17.5423 4.60141 16.6985 4.53428 15.9015 4.47087L15.889 4.46988C15.0755 4.40516 14.3103 4.34465 13.5446 4.34465C12.9924 4.34465 12.5446 3.89694 12.5446 3.34465C12.5446 2.79237 12.9924 2.34465 13.5446 2.34465C14.3946 2.34465 15.231 2.4112 16.0242 2.47431L16.0477 2.47618C16.8606 2.54086 17.6301 2.60141 18.4036 2.60141C19.663 2.60141 20.9293 2.37123 22.3026 2.11865L22.3417 2.11146C23.6722 1.86672 25.1065 1.60289 26.5679 1.60289C27.646 1.60289 28.7247 1.66169 29.7715 1.71875C30.044 1.7336 30.3143 1.74833 30.5818 1.76188C31.8944 1.82834 33.1655 1.86818 34.4342 1.77666C39.2186 1.43155 44.0439 1.16691 48.8523 1.07529C54.5591 0.966548 60.2811 0.998567 65.9872 1.0305ZM82.1839 3.31821L82.182 3.31805L82.1839 3.31821ZM81.6254 2.62201C81.6264 2.606 81.628 2.60313 81.6261 2.61735L81.6254 2.62201Z" fill="#F4F1ED"/>
<path fill-rule="evenodd" clip-rule="evenodd" d="M21.7564 13C21.7564 12.4477 22.2041 12 22.7564 12C23.6832 12 24.6003 12.0631 25.4786 12.1235L25.4961 12.1247C26.3911 12.1863 27.2467 12.2447 28.1015 12.2447C28.2131 12.2447 28.3178 12.2424 28.4248 12.2398L28.4422 12.2394C28.5398 12.2371 28.647 12.2345 28.7483 12.235C28.9451 12.2358 29.246 12.2451 29.5447 12.3568C29.8985 12.4892 30.1769 12.7344 30.3615 13.072C30.5222 13.3657 30.5946 13.698 30.6362 14.0098C30.7107 14.5678 30.9091 17.0123 30.9768 19.3085C31.0107 20.4569 31.0132 21.6076 30.9453 22.485C30.9121 22.9141 30.8582 23.3359 30.7612 23.6731C30.7146 23.8352 30.6378 24.0521 30.4986 24.249C30.3578 24.4481 30.0429 24.7685 29.5307 24.7685C29.3157 24.7685 28.8282 24.7933 28.1432 24.8282C27.9337 24.8389 27.7057 24.8505 27.4614 24.8626C26.4453 24.9131 25.1961 24.9694 23.9759 24.9909C22.7641 25.0123 21.5455 25.0003 20.6021 24.907C20.138 24.8611 19.6845 24.7907 19.3166 24.6721C19.1346 24.6134 18.9189 24.5261 18.7238 24.3862C18.5291 24.2466 18.2658 23.9878 18.187 23.5755C17.8678 21.9052 18.0129 20.2312 18.2117 18.6767C18.257 18.3225 18.3047 17.9767 18.3514 17.6376C18.5161 16.4412 18.6694 15.3282 18.6694 14.2237C18.6694 13.6714 19.1171 13.2237 19.6694 13.2237C20.2217 13.2237 20.6694 13.6714 20.6694 14.2237C20.6694 15.4795 20.4907 16.7725 20.3226 17.9887C20.2784 18.3086 20.2349 18.6233 20.1956 18.9305C20.0194 20.3078 19.9166 21.5887 20.0872 22.8107C20.2557 22.8492 20.4914 22.8863 20.7989 22.9167C21.6219 22.9981 22.7452 23.0124 23.9406 22.9913C25.1276 22.9703 26.3508 22.9153 27.3622 22.8651C27.5777 22.8544 27.7861 22.8437 27.9838 22.8336C28.3292 22.816 28.6422 22.8 28.9034 22.7883C28.9209 22.6633 28.9373 22.5112 28.9513 22.3307C29.0107 21.5627 29.011 20.4981 28.9777 19.3674C28.911 17.1056 28.7156 14.7369 28.6538 14.2744C28.652 14.2608 28.6502 14.2478 28.6484 14.2355C28.5984 14.2363 28.5423 14.2376 28.4759 14.2392L28.4725 14.2393C28.3658 14.2418 28.2396 14.2447 28.1015 14.2447C27.1718 14.2447 26.2527 14.1815 25.3734 14.121L25.3588 14.12C24.4638 14.0584 23.6092 14 22.7564 14C22.2041 14 21.7564 13.5523 21.7564 13Z" fill="#F4F1ED"/>
<path fill-rule="evenodd" clip-rule="evenodd" d="M24.5241 31.1018C24.6849 31.1258 24.8342 31.1482 24.9956 31.1669C25.2855 31.2005 25.5359 31.2171 25.7891 31.2338C25.8969 31.241 26.0051 31.2481 26.1172 31.2566C26.4546 31.2823 26.8603 31.3221 27.2379 31.4558C27.6575 31.6045 28.0397 31.8665 28.3238 32.3019C28.5861 32.7041 28.7215 33.1893 28.7965 33.7167C29.0872 35.7627 29.0026 38.0074 28.9247 40.073C28.8982 40.7757 28.8725 41.4577 28.8626 42.1041C28.8622 42.1255 28.8619 42.1477 28.8616 42.1706C28.8554 42.617 28.8453 43.3409 28.6215 43.9096C28.4912 44.2408 28.2446 44.6403 27.7782 44.8718C27.3097 45.1044 26.8086 45.0738 26.3674 44.9424C26.0368 44.8439 25.5722 44.818 25.0282 44.866C24.497 44.9129 23.9575 45.0239 23.5142 45.1461C23.492 45.1522 23.4592 45.1613 23.4171 45.1731C23.1031 45.2606 22.2731 45.4921 21.4782 45.6843C21.0317 45.7923 20.5684 45.8949 20.2033 45.9512C20.0297 45.978 19.8277 46.0027 19.6453 45.9998C19.5647 45.9985 19.4045 45.9918 19.2312 45.9335C19.0895 45.8858 18.5892 45.6736 18.5141 45.0691C18.0505 41.3402 18 37.4953 18 33.7443C18 33.192 18.4477 32.7443 19 32.7443C19.5523 32.7443 20 33.192 20 33.7443C20 37.166 20.0432 40.578 20.3909 43.8816C20.5801 43.8414 20.7891 43.7933 21.008 43.7404C21.7642 43.5575 22.5544 43.3373 22.8763 43.2476C22.9214 43.235 22.9574 43.225 22.9827 43.218C23.516 43.071 24.1765 42.9334 24.8524 42.8737C25.4728 42.819 26.1689 42.824 26.8078 42.9893C26.8182 42.9287 26.8279 42.8554 26.8358 42.7676C26.8546 42.5588 26.8589 42.3303 26.8628 42.0735C26.8743 41.3251 26.9023 40.5783 26.9301 39.8369C27.0056 37.8238 27.0797 35.851 26.8164 33.9981C26.7612 33.6099 26.6851 33.4505 26.6487 33.3946L26.6466 33.3915C26.6334 33.371 26.6271 33.3613 26.5699 33.341C26.4678 33.3048 26.3005 33.2764 25.9654 33.2509C25.8874 33.2449 25.7997 33.2391 25.7043 33.2328C25.4361 33.215 25.1075 33.1933 24.7651 33.1536C24.5675 33.1306 24.3765 33.102 24.2121 33.0774C24.1716 33.0713 24.1327 33.0655 24.0957 33.06C23.8974 33.0309 23.7438 33.0111 23.6049 33.0034C23.352 32.9894 23.1797 33.017 22.9942 33.1103C22.5008 33.3583 21.8997 33.1594 21.6516 32.6659C21.4036 32.1725 21.6025 31.5714 22.0959 31.3233C22.6755 31.032 23.2184 30.9789 23.7157 31.0065C23.9518 31.0196 24.1821 31.0512 24.3869 31.0813C24.4338 31.0883 24.4794 31.0951 24.5241 31.1018ZM27.0219 43.0442L27.0198 43.0441L27.0219 43.0442Z" fill="#F4F1ED"/>
<path fill-rule="evenodd" clip-rule="evenodd" d="M21.6732 51.0084C22.4052 50.9929 23.3068 50.9739 24.1376 51.1709C24.4522 51.2455 24.887 51.2625 25.4549 51.2354C25.8198 51.2179 26.1831 51.1865 26.5693 51.1531C26.7927 51.1338 27.0238 51.1138 27.2673 51.0954C27.8951 51.0481 28.5735 51.0156 29.2051 51.0774C29.8294 51.1386 30.5165 51.301 31.084 51.7315C31.5031 52.0495 31.6964 52.4817 31.7763 52.8678C31.8526 53.2364 31.8362 53.6073 31.8052 53.9058C31.7788 54.1593 31.734 54.4205 31.6975 54.6338C31.6908 54.6729 31.6844 54.7104 31.6784 54.746C31.6345 55.007 31.6146 55.1619 31.6146 55.2604C31.6146 55.6745 31.6098 56.0789 31.605 56.4765C31.5919 57.5737 31.5794 58.6189 31.6709 59.6706C31.6927 59.9217 31.7342 60.2073 31.7846 60.5402C31.7896 60.5729 31.7946 60.6062 31.7998 60.6398C31.8449 60.9367 31.8948 61.2642 31.9327 61.5926C32.0148 62.3026 32.0626 63.1634 31.8272 63.9449C31.6775 64.4417 31.2512 64.6372 31.1362 64.6881C30.9571 64.7673 30.764 64.814 30.6009 64.845C30.2645 64.9092 29.8386 64.9459 29.3844 64.9681C28.4644 65.013 27.2683 65.0047 26.0771 64.9786C25.158 64.9585 24.2241 64.9273 23.4032 64.8998C23.1569 64.8916 22.9208 64.8837 22.6983 64.8765C22.2133 64.8609 21.7958 64.849 21.4728 64.8442C21.3112 64.8418 21.1791 64.8413 21.0772 64.8428C21.0264 64.8436 20.9869 64.8448 20.9573 64.8462C20.9304 64.8475 20.9191 64.8486 20.9191 64.8486L20.9203 64.8484C20.5621 64.8916 20.2092 64.9267 19.9136 64.9058C19.6092 64.8844 19.1188 64.7862 18.7969 64.3205C18.5412 63.9505 18.5339 63.5209 18.5307 63.3318L18.5307 63.3299C18.5287 63.208 18.5315 63.074 18.5342 62.9487L18.5344 62.9384C18.5373 62.8068 18.5402 62.6701 18.5402 62.518C18.5402 60.8476 18.4088 59.173 18.2732 57.458L18.2705 57.4233C18.1368 55.7328 18 54.0017 18 52.272C18 51.7197 18.4477 51.272 19 51.272C19.5523 51.272 20 51.7197 20 52.272C20 53.9211 20.1314 55.5847 20.267 57.3004L20.2673 57.3041C20.4017 59.0051 20.5402 60.7569 20.5402 62.518C20.5402 62.6506 20.5383 62.7722 20.5361 62.8796C20.5813 62.8746 20.6296 62.869 20.6812 62.8628C20.8762 62.8393 21.1894 62.8398 21.5023 62.8444C21.8444 62.8495 22.2773 62.862 22.7626 62.8776C22.9899 62.8849 23.2292 62.8929 23.4776 62.9012C24.2968 62.9286 25.2145 62.9593 26.1209 62.9791C27.3059 63.0051 28.4421 63.0117 29.2869 62.9705C29.5721 62.9565 29.8069 62.9378 29.9901 62.9158C30.0129 62.6128 29.9953 62.2486 29.946 61.8223C29.9124 61.5318 29.8681 61.2403 29.8222 60.9385C29.8172 60.9058 29.8122 60.873 29.8072 60.84C29.7577 60.5134 29.7065 60.1676 29.6784 59.8439C29.5776 58.685 29.592 57.4954 29.6056 56.3696C29.6101 55.9914 29.6146 55.6205 29.6146 55.2604C29.6146 54.9697 29.6656 54.6551 29.7062 54.4141C29.7139 54.3681 29.7215 54.3235 29.7289 54.2801C29.7654 54.0661 29.7969 53.8809 29.8159 53.6987C29.8375 53.4919 29.8334 53.3621 29.8205 53.2874C29.6671 53.192 29.4146 53.1075 29.0101 53.0679C28.5606 53.0239 28.0268 53.0439 27.4175 53.0898C27.2227 53.1044 27.0143 53.1224 26.8003 53.1408C26.3853 53.1765 25.9492 53.214 25.5504 53.2331C24.9377 53.2624 24.2733 53.2585 23.6763 53.117C23.1176 52.9845 22.5562 52.9948 21.8647 53.0075C21.6446 53.0116 21.4114 53.0158 21.1609 53.0158C20.6086 53.0158 20.1609 52.5681 20.1609 52.0158C20.1609 51.4636 20.6086 51.0158 21.1609 51.0158C21.3186 51.0158 21.4906 51.0122 21.6732 51.0084ZM20.0446 62.9098C20.0446 62.9098 20.0458 62.9099 20.0481 62.9103L20.0446 62.9098Z" fill="#F4F1ED"/>
<path fill-rule="evenodd" clip-rule="evenodd" d="M25.6891 70.1455C25.8285 70.1594 25.9638 70.173 26.0943 70.1853C26.5005 70.2238 26.8693 70.2146 27.2393 70.203C27.2617 70.2023 27.2847 70.2015 27.3081 70.2007C27.6274 70.1903 28.0321 70.1771 28.3892 70.2411C28.836 70.3211 29.3282 70.5402 29.6522 71.0713C29.9307 71.5278 30 72.0866 30 72.6451C30 75.3753 29.9776 78.1019 29.7322 80.8653C29.7192 81.0115 29.7132 81.1418 29.7063 81.2894C29.7023 81.3764 29.698 81.4695 29.6918 81.5755C29.6774 81.8223 29.6524 82.1335 29.5729 82.4317C29.4918 82.7358 29.3317 83.1142 28.983 83.4085C28.6222 83.713 28.1837 83.8239 27.75 83.8239C27.2653 83.8239 26.7401 83.8535 26.1702 83.89C26.0879 83.8953 26.0046 83.9007 25.9204 83.9062C25.4322 83.938 24.916 83.9716 24.4024 83.9885C23.2098 84.0279 21.9009 83.9853 20.7216 83.5675C20.245 83.3986 19.9635 83.0428 19.8315 82.6739C19.7207 82.3646 19.7163 82.0507 19.7171 81.8687C19.7177 81.7504 19.7202 81.6729 19.7223 81.6093C19.7248 81.5324 19.7266 81.4759 19.7235 81.3924C19.7225 81.3642 19.7208 81.344 19.7193 81.3307C19.58 81.0554 19.5081 80.7584 19.4651 80.5092C19.4176 80.2341 19.3941 79.9468 19.3796 79.6862C19.3663 79.4473 19.3597 79.2459 19.354 79.0719C19.3456 78.8118 19.3391 78.6128 19.3152 78.4414C19.0392 76.4643 19 74.5156 19 72.5883C19 72.036 19.4477 71.5883 20 71.5883C20.1063 71.5883 20.2088 71.6049 20.3049 71.6356L20.3036 71.6317C20.1252 71.109 20.4044 70.5407 20.9271 70.3624C22.4989 69.8261 24.2969 70.0061 25.6891 70.1455ZM20.9453 72.2613C20.9808 72.3638 21 72.4738 21 72.5883C21 74.4983 21.0401 76.3319 21.296 78.165C21.3335 78.434 21.3474 78.824 21.3596 79.1665C21.3649 79.3166 21.3699 79.4575 21.3765 79.5752C21.3893 79.8056 21.4076 80.0049 21.4359 80.1688C21.4498 80.2494 21.4646 80.3122 21.4789 80.3594C21.4858 80.3824 21.4919 80.3995 21.4967 80.4115C21.5016 80.4235 21.5039 80.4277 21.5039 80.4277C21.6846 80.7606 21.7144 81.1069 21.7222 81.319C21.7264 81.435 21.7245 81.547 21.7223 81.6379C21.7216 81.6668 21.7209 81.693 21.7203 81.7173C21.7196 81.741 21.7191 81.7629 21.7186 81.784C22.4661 81.9835 23.349 82.0222 24.3364 81.9896C24.8153 81.9738 25.2954 81.9426 25.7849 81.9108C25.8704 81.9052 25.9562 81.8996 26.0424 81.8941C26.5809 81.8596 27.1315 81.8276 27.6598 81.8242C27.6741 81.7384 27.6857 81.6216 27.6952 81.4589C27.6986 81.4007 27.7019 81.3312 27.7055 81.2552C27.7137 81.0813 27.7236 80.8734 27.74 80.6883C27.9769 78.0217 28 75.3733 28 72.6451C28 72.4185 27.9826 72.2796 27.9671 72.2003C27.8381 72.1876 27.6467 72.1912 27.302 72.202C26.9312 72.2136 26.4499 72.228 25.9056 72.1764C25.7888 72.1653 25.6727 72.1541 25.5573 72.1429C24.0687 71.9989 22.7096 71.8674 21.5729 72.2552C21.3616 72.3273 21.1428 72.3247 20.9453 72.2613Z" fill="#F4F1ED"/>
<path fill-rule="evenodd" clip-rule="evenodd" d="M36 24C36 23.4477 36.4477 23 37 23H74C74.5523 23 75 23.4477 75 24C75 24.5523 74.5523 25 74 25H37C36.4477 25 36 24.5523 36 24Z" fill="#F4F1ED"/>
<path fill-rule="evenodd" clip-rule="evenodd" d="M34 43C34 42.4477 34.4477 42 35 42H75C75.5523 42 76 42.4477 76 43C76 43.5523 75.5523 44 75 44H35C34.4477 44 34 43.5523 34 43Z" fill="#F4F1ED"/>
<path fill-rule="evenodd" clip-rule="evenodd" d="M37 63C37 62.4477 37.4477 62 38 62H76C76.5523 62 77 62.4477 77 63C77 63.5523 76.5523 64 76 64H38C37.4477 64 37 63.5523 37 63Z" fill="#F4F1ED"/>
<path fill-rule="evenodd" clip-rule="evenodd" d="M44.416 83.4986C41.3074 83.7475 38.153 84 35 84C34.4477 84 34 83.5523 34 83C34 82.4477 34.4477 82 35 82C38.0671 82 41.1489 81.7537 44.2782 81.5032L44.2959 81.5018C47.4059 81.2528 50.5631 81 53.7204 81C55.3729 81 57.0146 81.1684 58.5949 81.3304L58.6117 81.3321C60.2146 81.4965 61.7548 81.6538 63.2833 81.6538C64.9653 81.6538 66.5999 81.7419 68.2012 81.8282L68.2046 81.8284C69.815 81.9151 71.3915 82 73 82C73.5523 82 74 82.4477 74 83C74 83.5523 73.5523 84 73 84C71.3363 84 69.7135 83.9126 68.1183 83.8266L68.097 83.8255C66.4869 83.7387 64.9041 83.6538 63.2833 83.6538C61.6463 83.6538 60.0148 83.4865 58.4398 83.325L58.4076 83.3217C56.8052 83.1574 55.2595 83 53.7204 83C50.6505 83 47.5672 83.2463 44.4379 83.4968L44.416 83.4986Z" fill="#F4F1ED"/>
</svg>
