<svg width="96" height="96" viewBox="0 0 96 96" fill="none" xmlns="http://www.w3.org/2000/svg">
<path fill-rule="evenodd" clip-rule="evenodd" d="M61.1926 16.8434C61.6271 16.4119 62.2789 15.8936 63.0585 15.8782C64.4493 15.8508 65.7975 16.3229 66.7478 16.7571C67.2331 16.9789 67.6384 17.2019 67.9238 17.3703C68.0669 17.4548 68.181 17.5261 68.261 17.5776C68.2856 17.5934 68.307 17.6073 68.3251 17.6192C68.3493 17.6311 68.3792 17.6458 68.4142 17.6633C68.5112 17.7119 68.6477 17.782 68.8112 17.8708C69.1364 18.0475 69.5772 18.3032 70.03 18.6156C70.4779 18.9246 70.9669 19.3091 71.369 19.7489C71.7573 20.1735 72.1545 20.7468 72.2485 21.4347C72.4131 22.6391 71.9295 23.7809 71.4957 24.6725C71.3679 24.9352 71.2442 25.178 71.1279 25.4062C70.8013 26.0473 70.5333 26.5733 70.3976 27.1015C70.0844 28.3212 69.5664 29.3754 69.1049 30.2636C69.0369 30.3946 68.9711 30.5203 68.9077 30.6414C68.5184 31.385 68.2204 31.9542 68.0635 32.4842C67.3122 35.0218 66.3272 37.2847 65.3311 39.5727C64.8144 40.7597 64.2947 41.9535 63.8032 43.1959C61.4975 49.0243 58.6501 54.5921 55.8258 60.1146C54.7146 62.2875 53.6069 64.4535 52.5372 66.6255C51.4284 68.877 50.2333 70.646 49.0182 72.3526C48.7934 72.6684 48.5687 72.981 48.344 73.2936C47.3484 74.6786 46.3523 76.0644 45.3472 77.7246C45.3062 77.7924 45.2705 77.855 45.2317 77.9229L45.2136 77.9546C45.1729 78.0259 45.1177 78.1224 45.0584 78.2108C45.0038 78.2921 44.9018 78.4353 44.7466 78.5596C44.5689 78.7018 44.2964 78.8375 43.9515 78.8174C43.6397 78.7991 43.4093 78.6602 43.2772 78.5617C43.1417 78.4606 43.0292 78.3414 42.9412 78.2388C42.7651 78.0336 42.5637 77.7476 42.3323 77.4049C41.6063 76.33 40.7202 75.4642 39.5475 74.3182C39.3281 74.1039 39.0988 73.8798 38.8586 73.6427C37.7313 72.5299 36.746 71.7787 35.7167 70.9939L35.7088 70.9879C34.6747 70.1993 33.5971 69.377 32.3702 68.1579C30.6669 66.4656 29.4656 64.9777 28.2679 63.4944C27.8643 62.9945 27.4611 62.4951 27.0392 61.9886C26.7404 61.6299 26.2062 61.0009 25.7434 60.4578C25.5127 60.1871 25.3009 59.939 25.1467 59.7586L24.8965 59.4661C24.5374 59.0465 24.5861 58.4149 25.0056 58.0558C25.4252 57.6966 26.0565 57.7456 26.4156 58.1651L26.6671 58.4593C26.8217 58.6402 27.0342 58.889 27.2656 59.1606C27.7272 59.7022 28.2688 60.3398 28.576 60.7087C29.0329 61.2572 29.4561 61.7813 29.8707 62.2947C31.0504 63.7556 32.1607 65.1304 33.7798 66.7391C34.9056 67.8577 35.8909 68.6116 36.9215 69.3974L36.9515 69.4203C37.9751 70.2007 39.0452 71.0167 40.2636 72.2193C40.484 72.4369 40.7011 72.6486 40.9143 72.8566C42.0602 73.9743 43.0942 74.9828 43.9341 76.204C44.8842 74.6792 45.8305 73.3631 46.7346 72.1057C46.9554 71.7986 47.1737 71.495 47.3889 71.1927C48.5829 69.5156 49.7051 67.8493 50.743 65.7419C51.842 63.5102 52.9674 61.3097 54.0884 59.1178C56.8958 53.6284 59.6754 48.1934 61.9435 42.4602C62.4899 41.0788 63.0366 39.8255 63.5642 38.6158C64.527 36.4084 65.4264 34.3463 66.1458 31.9165C66.3632 31.1821 66.7683 30.4116 67.1487 29.6881C67.2101 29.5712 67.2709 29.4556 67.3302 29.3416C67.7805 28.4747 68.2073 27.5898 68.4605 26.604C68.6567 25.8402 69.0705 25.0311 69.4227 24.3424C69.5211 24.1502 69.6146 23.9673 69.6973 23.7974C70.1291 22.9099 70.3423 22.2571 70.267 21.7055C70.2532 21.6051 70.1679 21.3992 69.893 21.0985C69.6318 20.8128 69.2768 20.5258 68.8942 20.2618C68.5166 20.0013 68.1404 19.7825 67.8562 19.6281C67.715 19.5513 67.5987 19.4917 67.5191 19.4518C67.4794 19.432 67.449 19.4171 67.4293 19.4076L67.4082 19.3975L67.4044 19.3957L67.3291 19.3605L67.262 19.3142L67.261 19.3135L67.2599 19.3128L67.2457 19.3033C67.232 19.2941 67.2096 19.2793 67.1793 19.2598C67.1187 19.2208 67.0264 19.163 66.9073 19.0928C66.6684 18.9518 66.3257 18.7631 65.9165 18.5762C65.0778 18.1929 64.051 17.859 63.098 17.8778C63.1102 17.8776 63.1098 17.8778 63.0967 17.8836C63.0559 17.9018 62.8915 17.975 62.6019 18.2626C62.267 18.5951 61.904 19.0755 61.5594 19.6214C61.2184 20.1617 60.917 20.7319 60.6979 21.2207C60.5884 21.4651 60.5035 21.6799 60.4453 21.8534C60.4162 21.94 60.3957 22.0106 60.3822 22.0654C60.3755 22.0925 60.3711 22.1134 60.3683 22.1286C60.3655 22.1442 60.3651 22.149 60.3651 22.149C60.2697 23.1572 59.8095 23.9807 59.3835 24.6765C59.2996 24.8135 59.2168 24.9461 59.1354 25.0764C58.7796 25.646 58.4531 26.1688 58.199 26.8022C57.4674 28.6264 56.9133 30.2424 56.3888 31.7721C56.2421 32.2 56.0977 32.6211 55.9524 33.038C55.2911 34.9359 54.6154 36.7339 53.6359 38.5845C52.9762 39.831 52.5993 40.7411 52.1877 41.7539C52.1682 41.8021 52.1485 41.8505 52.1287 41.8991C51.729 42.8834 51.2852 43.9762 50.5294 45.5211C49.9037 46.7999 49.2324 48.0858 48.5823 49.331C47.6694 51.0795 46.7984 52.7477 46.1545 54.2037C45.8982 54.7831 45.7603 55.4166 45.5955 56.1741L45.5941 56.1803C45.4365 56.9045 45.2524 57.7489 44.8766 58.5493C44.8419 58.6232 44.8037 58.7052 44.7624 58.794C44.5278 59.2983 44.1921 60.02 43.8154 60.7055C43.5929 61.1105 43.3453 61.5229 43.0824 61.8867C42.8282 62.2384 42.5179 62.6036 42.1564 62.8602C41.7874 63.1221 41.4057 63.0507 41.2902 63.024C41.1391 62.989 41.0161 62.929 40.9427 62.8898C40.7875 62.807 40.6298 62.694 40.49 62.5861C40.1997 62.3619 39.8346 62.0396 39.4336 61.6668C38.6248 60.9149 37.5919 59.8842 36.564 58.8325C34.5115 56.7325 32.4234 54.4913 32.0959 54.1166C31.1334 53.0156 30.1863 52.1751 29.0418 51.2925C28.9976 51.3325 28.9433 51.3932 28.887 51.4767C28.8154 51.583 28.7583 51.7002 28.7222 51.8045C28.5978 52.1637 28.2581 52.7588 27.9091 53.3401C27.5343 53.9644 27.0699 54.6994 26.6201 55.3977C26.1694 56.0973 25.7297 56.7659 25.403 57.2593C25.2395 57.5061 25.1041 57.7094 25.0095 57.851L24.8996 58.0152L24.8605 58.0736C24.8605 58.0736 24.8604 58.0737 24.0305 57.5158L23.2006 56.9578L23.2383 56.9017L23.3463 56.7402C23.4397 56.6004 23.5737 56.3993 23.7355 56.1549C24.0594 55.6659 24.4941 55.0048 24.9387 54.3147C25.3841 53.6232 25.8355 52.9085 26.1944 52.3107C26.374 52.0114 26.5265 51.7481 26.6419 51.5353C26.6996 51.4289 26.7453 51.3404 26.7793 51.2696C26.7962 51.2345 26.809 51.2064 26.8183 51.1846C26.8229 51.1739 26.8263 51.1656 26.8287 51.1594L26.8314 51.1525L26.8322 51.1502C27.0071 50.645 27.3614 50.0448 27.8889 49.6545C28.1638 49.4511 28.5284 49.2748 28.9643 49.2543C29.4166 49.2331 29.8419 49.3851 30.2051 49.6641C31.4473 50.6183 32.5143 51.5565 33.6016 52.8002C33.8909 53.1311 35.9468 55.3396 37.9943 57.4346C39.0164 58.4804 40.0225 59.4835 40.7953 60.202C41.0361 60.4258 41.2469 60.6151 41.4238 60.7665C41.4362 60.7498 41.4488 60.7326 41.4616 60.715C41.6585 60.4425 41.8618 60.1077 42.0626 59.7423C42.4038 59.1214 42.7071 58.47 42.9432 57.9628C42.9865 57.8698 43.0276 57.7816 43.0662 57.6994C43.3317 57.1338 43.4763 56.5065 43.6399 55.755C43.6462 55.7258 43.6526 55.6964 43.659 55.6667C43.8102 54.9707 43.9857 54.1627 44.3254 53.3947C44.9832 51.9073 45.92 50.11 46.867 48.2934C47.5126 47.0546 48.163 45.8068 48.7329 44.6421C49.458 43.1601 49.8801 42.1207 50.2773 41.1426C50.2966 41.0952 50.3158 41.048 50.3349 41.0009C50.7535 39.9709 51.1604 38.9861 51.8682 37.6489C52.775 35.9357 53.411 34.2532 54.0638 32.38C54.2035 31.9789 54.3442 31.5684 54.4886 31.1472C55.0151 29.6116 55.5902 27.9341 56.3428 26.0577C56.6694 25.2432 57.1081 24.5434 57.4686 23.9684C57.5421 23.8511 57.6124 23.739 57.6778 23.6321C58.0887 22.961 58.3252 22.4763 58.3739 21.9606C58.4155 21.5212 58.6335 20.9366 58.8728 20.4027C59.1304 19.828 59.4765 19.1744 59.8681 18.5539C60.2561 17.9391 60.7108 17.3218 61.1926 16.8434ZM24.0305 57.5158L23.2006 56.9578C22.8925 57.4162 23.0143 58.0375 23.4726 58.3456C23.9309 58.6538 24.5524 58.5319 24.8605 58.0736L24.0305 57.5158ZM29.1094 51.2426L29.1081 51.2431L29.1094 51.2426Z" fill="#F4F1ED"/>
<path fill-rule="evenodd" clip-rule="evenodd" d="M90.7586 2.28998C90.9315 2.41461 91.2076 2.69875 91.2076 3.15566C91.2076 3.91275 91.4361 4.68333 91.7262 5.63094L91.7426 5.68448C92.0123 6.56516 92.3323 7.61023 92.3323 8.7053C92.3323 13.7706 92.1501 18.8048 91.9682 23.8304C91.9045 25.5898 91.8409 27.3482 91.7851 29.1065C91.6112 34.5882 91.4016 40.0545 91.1913 45.5277C91.1363 46.958 91.0156 48.4029 90.8973 49.8203C90.8389 50.5191 90.7811 51.2112 90.732 51.8916C90.5811 53.9823 90.5055 56.0278 90.7031 58.0712C90.9478 60.6019 91.3167 63.1144 91.69 65.6569C91.7289 65.9213 91.7677 66.186 91.8065 66.4511C92.2167 69.2553 92.6162 72.096 92.8295 74.9771C93.0706 78.2344 93.0269 81.3361 92.878 84.5395C92.7684 86.898 92.4224 89.9914 90.7076 92.1366C90.4968 92.4003 90.2237 92.5256 90.0491 92.5882C89.8595 92.6562 89.6631 92.693 89.4907 92.7151C89.1449 92.7594 88.7552 92.761 88.4064 92.7501C88.0502 92.7389 87.6949 92.7129 87.4103 92.691L87.3375 92.6854C87.0679 92.6646 86.916 92.6529 86.8491 92.6529C84.9492 92.6529 83.0575 92.7225 81.1446 92.7929L81.135 92.7933C79.2313 92.8634 77.3065 92.9343 75.3677 92.9343C70.891 92.9343 66.4516 92.7566 62.0192 92.5792C60.0166 92.4991 58.0154 92.419 56.0128 92.3554C55.2677 92.3317 54.5255 92.3072 53.7857 92.2828C48.5067 92.1084 43.3469 91.938 38.081 92.1053C36.8505 92.1443 35.6228 92.1776 34.3974 92.2109C30.4919 92.3167 26.6101 92.422 22.7375 92.7126C21.3292 92.8183 19.9125 92.9375 18.4902 93.057C14.7044 93.3753 10.8784 93.697 7.06296 93.7782C7.03285 93.7789 6.96321 93.7892 6.79908 93.8344C6.78054 93.8395 6.75805 93.8459 6.73242 93.8533C6.60289 93.8902 6.39333 93.9501 6.21036 93.9779C6.00712 94.0089 5.50729 94.0606 5.07482 93.705C4.6354 93.3438 4.5733 92.8209 4.5733 92.4971V91.0901C4.5733 90.4165 4.57019 89.729 4.56703 89.0313C4.55292 85.9152 4.5379 82.5971 4.79524 79.4101C5.46917 71.0639 5.76991 62.7082 5.47992 54.3565C5.33001 50.0392 5.05602 46.0744 4.17347 41.93C3.9956 41.0948 3.76615 40.269 3.52707 39.4085C3.51155 39.3526 3.49598 39.2966 3.48039 39.2405C3.22782 38.3306 2.96862 37.3824 2.77963 36.4097C1.93971 32.0869 1.98295 27.6464 2.02475 23.3553C2.03376 22.4296 2.04271 21.5109 2.04271 20.6019C2.04271 19.6929 2.03214 18.766 2.02142 17.8268C1.97161 13.4601 1.91875 8.82651 2.91134 4.48064C3.03432 3.94222 3.57048 3.60543 4.1089 3.72841C4.64732 3.85138 4.98411 4.38755 4.86113 4.92597C3.92655 9.01789 3.97402 13.36 4.02168 17.7187C4.03219 18.6798 4.04271 19.6417 4.04271 20.6019C4.04271 21.554 4.0338 22.502 4.02494 23.4456C3.98471 27.7285 3.94531 31.9232 4.74291 36.0283C4.91495 36.9137 5.15377 37.7914 5.40752 38.7055C5.42423 38.7657 5.44101 38.8261 5.45784 38.8866C5.69339 39.7341 5.93846 40.6159 6.12961 41.5135C7.04888 45.8303 7.32754 49.9334 7.47872 54.2871C7.77195 62.7322 7.46738 71.1667 6.78875 79.5711C6.53896 82.6646 6.55323 85.877 6.56705 88.9893C6.57019 89.6956 6.5733 90.3967 6.5733 91.0901V91.8316C6.70796 91.8043 6.86121 91.7821 7.02038 91.7787C10.7686 91.6989 14.4998 91.3852 18.2638 91.0687C19.6994 90.948 21.1398 90.8269 22.5878 90.7182C26.5129 90.4236 30.461 90.3167 34.377 90.2106C35.5941 90.1776 36.8082 90.1447 38.0175 90.1063C43.353 89.9368 48.582 90.1096 53.8552 90.2839C54.5946 90.3084 55.3348 90.3328 56.0764 90.3564C58.1147 90.4212 60.1352 90.502 62.1474 90.5826C66.5592 90.7592 70.9317 90.9343 75.3677 90.9343C77.2669 90.9343 79.1582 90.8647 81.071 90.7943L81.0795 90.794C82.9836 90.7238 84.9092 90.6529 86.8491 90.6529C87.0001 90.6529 87.2397 90.6716 87.4654 90.6893C87.4986 90.6918 87.5314 90.6944 87.5637 90.6969C87.8462 90.7186 88.1623 90.7414 88.4692 90.7511C88.7836 90.761 89.0486 90.7554 89.2366 90.7313C89.2479 90.7299 89.2586 90.7284 89.2686 90.7269C90.4387 89.1347 90.7736 86.7398 90.8801 84.4467C91.0271 81.2838 91.0678 78.2704 90.8349 75.1247C90.6275 72.3225 90.2379 69.5454 89.8276 66.7406C89.7887 66.4751 89.7497 66.2093 89.7106 65.9432C89.3384 63.4084 88.9622 60.8465 88.7124 58.2637C88.4985 56.052 88.5837 53.8743 88.7372 51.7477C88.7898 51.0183 88.8497 50.3018 88.9091 49.5918C89.0253 48.2026 89.1394 46.8383 89.1927 45.4509C89.4031 39.9768 89.6125 34.517 89.7861 29.0431C89.8425 27.2649 89.9066 25.4942 89.9705 23.7277C90.152 18.7128 90.3323 13.7313 90.3323 8.7053C90.3323 7.93836 90.1032 7.16183 89.8138 6.2163L89.7938 6.15093C89.5962 5.50586 89.3718 4.77338 89.2672 4.00006C89.0326 4.00097 88.7429 4.01016 88.4024 4.02779C87.3055 4.08455 85.8119 4.22111 84.2489 4.3816C83.0451 4.50519 81.8129 4.64161 80.7036 4.76442C80.3754 4.80076 80.058 4.83591 79.7552 4.86918C78.4588 5.01163 77.3754 5.12652 76.9289 5.14006C74.076 5.22658 71.1836 5.56277 68.2799 5.90028C68.0566 5.92624 67.8332 5.9522 67.6097 5.97806C58.0804 7.08093 48.5812 7.39165 39.0178 7.39165C35.3602 7.39165 30.8355 7.26607 27.2322 7.14092C25.4291 7.07829 23.8538 7.01566 22.7293 6.96869C22.167 6.9452 21.7172 6.92562 21.408 6.91191L20.9297 6.89034C20.9297 6.89034 20.9291 6.89032 20.9756 5.8914L20.9297 6.89034L20.9115 6.8895L6.39763 5.69996C5.84719 5.65485 5.43754 5.17206 5.48266 4.62162C5.52777 4.07118 6.01056 3.66153 6.561 3.70665L21.0395 4.89328L21.4965 4.91387C21.8043 4.92752 22.2523 4.94702 22.8127 4.97043C23.9337 5.01725 25.5041 5.07969 27.3016 5.14212C30.8995 5.26709 35.396 5.39165 39.0178 5.39165C48.541 5.39165 57.9561 5.08196 67.3798 3.99132C67.6077 3.96495 67.8363 3.93837 68.0654 3.91173C70.9514 3.57612 73.9259 3.23021 76.8683 3.14098C77.2133 3.13052 78.1892 3.02922 79.5367 2.88115C79.8363 2.84822 80.1516 2.81332 80.4784 2.77714C81.5888 2.6542 82.832 2.51655 84.0446 2.39206C85.6109 2.23124 87.1478 2.09004 88.299 2.03046C88.8686 2.00098 89.3776 1.98951 89.7581 2.01141C89.9383 2.02178 90.1515 2.04243 90.3437 2.0959C90.4336 2.12093 90.5971 2.17358 90.7586 2.28998ZM5.90409 92.0014C5.90409 92.0014 5.90516 92.0012 5.90739 92.001L5.90409 92.0014ZM6.57383 92.522C6.57519 92.5309 6.57521 92.5361 6.57521 92.5361C6.57521 92.5361 6.57432 92.5319 6.57383 92.522Z" fill="#F4F1ED"/>
</svg>
