<svg width="96" height="96" viewBox="0 0 96 96" fill="none" xmlns="http://www.w3.org/2000/svg">
<path fill-rule="evenodd" clip-rule="evenodd" d="M46.91 25.7411C46.9699 25.8159 47.0815 25.9612 47.1536 26.1269C47.2787 26.4146 47.4462 26.6567 47.6696 26.9799C47.7528 27.1002 47.8437 27.2318 47.9432 27.3811C48.2707 27.8731 48.655 28.5224 48.7402 29.3496C48.8577 30.4904 49.2663 31.4955 49.8286 32.5235C50.1117 33.0411 50.4261 33.5512 50.7601 34.0917L50.7789 34.1222C51.1029 34.6465 51.4443 35.1991 51.764 35.777C52.6835 37.4391 53.7264 38.9469 54.7915 40.4867C55.3243 41.2569 55.8627 42.0352 56.3938 42.8448C57.9545 45.2234 59.3757 47.7721 60.0392 50.8227C60.0547 50.8944 60.0699 50.9591 60.0846 51.0173C60.163 50.9738 60.2448 50.9272 60.3372 50.8746C60.3744 50.8534 60.4133 50.8313 60.4544 50.8079C60.6444 50.7001 60.8222 50.602 60.9905 50.5091C61.5722 50.1881 62.0411 49.9294 62.5087 49.5472C63.1238 49.0445 63.8984 48.7181 64.5181 48.4571C64.5632 48.4381 64.6074 48.4194 64.6507 48.4011C65.3603 48.1006 65.8773 47.8605 66.2368 47.5299C69.794 44.2589 73.2458 40.6429 76.6363 37.0454C77.1689 36.4804 77.6888 35.8998 78.2208 35.3057C78.3092 35.207 78.3979 35.1079 78.4871 35.0085C79.1087 34.3152 79.7484 33.6085 80.4216 32.9208C80.5956 32.743 80.7967 32.513 81.034 32.2374C81.0651 32.2013 81.0969 32.1644 81.1291 32.1269C81.3346 31.8879 81.5604 31.6253 81.7914 31.3715C82.2848 30.8293 82.9275 30.1797 83.6238 29.8481C83.6366 29.838 83.6629 29.8169 83.7042 29.7797C83.7931 29.6995 83.9077 29.5855 84.0463 29.4397C84.2527 29.2226 84.4795 28.9704 84.7172 28.7059C84.8015 28.6121 84.8872 28.5168 84.9739 28.4209C85.2869 28.0747 85.6262 27.7062 85.9038 27.4576C86.0216 27.3521 86.2243 27.178 86.4596 27.0761C86.5607 27.0324 86.87 26.9096 87.242 27.0252C87.7227 27.1746 87.913 27.5768 87.9672 27.8263C88.0119 28.0316 88.0295 28.2981 88.0412 28.5033C88.0492 28.6443 88.054 28.7466 88.0587 28.8475C88.0639 28.9582 88.069 29.0673 88.0783 29.224C88.0926 29.4671 88.11 29.6726 88.1338 29.826C88.1397 29.8643 88.1453 29.8938 88.1499 29.9156C88.3452 30.2087 88.4353 30.5298 88.482 30.7913C88.5365 31.0958 88.5475 31.4102 88.5444 31.6881C88.5413 31.9686 88.523 32.2488 88.5075 32.4824C88.491 32.7321 88.4791 32.9119 88.4791 33.0492C88.4791 33.3541 88.5259 33.6399 88.5895 33.9988L88.5987 34.0506C88.6571 34.3791 88.7306 34.7922 88.7306 35.2333C88.7306 36.2441 88.903 37.2955 89.0944 38.4542L89.0976 38.4733C89.283 39.5954 89.485 40.8182 89.485 42.0422V50.0217C89.485 51.1698 89.5948 52.3171 89.7157 53.5145C89.7218 53.5757 89.7281 53.637 89.7343 53.6985C89.8483 54.8247 89.9671 55.9983 89.9878 57.1844C90.0412 60.2385 89.9123 63.2442 89.749 66.2491C89.6621 67.8462 89.5438 69.4314 89.4261 71.0083C89.203 73.9978 88.982 76.9576 88.982 79.9127C88.982 80.2712 89.0417 80.6695 89.1147 81.1373L89.1235 81.1934C89.1878 81.6043 89.2676 82.1138 89.2507 82.5647C89.2329 83.0375 89.0967 83.7499 88.4148 84.168C87.8112 84.5382 87.0621 84.4867 86.3635 84.328C85.3874 84.1064 84.3076 84.0556 83.1538 84.0673C82.6206 84.0726 82.0848 84.091 81.5404 84.1097L81.4119 84.1141C80.8285 84.134 80.2354 84.153 79.6553 84.153C76.9376 84.153 74.2279 84.085 71.5329 84.0174C71.1968 84.009 70.8609 84.0006 70.5252 83.9923C67.4928 83.9174 64.476 83.8536 61.4511 83.896C59.9515 83.917 58.4433 84.0314 56.8973 84.1487C56.8165 84.1548 56.7356 84.161 56.6546 84.1671C55.0355 84.2897 53.3765 84.41 51.7132 84.41C49.7534 84.41 47.8005 84.3685 45.8555 84.3272C41.4454 84.2335 37.0763 84.1407 32.7616 84.5343C26.5273 85.103 20.1359 85.1808 13.9216 85.1808C12.2745 85.1808 10.6573 85.2983 9.04213 85.5669C8.99415 85.5749 8.87458 85.5994 8.68678 85.638C8.63754 85.6481 8.5836 85.6591 8.52503 85.6711C8.26172 85.725 7.935 85.7909 7.61644 85.8488C7.30476 85.9054 6.97288 85.9596 6.70789 85.9846C6.58537 85.9961 6.4211 86.0073 6.26457 85.9938C6.19817 85.9881 6.03971 85.9716 5.86828 85.8947C5.70097 85.8198 5.25151 85.5455 5.25151 84.9516C5.25151 83.5158 5.18972 82.078 5.1267 80.6181L5.12587 80.5989C5.06343 79.1524 5.00003 77.6837 5.00003 76.2156C5.00003 73.4125 5.08863 70.0275 5.64735 67.1732C5.77739 66.5089 5.78986 65.7857 5.80419 64.9548C5.80519 64.8969 5.8062 64.8385 5.80725 64.7795C5.82264 63.9209 5.84886 62.9397 6.0964 62.0229C6.30123 61.2643 6.35131 60.4046 6.34034 59.4577C6.33526 59.0191 6.31758 58.5776 6.29944 58.1245L6.29539 58.0232C6.27616 57.5407 6.25742 57.0445 6.25742 56.5595C6.25742 55.6944 6.12201 54.7982 5.97249 53.8085C5.94726 53.6415 5.92163 53.4718 5.89618 53.2992C5.73467 52.2038 5.58382 51.002 5.69749 49.8123C5.42863 49.6331 5.25151 49.3271 5.25151 48.9797V45.7512C5.25151 44.0367 5.38021 42.3431 5.50532 40.6966L5.50586 40.6895C5.63209 39.0284 5.75446 37.4154 5.75446 35.8019C5.75446 34.7588 5.81855 33.7225 5.88064 32.7187L5.88211 32.6949C5.94528 31.6734 6.00594 30.6842 6.00594 29.6923C6.00594 29.5564 5.98251 29.3191 5.94795 28.9689C5.94329 28.9218 5.93844 28.8726 5.93341 28.8213C5.89527 28.4324 5.85152 27.9557 5.85217 27.5366C5.8525 27.3279 5.86348 27.0964 5.90345 26.8778C5.93701 26.6943 6.01841 26.3501 6.28092 26.0707C6.43131 25.9106 6.6415 25.7724 6.90718 25.7165C7.16476 25.6623 7.39767 25.7015 7.57685 25.7636C7.90228 25.8765 8.1614 26.103 8.3493 26.295C8.6214 26.573 8.90614 26.8009 9.23991 27.0681C9.39779 27.1945 9.56664 27.3296 9.7503 27.483C10.2768 27.9228 10.861 28.4688 11.2769 29.2243C11.3857 29.4219 11.4904 29.6158 11.5927 29.8054C12.1243 30.7901 12.5935 31.6591 13.2531 32.3331C14.7456 33.858 15.3233 34.9459 15.8662 35.9718L15.8713 35.9814C16.375 36.9333 16.8466 37.8246 18.1361 39.1421C19.2382 40.2682 20.5892 42.0261 21.642 43.465C22.1739 44.1919 22.6392 44.8508 22.9716 45.3279C23.1379 45.5666 23.2712 45.7601 23.3631 45.8944C23.4091 45.9615 23.4447 46.0138 23.469 46.0495L23.4782 46.063L23.6217 46.2354C23.7334 46.3696 23.8939 46.5621 24.0885 46.7953C24.4778 47.2616 25.0033 47.8901 25.549 48.539C26.1667 49.2736 26.7934 50.0143 27.278 50.5782C27.3279 50.5208 27.3812 50.4521 27.4549 50.3573C27.4821 50.3222 27.5121 50.2836 27.5457 50.2407C27.6794 50.0698 27.879 49.8207 28.1367 49.6159C29.005 48.9259 29.6224 47.9886 30.2228 46.7852C30.4993 46.2309 30.7623 45.6415 31.0469 45.0034C31.0719 44.9474 31.097 44.8911 31.1224 44.8343C31.4331 44.1384 31.7684 43.3944 32.1566 42.631C32.5183 41.9196 32.7771 41.362 33.038 40.8001C33.226 40.395 33.4151 39.9876 33.6446 39.5186C34.1583 38.469 34.7675 37.6192 35.3681 36.8348C35.5108 36.6484 35.6513 36.4678 35.7898 36.2897C36.2462 35.7029 36.6808 35.1441 37.1003 34.5012C37.5091 33.8747 38.03 33.3666 38.4675 32.9397L38.4829 32.9247C38.9485 32.4704 39.3289 32.0969 39.6247 31.6604C40.5704 30.2647 41.642 29.0866 42.6963 27.9273C42.7496 27.8688 42.8028 27.8102 42.856 27.7517C43.1406 27.4386 43.4131 27.0909 43.7124 26.7089C43.7427 26.6703 43.7732 26.6312 43.8041 26.5919C44.1286 26.1784 44.487 25.7274 44.8793 25.3267C45.3929 24.8019 46.0265 25.0506 46.1668 25.1158C46.3694 25.2098 46.5297 25.346 46.6248 25.4341C46.7329 25.5342 46.8311 25.6428 46.91 25.7411ZM21.841 47.2122L21.815 47.1739C21.7919 47.1399 21.7576 47.0895 21.713 47.0244C21.6237 46.8941 21.4935 46.705 21.3306 46.4712C21.0046 46.0033 20.5485 45.3575 20.0279 44.646C18.9759 43.2081 17.6986 41.5545 16.7067 40.541C15.2173 39.0192 14.641 37.9327 14.0984 36.9072L14.0949 36.9006C13.5909 35.948 13.118 35.0544 11.8238 33.7321C10.9477 32.8369 10.3233 31.673 9.798 30.6938C9.70409 30.5187 9.61334 30.3496 9.52489 30.1889C9.29155 29.7651 8.93921 29.4114 8.46828 29.0181C8.35472 28.9232 8.22658 28.8206 8.09037 28.7114C8.03437 28.6665 7.97701 28.6206 7.91874 28.5736C7.92043 28.591 7.92214 28.6085 7.92386 28.6261C7.9285 28.6734 7.93336 28.722 7.9383 28.7714C7.97042 29.0928 8.00594 29.4482 8.00594 29.6923C8.00594 30.7542 7.9411 31.8028 7.87862 32.813L7.8783 32.8183C7.81509 33.8403 7.75446 34.8228 7.75446 35.8019C7.75446 37.4941 7.62687 39.1731 7.50232 40.812L7.50011 40.8411C7.37392 42.5017 7.25151 44.1225 7.25151 45.7512V48.9097C7.56229 49.1103 7.74929 49.4762 7.70278 49.8683C7.58924 50.8254 7.70519 51.8572 7.87479 53.0075C7.89786 53.1639 7.92207 53.3233 7.94663 53.4849C8.09554 54.4651 8.25742 55.5307 8.25742 56.5595C8.25742 56.9993 8.27445 57.458 8.29381 57.9435C8.29522 57.9788 8.29664 58.0143 8.29806 58.0499C8.31599 58.4973 8.33478 58.9662 8.3402 59.4345C8.35187 60.4411 8.30415 61.5187 8.02726 62.5442C7.85324 63.1888 7.82277 63.9318 7.80693 64.8153C7.8057 64.8842 7.80456 64.9541 7.8034 65.0248C7.79052 65.8137 7.77587 66.7106 7.6101 67.5574C7.09174 70.2055 7.00003 73.4213 7.00003 76.2156C7.00003 77.6397 7.0618 79.0716 7.12484 80.5318L7.12492 80.5338C7.17258 81.6378 7.22093 82.7579 7.24138 83.8842C7.24717 83.8831 7.25298 83.8821 7.2588 83.881C7.55449 83.8273 7.86322 83.7651 8.12417 83.7117C8.16855 83.7026 8.21279 83.6935 8.25614 83.6846C8.44952 83.6449 8.62495 83.6088 8.71399 83.594C10.4505 83.3052 12.1785 83.1808 13.9216 83.1808C20.1284 83.1808 26.4424 83.1025 32.5799 82.5426C37.0103 82.1384 41.5648 82.2348 46.028 82.3292C47.9456 82.3698 49.8464 82.41 51.7132 82.41C53.2906 82.41 54.8785 82.2959 56.5036 82.1728C56.5902 82.1663 56.6768 82.1597 56.7636 82.1531C58.2943 82.0369 59.8596 81.9181 61.4231 81.8962C64.4906 81.8532 67.5417 81.918 70.5746 81.9929C70.9108 82.0012 71.2468 82.0096 71.5825 82.018C74.2807 82.0857 76.9643 82.153 79.6553 82.153C80.1968 82.153 80.7581 82.1352 81.3437 82.1152L81.4767 82.1107C82.0162 82.0922 82.5753 82.073 83.1336 82.0674C84.3388 82.0552 85.6023 82.1043 86.8063 82.3777C87.0147 82.425 87.1586 82.442 87.2531 82.4468C87.2554 82.2143 87.2099 81.9025 87.1387 81.4458L87.1346 81.4198C87.0669 80.9865 86.982 80.443 86.982 79.9127C86.982 76.8886 87.2127 73.791 87.439 70.7511C87.5549 69.1932 87.6698 67.6504 87.7519 66.1405C87.9147 63.146 88.0402 60.1989 87.9881 57.2193C87.9689 56.1192 87.8579 55.0219 87.7419 53.875L87.7258 53.7154C87.6057 52.5258 87.485 51.284 87.485 50.0217V42.0422C87.485 41.003 87.3121 39.9359 87.1212 38.7802L87.1115 38.7217C86.9283 37.6136 86.7306 36.417 86.7306 35.2333C86.7306 34.9763 86.6863 34.7212 86.6201 34.3476C86.558 33.9966 86.4791 33.5511 86.4791 33.0492C86.4791 32.8432 86.495 32.6035 86.5092 32.3905L86.5119 32.35C86.5278 32.1112 86.5422 31.8835 86.5446 31.666C86.547 31.4459 86.5363 31.2721 86.5133 31.1434C86.5 31.069 86.4864 31.0321 86.4818 31.0206C86.3463 30.8405 86.2796 30.6498 86.2451 30.5347C86.2043 30.3989 86.1771 30.259 86.1575 30.133C86.1558 30.1223 86.1542 30.1116 86.1526 30.1008C85.9305 30.3478 85.7019 30.601 85.4957 30.8178C85.3431 30.9783 85.1879 31.1349 85.0431 31.2654C84.9229 31.3737 84.7248 31.5441 84.4976 31.6473C84.2024 31.7813 83.7882 32.1487 83.2706 32.7175C83.06 32.949 82.8542 33.1883 82.6475 33.4286C82.6148 33.4666 82.5821 33.5046 82.5493 33.5427C82.3168 33.8126 82.076 34.0897 81.8509 34.3197C81.2108 34.9737 80.5962 35.6521 79.9761 36.3437C79.8887 36.4411 79.8012 36.5389 79.7135 36.6368C79.1823 37.23 78.6434 37.8319 78.0918 38.4172C74.7019 42.0139 71.2061 45.6774 67.5906 49.002C66.9357 49.6043 66.0911 49.9631 65.4305 50.2428L65.4071 50.2528C64.6877 50.5573 64.1595 50.781 63.7744 51.0957C63.1521 51.6044 62.4821 51.9727 61.8764 52.3058C61.727 52.3879 61.5816 52.4678 61.4417 52.5472C61.4071 52.5669 61.372 52.5869 61.3364 52.6072C61.1067 52.7382 60.8604 52.8787 60.6412 52.9794C60.4077 53.0867 60.0094 53.2472 59.5588 53.1788C59.0141 53.0961 58.671 52.7369 58.4719 52.3849C58.2907 52.0646 58.1757 51.6655 58.0848 51.2477C57.4988 48.5535 56.2346 46.2478 54.7217 43.9419C54.2469 43.2184 53.7389 42.4833 53.2208 41.7337C52.1232 40.1456 50.9805 38.4923 50.0139 36.7451C49.7178 36.2098 49.3981 35.6924 49.0667 35.1561L49.0586 35.143C48.7288 34.6091 48.3865 34.0547 48.074 33.4833C47.445 32.3334 46.9061 31.0626 46.7507 29.5545C46.7175 29.2324 46.5662 28.9218 46.2785 28.4896C46.227 28.4123 46.1673 28.3263 46.1025 28.2331C45.9569 28.0235 45.7858 27.7772 45.6267 27.5117C45.5453 27.6133 45.4625 27.7183 45.3776 27.8265C45.3463 27.8664 45.3147 27.9067 45.2827 27.9475C44.9914 28.3195 44.673 28.7261 44.3361 29.0968C44.2921 29.1453 44.2483 29.1935 44.2046 29.2415C43.128 30.4256 42.144 31.5078 41.2804 32.7823C40.8651 33.3952 40.3524 33.8952 39.9223 34.3146L39.8796 34.3562C39.416 34.8085 39.0494 35.174 38.7753 35.5941C38.3059 36.3135 37.8038 36.9588 37.3386 37.5566C37.2076 37.7249 37.0796 37.8894 36.9561 38.0507C36.3812 38.8015 35.8671 39.5271 35.4411 40.3977C35.254 40.7799 35.0729 41.1688 34.8842 41.5739C34.6014 42.1814 34.3015 42.8253 33.9393 43.5376C33.5762 44.2516 33.2589 44.9546 32.9486 45.6497C32.9225 45.7081 32.8964 45.7666 32.8704 45.825C32.5897 46.4543 32.3093 47.083 32.0124 47.678C31.3624 48.9811 30.5866 50.2236 29.381 51.1817C29.3257 51.2256 29.2516 51.3061 29.1206 51.4734C29.1039 51.4947 29.0853 51.5188 29.0651 51.545C28.9774 51.6586 28.8592 51.8119 28.7312 51.9532C28.7234 51.9666 28.7144 51.982 28.7042 51.9997C28.657 52.0814 28.5889 52.2005 28.5212 52.3148C28.456 52.4249 28.3757 52.5571 28.3013 52.664C28.2696 52.7095 28.209 52.7947 28.1318 52.8742C28.1035 52.9035 28.0049 53.0051 27.8516 53.0848C27.7727 53.1258 27.6088 53.1986 27.3881 53.2C27.1295 53.2015 26.8626 53.1028 26.661 52.8969C26.3025 52.5305 25.0937 51.1053 24.0182 49.8261C23.4705 49.1748 22.9433 48.5443 22.5531 48.0769C22.358 47.8431 22.197 47.65 22.0849 47.5153L21.9091 47.3042L21.8772 47.2658L21.841 47.2122ZM7.8772 27.2107C7.87744 27.211 7.87621 27.217 7.87282 27.2274C7.87528 27.2155 7.87697 27.2103 7.8772 27.2107ZM88.1605 29.9592C88.1604 29.9588 88.1602 29.9584 88.1601 29.9579C88.1639 29.9682 88.1636 29.9696 88.1605 29.9592Z" fill="#F4F1ED"/>
<path fill-rule="evenodd" clip-rule="evenodd" d="M7.70273 11C7.70273 10.4477 8.15045 10 8.70273 10C9.68845 10 10.7609 10.3946 11.6707 10.8844C12.596 11.3825 13.4817 12.0486 14.0956 12.728C14.716 13.4147 14.9071 14.3559 14.9704 15.1113C15.0363 15.8982 14.9777 16.7014 14.9335 17.2638C14.8414 18.4357 14.4441 19.4015 13.8066 20.1514C13.1751 20.8943 12.3543 21.3714 11.4933 21.6527C9.79778 22.2067 7.82821 22.0446 6.33127 21.5417C4.51625 20.9318 2.00003 19.5563 2.00003 16.5683C2.00003 16.5484 2.00002 16.5281 2.00002 16.5076C1.99982 15.9997 1.99955 15.299 2.11575 14.6327C2.23426 13.9531 2.50436 13.1144 3.21104 12.548C4.39457 11.5994 6.03877 10.9952 7.66794 11.5722C8.18854 11.7566 8.46109 12.3281 8.27671 12.8487C8.09233 13.3693 7.52083 13.6418 7.00023 13.4574C6.24722 13.1907 5.32051 13.4204 4.46182 14.1086C4.32224 14.2205 4.17415 14.4709 4.08602 14.9762C4.00029 15.4678 4.00003 16.0182 4.00003 16.5683C4.00003 18.1445 5.27745 19.0777 6.96825 19.6458C8.15235 20.0437 9.67168 20.1438 10.8721 19.7516C11.459 19.5598 11.9379 19.2617 12.2828 18.8561C12.6216 18.4575 12.8772 17.9015 12.9396 17.1071C12.9843 16.5385 13.0281 15.8842 12.9774 15.2783C12.9239 14.641 12.7791 14.2542 12.6116 14.0688C12.1791 13.5902 11.4872 13.057 10.7227 12.6454C9.94261 12.2255 9.21284 12 8.70273 12C8.15045 12 7.70273 11.5523 7.70273 11Z" fill="#F4F1ED"/>
<path fill-rule="evenodd" clip-rule="evenodd" d="M48.4235 11.2824C48.135 11.0023 47.6927 10.9135 47.306 11.0928C46.805 11.3251 46.5871 11.9196 46.8194 12.4206C46.9791 12.7651 47.2625 12.941 47.4026 13.0171C47.5672 13.1065 47.7419 13.1669 47.8872 13.2097C48.1795 13.2958 48.5269 13.3593 48.8262 13.4111C48.9021 13.4243 48.9755 13.4368 49.0467 13.4489C49.2796 13.4885 49.4877 13.5239 49.6749 13.5638C49.8979 13.6112 49.9769 13.6438 49.9781 13.6411C49.9782 13.6408 49.9775 13.6401 49.9758 13.6389C50.5932 14.0437 50.8929 14.5708 50.9757 15.1407C51.0627 15.7392 50.9182 16.4598 50.4962 17.193C50.3454 17.4551 50.1782 17.7058 49.9902 17.9878C49.9237 18.0874 49.8547 18.191 49.7828 18.3003C49.5361 18.6758 49.2675 19.1043 49.0603 19.5698C49.0111 19.6025 48.9257 19.6467 48.786 19.7026C48.6795 19.7452 48.5782 19.7808 48.4601 19.8224C48.4076 19.8409 48.3517 19.8606 48.2906 19.8825C48.1221 19.9431 47.892 20.0286 47.6875 20.1447C47.2816 20.3751 46.6989 20.6461 46.1196 20.8218C45.4974 21.0104 45.0651 21.031 44.8572 20.9687C44.465 20.8512 44.0913 20.7984 43.7779 20.7616C43.6863 20.7508 43.6029 20.7416 43.5253 20.733C43.3153 20.7098 43.148 20.6913 42.9754 20.659C42.6043 20.5896 42.352 20.4821 42.1054 20.1595C42.1033 20.1526 42.1008 20.1443 42.0981 20.1343C42.0797 20.0665 42.0596 19.9627 42.0426 19.8206C42.0085 19.5371 41.9949 19.1745 42.0017 18.7897C42.0085 18.4074 42.0349 18.0272 42.0736 17.7139C42.0929 17.5572 42.1142 17.4258 42.1354 17.3242C42.154 17.2352 42.1678 17.1923 42.1709 17.1827C42.1716 17.1803 42.1717 17.1799 42.1711 17.1815C42.6367 16.0769 43.0646 15.4347 43.5512 15.0506C44.0083 14.6899 44.6292 14.4706 45.6813 14.4706C46.2336 14.4706 46.6813 14.0229 46.6813 13.4706C46.6813 12.9183 46.2336 12.4706 45.6813 12.4706C44.3366 12.4706 43.2284 12.7576 42.3122 13.4806C41.4257 14.1803 40.8361 15.1993 40.3281 16.4047C40.2024 16.7031 40.1324 17.1139 40.0886 17.4691C40.0405 17.8592 40.0099 18.3098 40.0021 18.7542C39.9942 19.196 40.0084 19.6559 40.0569 20.0593C40.0811 20.2606 40.116 20.4664 40.1679 20.6579C40.2156 20.8339 40.297 21.0723 40.4511 21.2861C41.0905 22.1726 41.8723 22.4874 42.6077 22.6249C42.8612 22.6724 43.1333 22.7023 43.362 22.7274C43.4266 22.7345 43.4878 22.7412 43.5441 22.7478C43.8261 22.781 44.0611 22.8181 44.2832 22.8846C45.0825 23.1241 45.9974 22.9487 46.6998 22.7357C47.4451 22.5098 48.1643 22.1738 48.6748 21.884C48.7136 21.862 48.7961 21.8261 48.9671 21.7647C49.0021 21.752 49.0423 21.7379 49.0859 21.7226C49.2176 21.6762 49.3805 21.6188 49.5288 21.5595C49.7317 21.4783 49.9804 21.3662 50.2107 21.206C50.4422 21.045 50.7096 20.7978 50.8682 20.4274C51.0053 20.1069 51.2053 19.7775 51.4543 19.3987C51.5085 19.3162 51.5662 19.2296 51.626 19.14C51.8233 18.8442 52.0428 18.5153 52.2296 18.1906C52.827 17.1527 53.1191 15.9826 52.9549 14.853C52.7872 13.6993 52.152 12.6649 51.0476 11.9502C50.7446 11.7541 50.3424 11.6611 50.0915 11.6076C49.8596 11.5582 49.5949 11.5133 49.3547 11.4725C49.2901 11.4615 49.2273 11.4508 49.1673 11.4404C48.8594 11.3871 48.6193 11.3404 48.4521 11.2911C48.4417 11.2881 48.4322 11.2852 48.4235 11.2824ZM42.1141 20.1847C42.1141 20.1847 42.1138 20.1841 42.1133 20.1827L42.1141 20.1847Z" fill="#F4F1ED"/>
<path fill-rule="evenodd" clip-rule="evenodd" d="M87.1413 11.0485C87.5606 11.0683 87.9514 11.0853 88.3264 11.0853C88.7291 11.0853 89.0762 11.3234 89.2347 11.6664C89.3931 11.3234 89.7402 11.0853 90.143 11.0853C91.8755 11.0853 93.5397 12.1569 94.391 13.6117C94.8273 14.3572 95.0737 15.2415 94.9805 16.1763C94.8864 17.1199 94.4534 18.039 93.6584 18.8517C90.8874 21.6844 88.0105 23.5702 83.9496 22.8445C82.8431 22.6467 81.736 21.916 80.8457 21.1286C79.9341 20.3223 79.1147 19.3363 78.6032 18.445C77.6179 16.7282 77.9386 14.6665 78.8476 13.1999C79.4059 12.2991 80.4334 11.9447 81.1633 11.7562C81.5238 11.6631 81.8912 11.5927 82.2037 11.5329C82.2319 11.5275 82.2597 11.5222 82.2869 11.5169C82.6395 11.4492 82.8924 11.3971 83.076 11.3382C84.0053 11.0404 84.967 10.99 85.8465 11.0014C86.2563 11.0067 86.6661 11.0261 87.0524 11.0443C87.0821 11.0458 87.1118 11.0472 87.1413 11.0485ZM89.2347 12.5042C89.0762 12.8473 88.7291 13.0853 88.3264 13.0853C87.8981 13.0853 87.4632 13.0659 87.0473 13.0463C87.0199 13.045 86.9925 13.0437 86.9652 13.0425C86.5717 13.0239 86.1947 13.0061 85.8206 13.0013C85.0173 12.9909 84.3096 13.0431 83.6864 13.2428C83.3673 13.345 82.9921 13.418 82.6643 13.481C82.6394 13.4858 82.6145 13.4906 82.5898 13.4953C82.2662 13.5574 81.9594 13.6162 81.6634 13.6926C80.9702 13.8717 80.6586 14.0743 80.5475 14.2535C79.9246 15.2585 79.805 16.5211 80.3378 17.4495C80.726 18.126 81.3979 18.9469 82.1707 19.6304C82.9648 20.3328 83.7354 20.7745 84.3014 20.8757C87.3808 21.426 89.6225 20.1174 92.2287 17.4531C92.7407 16.9297 92.946 16.4223 92.9903 15.9778C93.0356 15.5245 92.9207 15.059 92.6648 14.6218C92.1319 13.7111 91.0887 13.0853 90.143 13.0853C89.7402 13.0853 89.3931 12.8473 89.2347 12.5042Z" fill="#F4F1ED"/>
</svg>
