<svg width="96" height="96" viewBox="0 0 96 96" fill="none" xmlns="http://www.w3.org/2000/svg">
<path fill-rule="evenodd" clip-rule="evenodd" d="M15.6946 2.99999C15.6946 2.44771 16.1424 1.99999 16.6946 1.99999C17.2928 1.99999 17.8255 2.14884 18.2207 2.25924C18.2305 2.26198 18.2402 2.2647 18.2498 2.26739C18.6855 2.38902 18.9624 2.46113 19.2417 2.46113C20.2687 2.46113 21.2992 2.69093 22.1974 2.96614C27.6688 4.64252 33.4864 5.80279 39.1863 6.72675C39.9344 6.84801 40.6948 6.90347 41.5065 6.96266C41.637 6.97217 41.7687 6.98178 41.902 6.99178C42.8423 7.0623 43.8436 7.15165 44.8338 7.37988C45.077 7.43595 45.3169 7.49186 45.5542 7.54719C46.8988 7.86066 48.1622 8.15519 49.5008 8.35121C52.293 8.7601 54.9637 9.39225 57.6515 10.1032C59.6167 10.623 61.7418 10.9507 63.8142 11.2456C64.4643 11.338 64.842 11.7846 65.0239 12.1921C65.1903 12.5649 65.2339 12.9745 65.2433 13.2933C65.2624 13.9472 65.142 14.6272 65.0945 14.8874C64.8632 16.1539 64.8175 17.4992 64.8343 18.9034C64.8412 19.4827 64.8604 20.109 64.8799 20.7434C64.9051 21.5639 64.9306 22.398 64.9306 23.162C64.9306 25.4115 65.003 27.6645 65.2093 29.884C65.296 30.816 65.4417 31.7277 65.5933 32.6762C65.6251 32.8757 65.6573 33.0768 65.6892 33.2801C65.8701 34.4331 66.0402 35.6378 66.0751 36.8915C66.1171 38.3975 66.2259 39.8436 66.3368 41.3172C66.4142 42.3465 66.4927 43.3893 66.5501 44.4754C67.0468 53.8727 67.2461 63.228 67.2461 72.632C67.2461 77.9536 67.2703 83.4839 67.9201 88.6601C68.0068 89.3505 68.0083 90.0483 67.9919 90.7018C67.9855 90.9545 67.9769 91.1934 67.9685 91.4247C67.9543 91.8199 67.9408 92.1932 67.9408 92.5763C67.9408 92.8633 67.8629 93.1792 67.6455 93.4526C67.4345 93.718 67.1639 93.8528 66.9403 93.9203C66.5355 94.0425 66.1014 93.9987 65.8143 93.9555C65.4949 93.9075 65.1638 93.8261 64.9044 93.7614L64.8961 93.7593C64.6063 93.6871 64.4375 93.6451 64.3353 93.6311C61.5778 93.2535 58.7671 92.6241 56.0165 92.0082C54.4787 91.6639 52.9597 91.3238 51.4794 91.0342C50.1729 90.7787 48.865 90.557 47.543 90.333L47.4185 90.3119C46.0585 90.0815 44.6839 89.8474 43.3076 89.5733C40.7415 89.0622 38.2304 88.3358 35.7871 87.4C33.3604 86.4706 30.8537 85.8869 28.2676 85.2847C27.8899 85.1968 27.5104 85.1084 27.1292 85.0185C26.7619 84.9319 26.393 84.8456 26.0229 84.759C23.5544 84.1816 21.0336 83.5919 18.5772 82.8074C17.7764 82.5516 17.309 81.9942 17.0775 81.3583C16.8708 80.7904 16.8524 80.162 16.8524 79.6772C16.8524 76.1044 16.9104 72.5403 16.9683 68.987C17.0262 65.4309 17.0839 61.8854 17.0839 58.3367C17.0839 56.9471 17.1361 55.5585 17.1874 54.1933L17.1876 54.1889C17.2391 52.816 17.2898 51.4667 17.2898 50.1259C17.2898 48.9985 17.1375 47.8564 16.9507 46.6564C16.9185 46.4494 16.8851 46.2399 16.8513 46.0285C16.6932 45.0368 16.528 44.0012 16.444 42.9697C16.3581 41.914 16.3637 40.8632 16.3736 39.8569C16.3742 39.7942 16.3748 39.7317 16.3755 39.6693C16.3851 38.7175 16.3943 37.8071 16.3397 36.9028C16.3095 36.404 16.2793 35.9053 16.2491 35.4066C15.6241 25.084 15 14.7761 15 4.38341C15 3.90631 15.3341 3.50724 15.7811 3.40743C15.7256 3.28299 15.6946 3.1451 15.6946 2.99999ZM16.9298 4.01467C16.9751 4.12877 17 4.25319 17 4.38341C17 14.7138 17.6207 24.9666 18.2466 35.3043C18.2764 35.7967 18.3062 36.2894 18.336 36.7822C18.3951 37.7599 18.3851 38.7373 18.3755 39.6736C18.3748 39.7415 18.3741 39.8091 18.3735 39.8765C18.3635 40.888 18.3598 41.8541 18.4375 42.8074C18.5146 43.7548 18.6649 44.6986 18.8223 45.6873C18.8571 45.9054 18.8922 46.1257 18.9269 46.3487C19.1155 47.5602 19.2898 48.8328 19.2898 50.1259C19.2898 51.5058 19.2378 52.888 19.1867 54.2499L19.1861 54.264C19.1346 55.6368 19.0839 56.9894 19.0839 58.3367C19.0839 61.9018 19.026 65.4607 18.9682 69.0115L18.968 69.0193C18.9101 72.5754 18.8524 76.1233 18.8524 79.6772C18.8524 80.1575 18.8822 80.469 18.9569 80.6742C18.9887 80.7616 19.0199 80.8028 19.0406 80.8238C19.0582 80.8417 19.0951 80.8733 19.1858 80.9022C21.5606 81.6607 23.9971 82.2309 26.4717 82.8099C26.8431 82.8968 27.2153 82.9839 27.5883 83.0719C27.9606 83.1597 28.3351 83.2468 28.7112 83.3343C31.2863 83.9333 33.9376 84.55 36.5024 85.5323C38.8409 86.4279 41.2434 87.1229 43.6982 87.6118C45.0423 87.8795 46.3897 88.1091 47.7526 88.34L47.886 88.3626C49.2012 88.5855 50.5313 88.8109 51.8634 89.0714C53.4613 89.384 55.0313 89.7362 56.5887 90.0857C59.2719 90.6877 61.918 91.2814 64.6066 91.6496C64.8228 91.6792 65.0954 91.7475 65.3174 91.8031C65.3416 91.8092 65.3652 91.8151 65.388 91.8208C65.5903 91.8712 65.7787 91.9168 65.9503 91.9498C65.9562 91.7314 65.964 91.5117 65.9717 91.297C65.9796 91.0741 65.9874 90.8566 65.9925 90.6515C66.0082 90.0265 66.0034 89.4483 65.9357 88.9092C65.268 83.5899 65.2461 77.9373 65.2461 72.632C65.2461 63.2561 65.0474 53.9367 64.5529 44.5809C64.5009 43.598 64.4253 42.585 64.3489 41.5599C64.2346 40.0292 64.1184 38.4716 64.0759 36.9472C64.0447 35.8295 63.8925 34.7314 63.7134 33.5902C63.6834 33.3991 63.6525 33.2062 63.6214 33.0117C63.4694 32.0616 63.3113 31.0729 63.2179 30.0692C63.0042 27.7703 62.9306 25.4525 62.9306 23.162C62.9306 22.3821 62.9071 21.6406 62.8828 20.8775C62.863 20.2529 62.8427 19.6138 62.8344 18.9273C62.8171 17.478 62.8614 15.9828 63.127 14.5282C63.174 14.2708 63.2565 13.7747 63.2441 13.3518C63.2423 13.2884 63.2383 13.232 63.2328 13.1828C61.2465 12.8976 59.1303 12.5631 57.1401 12.0367C54.4818 11.3336 51.8945 10.7231 49.211 10.3301C47.7826 10.1209 46.4279 9.80487 45.0854 9.49163C44.8515 9.43707 44.618 9.38259 44.3845 9.32878C43.5557 9.13774 42.6877 9.05632 41.7524 8.98618C41.6273 8.97679 41.5006 8.9676 41.3726 8.9583C40.5664 8.89978 39.7085 8.83751 38.8662 8.70098C33.1252 7.77034 27.2071 6.59282 21.6115 4.8784C20.8066 4.63176 19.9895 4.46113 19.2417 4.46113C18.6674 4.46113 18.1465 4.31534 17.7606 4.2073C17.7442 4.20271 17.728 4.19818 17.7121 4.19374C17.3958 4.10545 17.1548 4.04187 16.9298 4.01467Z" fill="#F4F1ED"/>
<path fill-rule="evenodd" clip-rule="evenodd" d="M27.096 3.07972C23.7381 3.11985 20.3736 3.16006 17 3.16006C16.4477 3.16006 16 2.71234 16 2.16006C16 1.60778 16.4477 1.16006 17 1.16006C20.3218 1.16006 23.6608 1.12025 27.0071 1.08036C33.6044 1.00171 40.2303 0.922724 46.8089 1.14775C49.3974 1.2363 51.995 1.22014 54.6119 1.19119C54.9615 1.18732 55.3115 1.18322 55.6619 1.17911C57.928 1.15257 60.2096 1.12586 62.4882 1.16017C63.262 1.17183 64.0299 1.22535 64.7671 1.27673C64.8185 1.28032 64.8698 1.2839 64.921 1.28745C65.7152 1.34259 66.4767 1.39207 67.2376 1.39207C67.5092 1.39207 67.7718 1.37569 68.0703 1.35707C68.2601 1.34523 68.4644 1.33248 68.6949 1.32246C69.2279 1.29928 69.8522 1.29618 70.4453 1.42919C71.5426 1.67524 72.7496 1.73083 74.0318 1.71804C74.6235 1.71214 75.2183 1.69203 75.8215 1.67163L75.9672 1.66671C76.6151 1.6449 77.2725 1.62408 77.9161 1.62408C78.2512 1.62408 78.6264 1.66126 78.9666 1.82711C79.3627 2.0202 79.6142 2.33833 79.741 2.70089C79.8475 3.00518 79.8573 3.31894 79.8584 3.53392C79.8589 3.64705 79.8563 3.76647 79.8539 3.87725L79.8536 3.89024C79.851 4.00913 79.8485 4.12554 79.8485 4.24817C79.8485 4.81709 79.7855 5.36372 79.7296 5.84766L79.727 5.87065C79.6685 6.37783 79.6186 6.81972 79.6186 7.26432C79.6186 8.36085 79.6746 9.45011 79.7323 10.5695L79.7328 10.5808C79.7899 11.6884 79.8485 12.8257 79.8485 13.9798C79.8485 16.2524 79.9057 18.5224 79.9632 20.8066L79.9634 20.8141C80.0207 23.0917 80.0785 25.3835 80.0785 27.6814C80.0785 34.6197 80.106 41.6116 80.4857 48.5075C80.6762 51.9683 80.5719 55.4273 80.4226 58.8505C80.3936 59.5172 80.3628 60.1818 80.3321 60.845C80.2047 63.6009 80.0785 66.3295 80.0785 69.0568C80.0785 71.16 80.2811 73.2543 80.5005 75.3962C80.5132 75.5196 80.5259 75.6432 80.5386 75.767C80.745 77.7758 80.9561 79.8301 80.9979 81.9004C81.0123 82.6107 80.9483 83.2651 80.8878 83.8587L80.8799 83.936C80.8209 84.5122 80.7682 85.0276 80.7682 85.5683C80.7682 86.1769 80.3454 86.5148 80.1039 86.6512C79.8601 86.789 79.5879 86.8565 79.3747 86.8959C78.9302 86.9781 78.3779 86.9994 77.8627 87C77.3338 87.0006 76.7827 86.9787 76.3202 86.9575C76.2126 86.9526 76.1118 86.9479 76.0179 86.9434C75.6884 86.9279 75.4445 86.9163 75.2976 86.9163H67.5825C67.0302 86.9163 66.5825 86.4686 66.5825 85.9163C66.5825 85.3641 67.0302 84.9163 67.5825 84.9163H75.2976C75.4966 84.9163 75.8101 84.9312 76.1499 84.9474C76.2359 84.9514 76.3236 84.9556 76.4116 84.9596C76.8694 84.9806 77.3812 85.0005 77.8605 85C78.2265 84.9996 78.5419 84.9869 78.7851 84.961C78.8076 84.5387 78.8488 84.1361 78.8876 83.7585C78.8911 83.724 78.8946 83.6896 78.8981 83.6556C78.959 83.0592 79.01 82.5153 78.9984 81.9408C78.9582 79.9557 78.7551 77.9777 78.5468 75.9497C78.5349 75.8333 78.5229 75.7167 78.5109 75.6C78.2922 73.4647 78.0785 71.2755 78.0785 69.0568C78.0785 66.2786 78.2074 63.4923 78.3351 60.7326C78.3656 60.0745 78.396 59.4179 78.4245 58.7634C78.5734 55.3497 78.6735 51.9736 78.4887 48.6174C78.1057 41.6601 78.0785 34.6179 78.0785 27.6814C78.0785 25.4103 78.0214 23.1412 77.9638 20.857L77.9637 20.8522C77.9063 18.5737 77.8485 16.2802 77.8485 13.9798C77.8485 12.8818 77.7926 11.7918 77.7349 10.6724L77.7342 10.6591C77.6772 9.55223 77.6186 8.41622 77.6186 7.26432C77.6186 6.69515 77.6817 6.1484 77.7375 5.6644L77.7402 5.64151C77.7987 5.1343 77.8485 4.69254 77.8485 4.24817C77.8485 4.10082 77.8515 3.96401 77.8541 3.84644C77.856 3.7612 77.8575 3.689 77.8582 3.62414C77.2706 3.62534 76.6638 3.6444 76.0345 3.66558L75.885 3.67063C75.2864 3.69088 74.6685 3.71179 74.0517 3.71795C72.7186 3.73124 71.3301 3.67727 70.0077 3.38073C69.6852 3.3084 69.2812 3.29886 68.7818 3.32057C68.6342 3.32698 68.4667 3.33715 68.2908 3.34783C67.9428 3.36895 67.5618 3.39207 67.2376 3.39207C66.3986 3.39207 65.573 3.33753 64.7824 3.28265C64.7351 3.27936 64.688 3.27608 64.6409 3.2728C63.8917 3.22063 63.1752 3.17075 62.4581 3.15995C60.2084 3.12606 57.9562 3.15241 55.6882 3.17895C55.3372 3.18306 54.9858 3.18717 54.634 3.19106C52.0155 3.22004 49.3783 3.23681 46.7405 3.14659C40.2055 2.92304 33.6634 3.00123 27.096 3.07972Z" fill="#F4F1ED"/>
<path fill-rule="evenodd" clip-rule="evenodd" d="M58.134 49.1532C58.4463 49.3209 58.6376 49.5874 58.7436 49.8458C59.0521 50.5976 59.1019 51.3465 58.7854 51.9779C58.4696 52.6079 57.8756 52.9384 57.3065 52.992C57.1119 53.0103 56.8915 52.9959 56.6731 52.9366C56.632 52.9395 56.5901 52.9406 56.5475 52.9397C56.0896 52.9305 55.7024 52.7014 55.4341 52.3745C55.4164 52.3529 55.3995 52.331 55.3833 52.3089C55.2417 52.1631 55.1549 51.9984 55.1036 51.8615C55.0233 51.6471 55 51.428 55 51.2352C55 51.1112 55.0129 50.9921 55.0367 50.8782C55.048 50.6935 55.0745 50.5152 55.1105 50.3545C55.1415 50.2158 55.1834 50.0728 55.2385 49.9375C55.2871 49.8182 55.3732 49.6361 55.5213 49.4732C55.6488 49.333 56.0745 48.9549 56.6774 49.1538C56.7145 49.1661 56.7499 49.1799 56.7836 49.195C56.9271 49.1178 57.0871 49.056 57.2615 49.0238C57.5083 48.9782 57.8246 48.9871 58.134 49.1532Z" fill="#F4F1ED"/>
</svg>
