<svg width="96" height="96" viewBox="0 0 96 96" fill="none" xmlns="http://www.w3.org/2000/svg">
<g clip-path="url(#clip0_8_125)">
<path fill-rule="evenodd" clip-rule="evenodd" d="M11 7C11.5523 7 12 7.44771 12 8C12 8.40618 12.1652 8.93793 12.4502 9.6243C12.5177 9.7868 12.5946 9.96347 12.6749 10.1477C12.892 10.6462 13.1334 11.2003 13.2767 11.6798C13.3439 11.9049 13.4215 12.2347 13.482 12.5456C13.5381 12.8341 13.6 13.2076 13.6 13.4818C13.6 13.5791 13.648 13.7316 13.8458 14.117C13.8599 14.1445 13.8752 14.174 13.8916 14.2054C14.0517 14.5125 14.3074 15.003 14.3767 15.5335C14.4542 16.126 14.5412 16.722 14.6289 17.3225C14.911 19.254 15.2 21.2329 15.2 23.2979C15.2 25.0691 15.5565 26.9489 16.0037 28.9132C16.1069 29.3668 16.2155 29.8268 16.325 30.2905C16.6806 31.7963 17.0452 33.3404 17.2634 34.8242C17.6171 37.2285 17.7227 39.674 17.8252 42.0485C17.8433 42.4663 17.8612 42.8819 17.8804 43.2947C17.9145 44.0274 18.0733 44.7431 18.2548 45.5604L18.2684 45.6217C18.449 46.4355 18.6488 47.3516 18.6665 48.3231C18.6993 50.1269 18.7642 51.8719 18.929 53.6455C18.9807 54.2016 19.0313 54.7505 19.0814 55.294C19.6261 61.2053 20.112 66.4791 21.347 73.4655C21.679 75.3438 21.7653 76.9343 21.8446 78.3964L21.8495 78.4864C21.9307 79.9809 22.0094 81.3293 22.3196 82.8119C22.747 84.8555 22.9962 86.8975 23.222 88.8991C23.2504 89.1507 23.2784 89.4015 23.3063 89.6516C23.502 91.404 23.6937 93.1213 23.9857 94.8317C24.0787 95.3761 23.7127 95.8928 23.1683 95.9857C22.6239 96.0787 22.1072 95.7127 22.0143 95.1683C21.7117 93.3965 21.5132 91.6172 21.3182 89.87C21.2904 89.6204 21.2626 89.3715 21.2346 89.1233C21.0092 87.1249 20.7685 85.1648 20.3619 83.2214C20.0167 81.5709 19.9332 80.0807 19.8525 78.5949L19.8491 78.5331C19.7691 77.0598 19.6883 75.572 19.3775 73.8136C18.1276 66.7425 17.6347 61.3923 17.0904 55.4836C17.0401 54.938 16.9894 54.3876 16.9376 53.8306C16.7662 51.9862 16.7 50.1855 16.6668 48.3594C16.6533 47.6163 16.5003 46.8858 16.3159 46.0549C16.3072 46.0159 16.2985 45.9766 16.2897 45.9371C16.1178 45.1645 15.9248 44.2969 15.8826 43.3875C15.8628 42.9618 15.8444 42.5377 15.8261 42.1151C15.723 39.7372 15.6221 37.4088 15.2847 35.1152C15.0802 33.7246 14.7436 32.2983 14.3927 30.8118C14.2798 30.3334 14.1655 29.8488 14.0536 29.3571C13.6026 27.376 13.2 25.3093 13.2 23.2979C13.2 21.3917 12.9402 19.6101 12.6636 17.7126C12.5726 17.0881 12.4797 16.451 12.3936 15.7928C12.3727 15.6329 12.283 15.4522 12.0664 15.0302C12.0637 15.0249 12.061 15.0196 12.0582 15.0142C11.8866 14.6801 11.6 14.1218 11.6 13.4818C11.6 13.4815 11.6 13.4767 11.5994 13.4665C11.5989 13.4562 11.5979 13.4425 11.5964 13.4251C11.5932 13.3899 11.5881 13.3456 11.5808 13.2927C11.5662 13.1865 11.5447 13.0606 11.5187 12.9274C11.4659 12.6554 11.4027 12.3941 11.3604 12.2524C11.2535 11.8947 11.0904 11.5207 10.8962 11.0754C10.8046 10.8652 10.706 10.639 10.6031 10.3912C10.3172 9.70266 10 8.84303 10 8C10 7.44771 10.4477 7 11 7Z" fill="#F4F1ED"/>
<path fill-rule="evenodd" clip-rule="evenodd" d="M79.4466 3.04308C77.0209 3.05772 74.6304 3.11272 72.2362 3.16797L72.2072 3.16864C69.4253 3.23284 66.638 3.29717 63.8063 3.29717C62.6213 3.29717 61.448 3.35996 60.251 3.42464L60.2182 3.42641C59.0404 3.49005 57.8381 3.55502 56.6288 3.55502C52.5547 3.55502 48.3466 3.57286 44.4397 4.25632C41.2603 4.81253 38.0371 4.98791 34.8646 5.11448C34.3961 5.13317 33.9291 5.1508 33.4634 5.16837C30.7563 5.27054 28.0955 5.37095 25.4677 5.66878C23.1156 5.93538 20.7618 6.42262 18.3614 6.91994L18.3488 6.92254C15.9685 7.41568 13.5409 7.91862 11.1111 8.19019C10.5622 8.25153 10.0675 7.85632 10.0062 7.30745C9.94484 6.75858 10.3401 6.26391 10.8889 6.20256C13.2148 5.94261 15.5551 5.45886 17.9557 4.96152L17.9885 4.95472C20.3625 4.46288 22.7952 3.95888 25.2425 3.68151C27.9514 3.37447 30.6972 3.27106 33.4011 3.16922C33.8637 3.15179 34.3251 3.13442 34.7849 3.11607C37.9514 2.98974 41.0583 2.81749 44.0951 2.28624C48.2006 1.56802 52.5815 1.55502 56.6288 1.55502C57.7839 1.55502 58.9408 1.49251 60.1362 1.42792L60.1431 1.42755C61.3322 1.3633 62.5587 1.29717 63.8063 1.29717C66.6149 1.29717 69.3828 1.23329 72.1719 1.16892L72.19 1.16851C74.9817 1.10408 77.7945 1.03931 80.6679 1.03931C80.6661 1.03931 80.6934 1.03848 80.7847 1.03356C80.8016 1.03265 80.8199 1.03165 80.8393 1.03059C80.9073 1.02687 80.9898 1.02237 81.0783 1.01809C81.3045 1.00714 81.5959 0.996263 81.8729 1.00124C82.1081 1.00547 82.4754 1.02063 82.7737 1.12175C82.8591 1.15072 82.9828 1.20069 83.1087 1.28897C83.2344 1.3771 83.4154 1.54142 83.5152 1.81107C83.7447 2.43128 83.3448 2.88519 83.2285 3.00219C82.8553 3.37749 82.355 3.6997 81.9432 3.9068C81.0039 4.37921 80.0802 5.00157 79.1343 5.68665C78.8146 5.9182 78.4865 6.16146 78.1545 6.40759C77.5321 6.86903 76.8961 7.34061 76.2761 7.7642C74.8794 8.71851 73.71 9.92139 72.5478 11.2453C72.2133 11.6263 71.8752 12.0226 71.5313 12.4257C70.707 13.392 69.8497 14.397 68.9303 15.3218C66.736 17.5291 64.8979 19.8607 63.0836 22.4157C61.9113 24.0666 59.9592 26.1606 58.135 27.3138C58.2217 27.3688 58.3145 27.4254 58.4167 27.4877C58.4764 27.5241 58.5392 27.5624 58.606 27.6036C60.2716 28.63 62.0141 29.3523 63.8622 30.1183C64.3747 30.3307 64.8953 30.5465 65.4246 30.7731C66.3825 31.1831 67.3113 31.6475 68.2114 32.0976C68.3233 32.1535 68.4347 32.2093 68.5457 32.2646C69.5611 32.7711 70.549 33.253 71.5761 33.6548C73.966 34.5897 76.5224 35.6077 78.8671 36.787C80.0401 37.3769 81.2526 37.8902 82.4995 38.418C82.5981 38.4597 82.697 38.5016 82.796 38.5435C84.1352 39.1111 85.509 39.7018 86.8344 40.4076L86.8647 40.4238C87.0555 40.5253 87.2552 40.6316 87.4003 40.7258C87.4699 40.771 87.6021 40.8601 87.7184 40.9905C87.8147 41.0984 88.1318 41.503 87.9433 42.052C87.7918 42.4935 87.4169 42.6615 87.3394 42.6962L87.337 42.6973C87.2067 42.7557 87.0744 42.7897 86.9834 42.8107C86.7934 42.8545 86.5374 42.8947 86.261 42.9375C85.9214 42.99 85.6111 43.0513 85.2836 43.1165L85.2468 43.1238C84.9343 43.1861 84.6029 43.2521 84.2427 43.3093C82.6915 43.5557 81.1605 43.8511 79.6136 44.1495C79.3166 44.2068 79.019 44.2642 78.7206 44.3214C76.8761 44.675 75.0075 45.0188 73.1044 45.2619C71.2838 45.4944 69.4412 45.5779 67.6472 45.6592C67.0996 45.684 66.5565 45.7086 66.0199 45.7371C63.6964 45.8609 61.4481 46.0595 59.2482 46.6406C53.4155 48.1815 47.5446 48.7437 41.6923 49.3042C40.9974 49.3707 40.3028 49.4373 39.6085 49.5054C39.2558 49.54 38.9014 49.575 38.5455 49.6102C34.2279 50.0369 29.7 50.4843 25.3551 50.4843C24.552 50.4843 23.6978 50.6016 22.7714 50.7323L22.7046 50.7418C21.827 50.8657 20.8756 51 19.972 51C19.4197 51 18.972 50.5523 18.972 50C18.972 49.4477 19.4197 49 19.972 49C20.731 49 21.5605 48.8834 22.492 48.752L22.4959 48.7514C23.3959 48.6244 24.389 48.4843 25.3551 48.4843C29.5964 48.4843 34.0286 48.0466 38.3671 47.6181C38.7165 47.5836 39.0652 47.5491 39.4132 47.515C40.11 47.4466 40.8043 47.38 41.4962 47.3136C47.3691 46.7504 53.0725 46.2035 58.7374 44.707C61.1433 44.0714 63.5599 43.8653 65.9136 43.74C66.4858 43.7095 67.0519 43.6838 67.6133 43.6583C69.3897 43.5777 71.1195 43.4992 72.851 43.278C74.6877 43.0434 76.504 42.7099 78.3441 42.3572C78.6374 42.301 78.9316 42.2442 79.2266 42.1873C80.7734 41.8888 82.3421 41.5861 83.9289 41.3341C83.9934 41.3238 84.057 41.3133 84.12 41.3024C83.4327 40.9883 82.7305 40.6879 82.0156 40.385C81.9138 40.3418 81.8116 40.2986 81.7092 40.2553C80.4741 39.7326 79.2029 39.1946 77.9685 38.5737C75.7175 37.4416 73.2421 36.4541 70.8475 35.5174C69.7286 35.0797 68.6697 34.5615 67.653 34.0543C67.5407 33.9983 67.429 33.9425 67.3177 33.8869C66.411 33.4336 65.5374 32.9969 64.6376 32.6117C64.1568 32.406 63.6683 32.2037 63.1752 31.9995C61.3058 31.2255 59.372 30.4249 57.5568 29.3063C57.5108 29.278 57.4614 29.2479 57.4098 29.2164C57.2278 29.1055 57.0184 28.9779 56.8358 28.8527C56.6101 28.6981 56.3111 28.4732 56.097 28.1743C55.8517 27.8318 55.6717 27.3115 55.9105 26.7378C56.1058 26.2687 56.5127 25.9544 56.8886 25.732C58.4477 24.8095 60.3227 22.8494 61.4529 21.2577C63.3038 18.6512 65.2129 16.2244 67.5119 13.9118C68.3754 13.0432 69.1519 12.1327 69.9535 11.1929C70.309 10.7759 70.6696 10.3532 71.0448 9.9258C72.2397 8.56474 73.541 7.21074 75.1478 6.11285C75.7398 5.70842 76.3163 5.28071 76.9149 4.83665C77.2543 4.5849 77.6007 4.3279 77.9611 4.06689C78.4418 3.71873 78.937 3.3714 79.4466 3.04308Z" fill="#F4F1ED"/>
<path fill-rule="evenodd" clip-rule="evenodd" d="M17 7C17.5523 7 18 7.44771 18 8C18 8.43826 18.1529 9.07936 18.4023 9.84073C18.5539 10.3036 18.7072 10.7176 18.8556 11.1185C18.959 11.3977 19.06 11.6705 19.1565 11.9491C19.8315 13.8984 20.371 16.361 20.6807 18.3731C21.2955 22.368 21.9556 26.3417 22.623 30.3251C22.8278 31.5475 23.1533 32.7621 23.4922 34.0266C23.5044 34.0723 23.5167 34.1182 23.529 34.1641C23.8761 35.4598 24.2329 36.8096 24.4357 38.1762C24.4751 38.4416 24.4903 38.921 24.504 39.3827C24.5063 39.4623 24.5087 39.5436 24.511 39.6263C24.5236 40.0638 24.5373 40.5382 24.5602 40.9908C24.5868 41.5134 24.6236 41.9555 24.6745 42.2495C24.7663 42.3332 24.8439 42.4356 24.9011 42.5544C25.1406 43.0521 24.9313 43.6496 24.4337 43.8892C24.13 44.0354 23.7539 44.0476 23.4189 43.8612C23.1511 43.7121 23.011 43.4908 22.9478 43.3758C22.8173 43.1381 22.754 42.8609 22.7167 42.6622C22.6346 42.2248 22.5909 41.6462 22.5628 41.0921C22.5386 40.6156 22.5243 40.1153 22.5117 39.6784C22.5094 39.5972 22.5071 39.5182 22.5048 39.4419C22.4893 38.916 22.4749 38.5878 22.4574 38.4698C22.2739 37.2331 21.9475 35.9897 21.5971 34.6815C21.5821 34.6253 21.567 34.569 21.5518 34.5126C21.2196 33.2734 20.8716 31.9751 20.6505 30.6555C19.983 26.6717 19.321 22.6866 18.7039 18.6773C18.4061 16.7418 17.8902 14.4045 17.2666 12.6035C17.2007 12.4132 17.111 12.1696 17.0115 11.8997C16.8466 11.452 16.6551 10.932 16.5016 10.4632C16.2477 9.68788 16 8.78314 16 8C16 7.44771 16.4477 7 17 7Z" fill="#F4F1ED"/>
<path fill-rule="evenodd" clip-rule="evenodd" d="M23 6C23.5523 6 24 6.44771 24 7C24 7.5853 24.1363 8.18808 24.3314 8.88317C24.3686 9.01581 24.4088 9.15411 24.4502 9.29683C24.6133 9.85865 24.7963 10.4889 24.8986 11.1118C25.0566 12.073 25.1904 13.0204 25.3225 13.9562C25.5821 15.7942 25.8354 17.5878 26.2529 19.3545C27.2389 23.5268 28.0829 27.746 28.9206 31.9342C29.044 32.5511 29.1672 33.1673 29.2908 33.7826C29.3699 34.1764 29.4524 34.5735 29.5356 34.9739C30.015 37.2812 30.5172 39.6983 30.5172 42.2306C30.5172 42.7979 30.6169 43.3151 30.7393 43.9297L30.7472 43.9691C30.8639 44.5545 31 45.2372 31 46C31 46.5523 30.5523 47 30 47C29.4477 47 29 46.5523 29 46C29 45.4468 28.9009 44.938 28.7779 44.3205L28.7733 44.2975C28.6554 43.7056 28.5172 43.0125 28.5172 42.2306C28.5172 39.9211 28.0634 37.7301 27.5842 35.4169C27.4995 35.0076 27.4139 34.5946 27.3299 34.1763C27.2059 33.5587 27.0824 32.9412 26.9589 32.3238C26.1206 28.1328 25.284 23.9505 24.3065 19.8145C23.8686 17.9617 23.5917 16.0055 23.3236 14.1119C23.1944 13.1992 23.0672 12.3011 22.9251 11.4361C22.8441 10.943 22.7053 10.4637 22.5475 9.91822C22.5015 9.75957 22.454 9.59534 22.4058 9.42354C22.2031 8.70137 22 7.87598 22 7C22 6.44771 22.4477 6 23 6Z" fill="#F4F1ED"/>
<path fill-rule="evenodd" clip-rule="evenodd" d="M29 10C29.5523 10 30 10.4477 30 11C30 11.3908 30.1557 11.7513 30.4387 12.3366C30.4491 12.3581 30.4597 12.3799 30.4705 12.4022C30.7216 12.9198 31.0769 13.6522 31.0769 14.5196C31.0769 16.5875 31.0873 18.2546 31.5819 20.1193C31.7305 20.6793 31.8816 21.2429 32.0336 21.8096C33.1896 26.1208 34.3943 30.6136 34.8997 35.1113C35.0337 36.3037 35.3156 37.4316 35.6155 38.6318C35.6586 38.8042 35.7021 38.9781 35.7455 39.1539C36.0852 40.5283 36.4168 41.9954 36.4612 43.595C36.4786 44.2258 36.5919 44.8626 36.7207 45.5873L36.7306 45.6429C36.8584 46.362 37 47.172 37 48C37 48.5523 36.5523 49 36 49C35.4477 49 35 48.5523 35 48C35 47.3742 34.8927 46.7312 34.7615 45.9929C34.7552 45.9575 34.7489 45.922 34.7425 45.8862C34.6207 45.2027 34.4836 44.4337 34.4619 43.6504C34.424 42.2822 34.1403 40.9947 33.8039 39.6338C33.7625 39.466 33.7201 39.2966 33.6772 39.1256C33.3793 37.9357 33.0623 36.6696 32.9122 35.3347C32.4248 30.9973 31.2622 26.6588 30.1023 22.3302C29.9506 21.764 29.7989 21.198 29.6488 20.6321C29.0784 18.4821 29.0769 16.5677 29.0769 14.5196C29.0769 14.148 28.925 13.8005 28.6382 13.2073C28.6304 13.1911 28.6224 13.1747 28.6144 13.1581C28.3597 12.6322 28 11.8897 28 11C28 10.4477 28.4477 10 29 10Z" fill="#F4F1ED"/>
<path fill-rule="evenodd" clip-rule="evenodd" d="M34.6943 7.04787C35.2201 6.87903 35.7833 7.16844 35.9521 7.69429C35.9558 7.70574 35.9595 7.71723 35.9632 7.72876C36.3016 8.78251 36.75 10.1789 36.75 11.5038C36.75 12.4551 36.9887 13.5072 37.3161 14.6546C37.4081 14.9768 37.5089 15.312 37.6116 15.6532C37.8576 16.4709 38.114 17.3233 38.2834 18.1147C39.0125 21.5207 39.2142 24.6843 39.4258 28.0032C39.4538 28.4429 39.4821 28.8854 39.5117 29.3315C39.6735 31.768 40.1526 34.005 40.673 36.4354C40.7327 36.7139 40.7929 36.995 40.8532 37.2792C40.8731 37.3731 40.9092 37.5939 40.9529 37.861C40.9699 37.9655 40.9882 38.077 41.007 38.1908C41.079 38.6248 41.1706 39.1587 41.2733 39.6786C41.3774 40.2056 41.4872 40.689 41.5927 41.0327C41.6227 41.1307 41.6485 41.2041 41.6687 41.2564C41.9046 41.4689 42.0356 41.79 41.9917 42.1287C41.9206 42.6764 41.419 43.0628 40.8713 42.9917C40.5023 42.9438 40.2712 42.727 40.1711 42.6171C40.059 42.4941 39.9822 42.3629 39.9319 42.266C39.8292 42.0684 39.747 41.8358 39.6806 41.6191C39.5441 41.1742 39.4185 40.6092 39.3112 40.0662C39.2026 39.5162 39.1071 38.9587 39.034 38.518C39.011 38.3797 38.9898 38.2495 38.9712 38.1358C38.9605 38.0702 38.9506 38.0101 38.9419 37.9571C38.9297 37.8829 38.9195 37.8219 38.9113 37.7742C38.9071 37.7504 38.9038 37.7315 38.9011 37.7168L38.8979 37.6999C38.897 37.6957 38.8967 37.6941 38.8968 37.6945C38.8368 37.4117 38.7763 37.1298 38.716 36.8483C38.1986 34.4351 37.6881 32.054 37.5161 29.4641C37.4861 29.0125 37.4576 28.5677 37.4296 28.1286C37.2165 24.7971 37.0239 21.7859 36.3277 18.5333C36.1759 17.8243 35.9583 17.1013 35.7239 16.3228C35.6155 15.9629 35.5036 15.5911 35.3929 15.2034C35.0581 14.03 34.75 12.7512 34.75 11.5038C34.75 10.5345 34.4087 9.42963 34.0479 8.3057C33.879 7.77986 34.1684 7.21671 34.6943 7.04787Z" fill="#F4F1ED"/>
<path fill-rule="evenodd" clip-rule="evenodd" d="M40.0138 6.83462C40.1051 6.28994 40.6207 5.92243 41.1654 6.01376C41.583 6.0838 41.8195 6.36508 41.9034 6.47474C42.0096 6.6136 42.0842 6.76329 42.136 6.88156C42.2424 7.12444 42.3328 7.42289 42.4107 7.72431C42.5696 8.3385 42.7187 9.13229 42.848 9.91846C43.108 11.4993 43.3051 13.1561 43.3488 13.532C43.4097 14.0548 43.512 14.5662 43.6235 15.1234C43.6561 15.2864 43.6895 15.4534 43.7229 15.6257C43.865 16.3595 44 17.1632 44 18C44 18.5523 43.5523 19 43 19C42.4477 19 42 18.5523 42 18C42 17.3648 41.8972 16.7177 41.7594 16.006C41.7316 15.8623 41.7019 15.7142 41.6715 15.5626C41.5573 14.993 41.4336 14.3756 41.3623 13.7634C41.3193 13.3945 41.1266 11.7757 40.8745 10.2431C40.7478 9.47247 40.6102 8.75003 40.4745 8.22509C40.4168 8.00217 40.3663 7.84236 40.3268 7.7396C40.0842 7.51841 39.9554 7.18245 40.0138 6.83462Z" fill="#F4F1ED"/>
<path fill-rule="evenodd" clip-rule="evenodd" d="M44 26C44.5523 26 45 26.4477 45 27C45 28.8924 45.5908 30.733 46.2775 32.7203C46.3204 32.8443 46.3636 32.9689 46.4071 33.0942C47.0415 34.9223 47.7254 36.8926 47.8551 38.9366C47.9532 40.4811 48.3753 42.176 48.9345 43.644C49.1311 44.1601 48.8721 44.7379 48.356 44.9345C47.8399 45.1311 47.2621 44.8721 47.0655 44.356C46.4517 42.7447 45.9726 40.8506 45.8592 39.0634C45.7473 37.3013 45.1491 35.574 44.4926 33.6782C44.4576 33.5771 44.4225 33.4756 44.3872 33.3735C43.7095 31.4122 43 29.2728 43 27C43 26.4477 43.4477 26 44 26Z" fill="#F4F1ED"/>
<path fill-rule="evenodd" clip-rule="evenodd" d="M48 5C48.5523 5 49 5.44771 49 6C49 7.81993 49.5692 10.1716 50.2097 12.0088C50.4371 12.6612 50.6814 13.3285 50.9287 14.0041C51.3488 15.1517 51.7776 16.3232 52.1474 17.4856C52.3318 18.0653 52.5336 18.5976 52.7468 19.1599C52.9087 19.5868 53.0772 20.0311 53.2495 20.5265C53.6205 21.5928 53.9502 22.7529 53.9992 23.9594C54.0216 24.5113 53.5924 24.9768 53.0405 24.9992C52.4887 25.0216 52.0232 24.5924 52.0008 24.0405C51.9639 23.1298 51.7109 22.1905 51.3606 21.1836C51.2307 20.8103 51.0748 20.3964 50.9143 19.9703C50.6771 19.3405 50.4298 18.6839 50.2415 18.0919C49.8813 16.9595 49.4829 15.8724 49.076 14.7619C48.8253 14.0779 48.5714 13.385 48.3212 12.6672C47.6487 10.7384 47 8.1433 47 6C47 5.44771 47.4477 5 48 5Z" fill="#F4F1ED"/>
<path fill-rule="evenodd" clip-rule="evenodd" d="M55 30C55.5523 30 56 30.4477 56 31C56 31.5323 56.1471 32.1149 56.3423 32.8606C56.3462 32.8758 56.3502 32.891 56.3542 32.9063C56.5327 33.5876 56.7498 34.4162 56.7498 35.2481C56.7498 35.7281 56.8545 36.2632 57.0207 36.8581C57.1231 37.2246 57.225 37.5396 57.3307 37.866C57.4119 38.1169 57.4953 38.3745 57.5827 38.6674C58.0056 40.0842 58.0027 41.4074 57.9999 42.6877C57.9996 42.7921 57.9994 42.8962 57.9994 43C57.9994 43.5523 57.5517 44 56.9994 44C56.4471 44 55.9994 43.5523 55.9994 43C55.9994 42.9125 55.9995 42.8262 55.9996 42.7411C56.0009 41.4066 56.0019 40.3639 55.6663 39.2395C55.6092 39.0484 55.5345 38.8153 55.4544 38.5658C55.332 38.1842 55.1972 37.7641 55.0944 37.3963C54.9097 36.7348 54.7498 35.996 54.7498 35.2481C54.7498 34.701 54.6018 34.1093 54.4075 33.3671C54.402 33.3461 54.3964 33.3249 54.3908 33.3036C54.2141 32.6292 54 31.8125 54 31C54 30.4477 54.4477 30 55 30Z" fill="#F4F1ED"/>
<path fill-rule="evenodd" clip-rule="evenodd" d="M66.7087 33.0434C67.237 32.8825 67.7957 33.1803 67.9566 33.7087C68.2849 34.7866 68.4186 35.9743 68.5382 37.0371C68.581 37.4167 68.6219 37.7805 68.6693 38.1176C68.7512 38.7001 68.9781 39.2891 69.2562 40.0107C69.2892 40.0961 69.3228 40.1834 69.357 40.2728C69.6556 41.053 70 42.0024 70 43C70 43.5523 69.5523 44 69 44C68.4477 44 68 43.5523 68 43C68 42.4173 67.7953 41.7877 67.4891 40.9877C67.4569 40.9036 67.4234 40.8171 67.389 40.7285C67.1222 40.0408 66.805 39.2231 66.6887 38.3959C66.6242 37.9369 66.5751 37.5 66.5278 37.0795C66.4159 36.0845 66.3143 35.181 66.0434 34.2913C65.8825 33.763 66.1803 33.2043 66.7087 33.0434Z" fill="#F4F1ED"/>
<path fill-rule="evenodd" clip-rule="evenodd" d="M76 36C76.5523 36 77 36.4477 77 37C77 37.8304 77.2138 38.7079 77.4705 39.7416C77.4737 39.7545 77.4769 39.7674 77.4802 39.7804C77.7223 40.7549 78 41.8729 78 43C78 43.5523 77.5523 44 77 44C76.4477 44 76 43.5523 76 43C76 42.145 75.7852 41.2532 75.5295 40.2237C75.5236 40.2001 75.5178 40.1765 75.5119 40.1528C75.2726 39.1902 75 38.0933 75 37C75 36.4477 75.4477 36 76 36Z" fill="#F4F1ED"/>
<path fill-rule="evenodd" clip-rule="evenodd" d="M56.3769 3.21782C56.8089 2.87371 57.4381 2.94495 57.7822 3.37694C58.3589 4.10097 58.3852 4.95529 58.363 5.54783C58.3566 5.71659 58.3415 5.92964 58.3285 6.11383C58.3208 6.22202 58.3139 6.32026 58.3098 6.39371C58.2957 6.64814 58.2974 6.83202 58.3189 6.97621C58.4652 7.95555 58.6425 8.81503 59.018 9.62305C59.294 10.2171 59.6068 10.8515 59.9306 11.5083C60.4888 12.6405 61.0798 13.8394 61.5721 15.0128C62.3659 16.905 63 18.9354 63 21C63 21.5523 62.5523 22 62 22C61.4477 22 61 21.5523 61 21C61 19.3266 60.4822 17.5847 59.7278 15.7865C59.2522 14.6527 58.7195 13.5743 58.1854 12.493C57.8545 11.823 57.523 11.1519 57.2042 10.4658C56.7039 9.38897 56.4939 8.29672 56.3408 7.27165C56.2886 6.92164 56.2968 6.57425 56.3129 6.2832C56.3214 6.1295 56.3304 6.00852 56.3387 5.89681C56.3491 5.75635 56.3585 5.63055 56.3644 5.4728C56.3835 4.96313 56.3187 4.74969 56.2178 4.62305C55.8737 4.19107 55.945 3.56192 56.3769 3.21782Z" fill="#F4F1ED"/>
<path fill-rule="evenodd" clip-rule="evenodd" d="M69 3C69.5523 3 70 3.44771 70 4C70 5.67639 71.1476 7.80386 72.6905 9.27664C73.09 9.65798 73.1047 10.291 72.7234 10.6905C72.342 11.09 71.709 11.1047 71.3095 10.7234C69.5406 9.03488 68 6.41968 68 4C68 3.44771 68.4477 3 69 3Z" fill="#F4F1ED"/>
<path fill-rule="evenodd" clip-rule="evenodd" d="M11.5509 3.22179C11.5564 3.22228 11.5626 3.22276 11.5693 3.22322C11.6387 3.2279 11.6934 3.22767 11.7722 3.22733C11.8246 3.22711 11.8877 3.22684 11.9728 3.22795L11.9762 3.22799C12.1128 3.22975 12.4167 3.23366 12.7019 3.34415C12.8664 3.40782 13.0822 3.52755 13.2539 3.75381C13.3927 3.93688 13.4639 4.13842 13.4891 4.3317C13.4903 4.33204 13.4916 4.33237 13.4927 4.33269C13.6767 4.27756 13.8786 4.27474 14.0758 4.33605C14.1785 4.36798 14.3373 4.42128 14.4823 4.50926C14.5394 4.54392 14.7234 4.65797 14.8566 4.88277C14.9335 5.01251 15.0069 5.20272 14.9995 5.43672C14.9945 5.59381 14.9543 5.73223 14.8982 5.84813C14.9348 6.03403 14.9468 6.21928 14.9379 6.39338C14.9013 7.1139 14.5029 7.99792 13.6402 8.35552C12.3426 8.89337 10.9858 9.34188 9.26245 8.63873C8.70653 8.4119 8.38507 7.93044 8.34118 7.39211C8.32365 7.17715 8.35064 6.97151 8.40327 6.78267C8.39716 6.77125 8.39109 6.75982 8.38509 6.74836C8.0213 6.05382 7.76112 5.03552 8.33543 4.09819C8.60104 3.66469 9.04032 3.54721 9.24273 3.50923C9.39785 3.48012 9.55647 3.47149 9.70564 3.47323C9.90139 3.24073 10.1775 3.07448 10.5047 3.01945C10.8947 2.95384 11.2571 3.06033 11.5509 3.22179ZM9.18811 4.62063L9.4401 4.77503L9.18811 4.62063Z" fill="#F4F1ED"/>
</g>
<defs>
<clipPath id="clip0_8_125">
<rect width="96" height="96" fill="white"/>
</clipPath>
</defs>
</svg>
