<svg width="96" height="96" viewBox="0 0 96 96" fill="none" xmlns="http://www.w3.org/2000/svg">
<path fill-rule="evenodd" clip-rule="evenodd" d="M6.11086 9.03784C6.21459 9.47795 6.00805 9.94782 5.58638 10.1599C4.54832 10.6819 4.01914 11.7902 3.7978 13.3836C3.63395 14.5633 3.6618 15.798 3.68822 16.9687C3.69779 17.393 3.70717 17.8088 3.70717 18.2106C3.70717 19.5904 3.66886 20.9608 3.63101 22.3149L3.63084 22.321C3.59281 23.6816 3.5553 25.0257 3.5553 26.3741C3.5553 26.8874 3.55802 27.4046 3.56077 27.925C3.57626 30.8621 3.59226 33.898 3.1212 36.8827C2.996 37.6761 2.9857 38.4662 3.01143 39.3061C3.01997 39.585 3.0332 39.8802 3.04683 40.1846C3.07253 40.7581 3.09968 41.3642 3.09968 41.9542C3.09968 43.184 3.13711 44.4108 3.17515 45.6548L3.17543 45.6638C3.21323 46.8998 3.25155 48.1531 3.25155 49.4133C3.25155 49.9177 3.24546 50.4191 3.23941 50.9166C3.21865 52.6233 3.19845 54.2842 3.42688 55.8637C3.59785 57.0459 3.58592 58.2157 3.53737 59.3301C3.52142 59.696 3.502 60.0505 3.48294 60.3982C3.44234 61.139 3.40342 61.8492 3.40342 62.5749C3.40342 64.8137 3.32243 67.1137 3.24223 69.3909C3.18358 71.0565 3.12535 72.71 3.09955 74.3185C3.07996 75.5404 3.18816 76.7589 3.30767 78.0324L3.32352 78.2011C3.43693 79.4068 3.5553 80.6653 3.5553 81.9397C3.5553 83.8312 3.81618 85.6422 4.85908 86.6911C4.88392 86.7161 4.96015 86.7711 5.24608 86.8483C5.31233 86.8662 5.38127 86.8833 5.46097 86.903L5.47346 86.9061C5.54682 86.9242 5.63015 86.9447 5.71335 86.9669C5.88722 87.0133 6.1008 87.0768 6.31421 87.175C6.48012 87.2512 6.66399 87.3438 6.83801 87.4315L6.89706 87.4612C7.09623 87.5614 7.29053 87.6582 7.48107 87.7445C7.90489 87.9366 8.15197 88 8.25048 88C12.5274 88 16.8186 87.8769 21.1057 87.7539C21.7979 87.7341 22.49 87.7142 23.1819 87.6949C25.1762 87.6392 27.1693 87.6513 29.1461 87.6699C29.3696 87.6721 29.5929 87.6742 29.816 87.6764C31.5709 87.6937 33.3116 87.7108 35.0501 87.6861C37.4069 87.6527 39.7648 87.5221 42.1465 87.3902C42.3339 87.3798 42.5214 87.3694 42.7091 87.359C45.2742 87.2176 47.8654 87.0835 50.4623 87.0835C52.5525 87.0835 54.6613 87.0583 56.7786 87.0329C61.1221 86.9809 65.5015 86.9285 69.8302 87.0927C71.103 87.141 72.3669 87.1973 73.6258 87.2534C76.8798 87.3983 80.0999 87.5418 83.351 87.5418C84.4093 87.5418 85.2909 87.4986 86.1465 87.2118C86.7183 87.0201 87.2939 86.8956 87.8068 86.7846C87.861 86.7729 87.9146 86.7613 87.9674 86.7498C88.5396 86.6252 89.0397 86.5074 89.5172 86.3206C89.6887 86.2535 89.8492 86.1721 90.0526 86.0689C90.181 86.0037 90.3265 85.9299 90.5027 85.8455C90.8738 85.6678 91.402 85.4356 91.9519 85.4049C92.0502 85.3994 92.2897 85.3425 92.4875 84.5633C92.6658 83.8606 92.6783 83.0084 92.6783 82.4319C92.6783 72.6531 92.7542 62.8671 92.8301 53.0855L92.8302 53.0807C92.9061 43.2961 92.982 33.5158 92.982 23.7434C92.982 23.4447 92.9865 23.1458 92.9911 22.8463C93.002 22.1204 93.0131 21.3912 92.9599 20.6544C92.8855 19.6243 92.6911 18.7632 92.2932 18.1343C92.1658 17.933 92.0105 17.7245 91.8531 17.5775C91.7517 17.4829 91.6927 17.4534 91.6751 17.4455C90.8951 17.4413 90.1406 17.2694 89.5065 17.1249L89.4635 17.1151C88.7721 16.9576 88.213 16.8346 87.6709 16.8346C85.7654 16.8346 83.8624 16.7576 81.9812 16.6816L81.966 16.681C80.073 16.6045 78.2017 16.5291 76.3311 16.5291C74.3244 16.5291 72.3235 16.5236 70.3252 16.5181C66.3376 16.5073 62.3604 16.4964 58.3678 16.529C55.6202 16.5515 52.8006 16.5029 50.0049 16.4547C47.7252 16.4154 45.4614 16.3763 43.2653 16.3763C42.6459 16.3763 42.0391 16.2517 41.5369 16.1455C41.5082 16.1395 41.4798 16.1335 41.4517 16.1275C40.9532 16.022 40.5522 15.9371 40.1666 15.9167C40.1362 15.9151 40.1003 15.9134 40.0601 15.9115C39.8929 15.9035 39.6511 15.892 39.4196 15.8691C39.1668 15.8441 38.7554 15.7928 38.4225 15.6342C38.0546 15.4589 37.8449 15.163 37.7625 15.0467L37.7577 15.0399C37.7329 15.005 37.7168 14.9819 37.7047 14.9644C37.6886 14.9413 37.6795 14.9282 37.6664 14.911C36.6725 14.1044 35.4694 12.7556 34.8217 11.5829C34.7179 11.3951 34.5544 11.2254 34.2602 10.9374C34.2504 10.9278 34.2404 10.918 34.2302 10.9081C33.9805 10.664 33.6266 10.3181 33.3681 9.86699C33.36 9.85929 33.3472 9.84761 33.3283 9.83218C33.2677 9.78269 33.1797 9.72318 33.0742 9.66485C32.9695 9.60696 32.866 9.56043 32.781 9.53006C32.7244 9.50983 32.6935 9.50302 32.6858 9.50122C32.2581 9.48307 31.8635 9.39894 31.5555 9.33327C31.5311 9.32808 31.5073 9.323 31.484 9.31808C31.1379 9.24483 30.8822 9.19725 30.6178 9.19725H22.2227C20.3728 9.19725 18.526 9.15892 16.6904 9.12083L16.6825 9.12066C14.8408 9.08244 13.0103 9.0445 11.1782 9.0445C10.7559 9.0445 10.3612 9.06112 9.94755 9.07853C9.74805 9.08693 9.54413 9.09551 9.33053 9.10251C8.69591 9.1233 8.02265 9.1271 7.30413 9.0468C6.80943 8.99152 6.43134 8.98142 6.11086 9.03784ZM3.9031 8.87022C3.73488 8.44551 3.87591 7.94606 4.26885 7.67732C5.3668 6.92642 6.49419 6.94384 7.52625 7.05918C8.10333 7.12367 8.66524 7.12323 9.26505 7.10358C9.44012 7.09784 9.62352 7.09016 9.81266 7.08224C10.2479 7.06401 10.7135 7.0445 11.1782 7.0445C13.0337 7.0445 14.8842 7.08291 16.7216 7.12104L16.724 7.12109C18.5657 7.15932 20.3944 7.19725 22.2227 7.19725H30.6178C31.1142 7.19725 31.5548 7.28875 31.8981 7.36142L31.9247 7.36705C32.2778 7.4418 32.5236 7.49384 32.7812 7.50344C33.2247 7.51996 33.7114 7.73182 34.0419 7.91458C34.2292 8.01813 34.4213 8.14268 34.5932 8.28303C34.7514 8.41216 34.9555 8.60518 35.0959 8.85933C35.2011 9.04979 35.366 9.22117 35.6592 9.50811C35.6696 9.51836 35.6803 9.52881 35.6912 9.53945C35.9473 9.78973 36.3139 10.1479 36.5724 10.6159C37.0804 11.5356 38.1161 12.706 38.9479 13.3752C39.0845 13.4851 39.1831 13.6025 39.2481 13.687C39.2879 13.7387 39.3328 13.8024 39.362 13.8442C39.43 13.8571 39.5156 13.8688 39.6169 13.8789C39.7915 13.8962 39.9637 13.9044 40.1282 13.9123C40.177 13.9147 40.225 13.917 40.2723 13.9195C40.8216 13.9486 41.3708 14.0655 41.8311 14.1634C41.8716 14.172 41.9114 14.1805 41.9504 14.1888C42.4695 14.2984 42.8832 14.3763 43.2653 14.3763C45.5685 14.3763 47.8382 14.4161 50.1034 14.4559C52.8423 14.5039 55.5746 14.5518 58.3515 14.5291C62.3545 14.4964 66.3513 14.5073 70.3456 14.5182C72.3412 14.5236 74.3363 14.5291 76.3311 14.5291C78.2473 14.5291 80.1573 14.6063 82.0421 14.6824L82.0467 14.6826C83.9398 14.7591 85.8075 14.8346 87.6709 14.8346C88.4577 14.8346 89.2209 15.0085 89.8615 15.1545L89.9076 15.165C90.5985 15.3224 91.1592 15.4455 91.7039 15.4455C92.3813 15.4455 92.9021 15.8208 93.2179 16.1156C93.5528 16.4282 93.8137 16.7968 93.9833 17.0649C94.6444 18.1098 94.8719 19.3649 94.9547 20.5104C95.0146 21.3403 95.0015 22.21 94.9901 22.965C94.9859 23.2426 94.982 23.5046 94.982 23.7434C94.982 33.5247 94.906 43.3126 94.8301 53.0958L94.8301 53.0987C94.7541 62.8824 94.6783 72.6614 94.6783 82.4319C94.6783 82.9914 94.6738 84.0792 94.426 85.0553C94.1977 85.9549 93.6019 87.3158 92.0635 87.4018C91.9444 87.4084 91.7307 87.4749 91.3666 87.6493C91.2846 87.6886 91.1857 87.7384 91.0776 87.7929C90.8165 87.9245 90.5022 88.0829 90.2457 88.1832C89.6053 88.4337 88.9656 88.5793 88.393 88.704C88.3418 88.7151 88.2911 88.7261 88.241 88.737C87.7114 88.8519 87.2436 88.9534 86.7822 89.108C85.5961 89.5057 84.4329 89.5418 83.351 89.5418C80.0521 89.5418 76.7642 89.3953 73.494 89.2497C72.2447 89.194 70.998 89.1385 69.7543 89.0913C65.4742 88.9288 61.1833 88.9804 56.8699 89.0323C54.74 89.0579 52.6046 89.0835 50.4623 89.0835C47.9272 89.0835 45.3866 89.2144 42.8193 89.356C42.6295 89.3665 42.4395 89.377 42.2494 89.3875C39.876 89.5191 37.4784 89.6519 35.0784 89.6859C33.3139 89.7109 31.5476 89.6936 29.7952 89.6763C29.5723 89.6741 29.3496 89.6719 29.1272 89.6698C27.1508 89.6512 25.1909 89.6396 23.2378 89.6941C22.5485 89.7134 21.8581 89.7332 21.1667 89.753C16.8813 89.876 12.5584 90 8.25048 90C7.67639 90 7.0759 89.7567 6.65559 89.5662C6.42406 89.4613 6.19716 89.3479 5.99828 89.2479L5.94341 89.2203C5.76121 89.1285 5.61038 89.0526 5.47873 88.9921C5.36655 88.9405 5.26213 88.9148 5.08372 88.871C4.98899 88.8477 4.8734 88.8193 4.7247 88.7791C4.38536 88.6875 3.86154 88.5244 3.44081 88.1012C1.76853 86.4193 1.5553 83.8244 1.5553 81.9397C1.5553 80.7616 1.44498 79.5876 1.32939 78.3574L1.31641 78.2193C1.19781 76.9554 1.07821 75.6333 1.09981 74.2864C1.12717 72.5801 1.18672 70.9061 1.24589 69.2426C1.32499 67.0188 1.40342 64.8137 1.40342 62.5749C1.40342 61.7935 1.44723 60.9917 1.48923 60.223C1.5075 59.8886 1.52543 59.5605 1.53926 59.243C1.58626 58.1643 1.59121 57.1438 1.44747 56.15C1.19435 54.3997 1.21795 52.5265 1.23976 50.7957C1.24572 50.3224 1.25155 49.8598 1.25155 49.4133C1.25155 48.1856 1.21413 46.9599 1.17608 45.7159L1.17591 45.7101C1.13807 44.4729 1.09968 43.2176 1.09968 41.9542C1.09968 41.4021 1.07619 40.8845 1.05175 40.3459C1.03744 40.0306 1.0228 39.7081 1.01237 39.3674C0.985196 38.4803 0.991774 37.546 1.14566 36.571C1.58924 33.7603 1.57512 30.9095 1.56054 27.9675C1.55793 27.4394 1.5553 26.9083 1.5553 26.3741C1.5553 24.9957 1.59358 23.6262 1.63141 22.2726L1.63162 22.2651C1.66965 20.9045 1.70717 19.5599 1.70717 18.2106C1.70717 17.8957 1.69899 17.5386 1.69016 17.1527C1.66259 15.9482 1.6286 14.4635 1.81682 13.1085C2.0299 11.5744 2.55823 9.92685 3.9031 8.87022Z" fill="#F4F1ED"/>
<path fill-rule="evenodd" clip-rule="evenodd" d="M30.2022 24.1665C26.9294 24.2497 23.6418 24.3333 20.3499 24.3333C18.8208 24.3333 17.267 24.3639 15.6994 24.3948C11.7946 24.4717 7.80459 24.5502 3.90096 24.1618C3.35139 24.1071 2.95022 23.6172 3.00491 23.0676C3.0596 22.5181 3.54945 22.1169 4.09902 22.1716C7.87741 22.5476 11.6786 22.4726 15.5345 22.3965C17.1295 22.365 18.7339 22.3333 20.3499 22.3333C23.6142 22.3333 26.8784 22.2504 30.1574 22.167L30.1639 22.1668C33.4365 22.0836 36.7238 22 40.0154 22C43.0108 22 46.0041 22.0418 48.9889 22.0834L48.9916 22.0834C51.9797 22.1251 54.9594 22.1667 57.9385 22.1667C60.2981 22.1667 62.6501 22.293 64.9697 22.4176L64.9787 22.4181C67.3101 22.5434 69.6088 22.6667 71.9031 22.6667C75.2742 22.6667 78.6318 22.7503 81.9742 22.8335L81.9784 22.8336C85.3264 22.917 88.6592 23 92 23C92.5523 23 93 23.4477 93 24C93 24.5523 92.5523 25 92 25C88.6329 25 85.2779 24.9164 81.9367 24.8332L81.9286 24.833C78.5807 24.7496 75.2465 24.6667 71.9031 24.6667C69.552 24.6667 67.2055 24.5406 64.8888 24.4162L64.8714 24.4152C62.54 24.29 60.2385 24.1667 57.9385 24.1667C54.9445 24.1667 51.9523 24.1249 48.968 24.0833L48.9637 24.0832C45.9757 24.0416 42.9955 24 40.0154 24C36.7513 24 33.4872 24.083 30.2083 24.1663L30.2022 24.1665Z" fill="#F4F1ED"/>
<path fill-rule="evenodd" clip-rule="evenodd" d="M31.7304 42.6554C32.656 41.157 34.1487 39.7544 36.4157 40.0355C37.3194 40.1476 38.0204 40.5638 38.5142 41.1768C38.9864 41.763 39.2281 42.4762 39.3517 43.1489C39.5967 44.4825 39.4287 45.9593 39.293 46.8468C38.5476 51.7179 35.6399 55.9286 31.7774 58.9232C31.9076 59.1918 32.0524 59.4534 32.2129 59.7072C33.6208 61.9335 36.2278 62.5148 38.9897 61.7132C40.2058 61.3602 41.3472 60.7322 42.4679 59.9906C42.4621 59.9944 42.4627 59.9939 42.4865 59.9739C42.5023 59.9606 42.5283 59.9388 42.5695 59.9039L42.5748 59.8994C42.6406 59.8436 42.7695 59.7344 42.9076 59.6488C42.9776 59.6055 43.1051 59.5328 43.2694 59.4887C43.43 59.4456 43.7628 59.3953 44.1053 59.5948C44.4552 59.7986 44.5785 60.1239 44.6204 60.3096C44.6619 60.4934 44.6549 60.6631 44.644 60.7782C44.6249 60.9793 44.6207 61.1232 44.6287 61.2303C44.6326 61.2824 44.6388 61.316 44.6435 61.3357C44.6774 61.3517 44.7554 61.3809 44.9044 61.4028C45.4959 61.4896 46.3644 61.3546 47.1738 60.9944C48.0005 60.6265 48.5362 60.129 48.7148 59.6865C48.7271 59.6105 48.7467 59.5264 48.7768 59.4431C48.7879 59.4124 48.8064 59.3652 48.8344 59.3111L48.8356 59.3089C48.8516 59.278 48.9239 59.138 49.0706 59.0106C49.1441 58.9468 49.3461 58.789 49.6587 58.7673C50.0442 58.7407 50.3402 58.9328 50.5037 59.1332C50.6377 59.2973 50.684 59.4605 50.7002 59.5252C50.7201 59.605 50.7263 59.6714 50.7286 59.7101C50.7367 59.8419 50.7168 59.95 50.7109 59.9821C50.7092 59.9912 50.7074 60.0006 50.7056 60.0094C50.7187 60.0419 50.7449 60.0904 50.7969 60.1505C51.2847 60.7148 52.0856 60.9588 53.1136 60.8789C54.0512 60.8059 55.0251 60.4677 55.75 60.0529C55.631 59.1441 55.8062 58.1573 56.2444 57.1194C56.3156 56.9508 56.7889 55.8551 57.3822 54.9344C57.6641 54.497 58.0495 53.9751 58.5091 53.6575C58.746 53.4938 59.105 53.3126 59.5454 53.3351C60.0293 53.3597 60.4034 53.617 60.6538 53.934C60.9176 54.268 61.0076 54.648 61.0346 54.9492C61.0619 55.2543 61.0317 55.5548 60.9878 55.8093C60.9007 56.3146 60.73 56.796 60.6446 57.0367L60.6439 57.0386C60.1392 58.4619 59.2941 59.756 58.1443 60.7764C58.5831 61.3513 59.3992 61.8795 60.6873 62.3074C64.725 63.6484 69.1304 62.7841 73.5484 61.9173C73.9695 61.8347 74.3906 61.7521 74.8116 61.6713C75.354 61.5673 75.8781 61.9227 75.9821 62.4651C76.0861 63.0075 75.7308 63.5315 75.1884 63.6355C74.7609 63.7175 74.3259 63.8036 73.8845 63.8909C69.564 64.7457 64.6255 65.7228 60.0569 64.2054C58.5777 63.7141 57.2902 62.9973 56.5026 61.9208C55.5768 62.4078 54.4224 62.7831 53.2687 62.8728C52.0305 62.9691 50.6428 62.7408 49.602 61.7863C49.1216 62.2275 48.5488 62.5716 47.987 62.8216C46.9261 63.2937 45.671 63.5367 44.614 63.3816C43.8698 63.2723 43.2162 62.9484 42.8684 62.2667C42.8474 62.2256 42.8282 62.1842 42.8105 62.1425C41.8163 62.747 40.7319 63.2901 39.5472 63.6339C36.2567 64.5889 32.5665 64.0083 30.5226 60.7762C30.3807 60.5519 30.2491 60.3237 30.1272 60.092C29.5027 60.495 28.86 60.8682 28.2033 61.2094C26.3254 62.1852 24.2819 62.9299 22 62.9299C21.4477 62.9299 21 62.4822 21 61.9299C21 61.3776 21.4477 60.9299 22 60.9299C23.8358 60.9299 25.5513 60.3335 27.2811 59.4347C27.997 59.0627 28.6915 58.6514 29.3591 58.2041C28.2516 54.5291 29.0031 50.3427 29.9469 47.1181L29.9598 47.074C30.2952 45.9279 30.8229 44.1245 31.7304 42.6554ZM31.0886 56.9139C34.3416 54.2175 36.696 50.5962 37.316 46.5443C37.4464 45.692 37.5656 44.4954 37.3846 43.5102C37.2952 43.0236 37.1457 42.6661 36.9566 42.4314C36.7892 42.2235 36.5588 42.0686 36.1695 42.0203C35.0381 41.88 34.1791 42.4969 33.432 43.7065C32.6784 44.9264 32.2142 46.4916 31.8664 47.6799C31.0013 50.6357 30.4419 54.0035 31.0886 56.9139ZM42.6527 60.5917L42.6529 60.5895C42.6531 60.5874 42.6532 60.5862 42.6532 60.5862M50.6928 59.9634C50.6928 59.9634 50.693 59.9643 50.693 59.9663L50.6928 59.9634Z" fill="#F4F1ED"/>
</svg>
