<svg width="96" height="96" viewBox="0 0 96 96" fill="none" xmlns="http://www.w3.org/2000/svg">
<path fill-rule="evenodd" clip-rule="evenodd" d="M87.0074 33.1524C87.0036 33.2751 87.0003 33.3977 87.0003 33.529C87.0003 33.5341 87.0009 33.5566 87.0158 33.6211C87.0236 33.6547 87.0328 33.6901 87.0465 33.742C87.0588 33.789 87.0758 33.8533 87.0912 33.9203C87.1583 34.2123 87.2226 34.6642 86.9909 35.1783C86.9553 35.2574 86.9201 35.4612 86.9348 35.8665C86.9408 36.0315 86.9529 36.1981 86.966 36.3784L86.9709 36.4456C86.9849 36.6395 87.0003 36.8615 87.0003 37.0671C87.0003 38.0678 86.9448 39.0784 86.8911 40.0571C86.8702 40.4378 86.8496 40.8136 86.8326 41.1821C86.6668 44.776 86.742 48.3512 86.8184 51.9859C86.8295 52.5128 86.8406 53.0409 86.851 53.5706C86.8722 54.6499 86.9839 55.7267 87.1101 56.8427C87.1241 56.9668 87.1384 57.0916 87.1527 57.2169C87.2654 58.2049 87.3821 59.2276 87.4374 60.2591C87.4775 61.0076 87.4906 61.7617 87.5032 62.4935C87.5076 62.7508 87.512 63.0053 87.5175 63.2558C87.539 64.2343 87.5775 65.1794 87.6943 66.1151C87.7982 66.9472 87.9183 67.7868 88.0394 68.6337C88.3512 70.8129 88.6698 73.0404 88.7365 75.3115C88.8013 77.5142 88.9535 79.715 89.1286 81.9315C89.2172 83.0541 89.361 84.179 89.5087 85.334C89.5551 85.697 89.6019 86.0629 89.6474 86.4326C89.8357 87.9605 90 89.532 90 91.1032C90 91.2314 89.9958 91.6302 89.9387 92.0168C89.9116 92.2008 89.8628 92.454 89.7608 92.6873C89.6946 92.839 89.405 93.4445 88.6895 93.4734C87.9143 93.5047 87.1596 93.4612 86.4508 93.4141C86.3671 93.4085 86.2841 93.4029 86.2017 93.3974C85.5729 93.3549 84.9827 93.315 84.3864 93.315C82.5563 93.315 80.7272 93.3935 78.8742 93.4733L78.8605 93.4739C77.019 93.5531 75.1537 93.6334 73.2823 93.6334C71.8059 93.6334 70.3481 93.7202 68.8562 93.809C68.2327 93.8462 67.6032 93.8836 66.964 93.9153C64.5042 94.037 61.9928 94.0014 59.5286 93.9665C58.3809 93.9503 57.2434 93.9342 56.1261 93.9342C52.5455 93.9342 48.919 93.8117 45.3131 93.6899C42.7213 93.6023 40.1401 93.5152 37.5943 93.4741C35.0723 93.4334 32.5329 93.4206 29.9847 93.4078C24.0232 93.3777 18.0137 93.3475 12.0654 92.9591C11.927 92.95 11.8047 92.9443 11.6923 92.9393L11.6495 92.9375C11.5553 92.9334 11.4589 92.9291 11.3737 92.9235C11.3687 92.9232 11.3633 92.9228 11.3576 92.9224C11.2138 92.9132 10.8653 92.8908 10.5615 92.7021C10.0998 92.4151 10.0002 91.958 9.97958 91.6953C9.96378 91.4936 9.98322 91.252 9.99864 91.0603C9.99987 91.045 10.0011 91.0299 10.0022 91.0153C10.0885 89.9282 10.0626 88.8544 10.0355 87.7307C10.0219 87.1632 10.0079 86.5829 10.0079 85.9818C10.0079 85.34 9.97042 84.6976 9.93066 84.0207L9.92996 84.0087C9.89097 83.3449 9.85 82.6473 9.85 81.9394C9.85 80.3697 9.91214 78.8014 9.97338 77.2554L9.97801 77.1387C10.041 75.548 10.1014 73.9804 10.0956 72.4167C10.0847 69.4885 9.80636 66.519 9.45362 63.5716C9.01228 59.8838 8.91243 56.3379 9.07029 52.6365C9.15936 50.548 9.21354 48.4287 9.26804 46.2969C9.37336 42.1773 9.47987 38.0113 9.84166 33.9315C9.74686 33.7786 9.69212 33.5983 9.69212 33.4052C9.69212 32.8529 10.1398 32.4052 10.6921 32.4052C11.0377 32.4052 11.3748 32.4556 11.6282 32.4935C11.6333 32.4943 11.6384 32.495 11.6434 32.4958C11.9288 32.5384 12.1123 32.5644 12.2709 32.5644C12.9377 32.5644 13.6258 32.4915 14.3819 32.4108L14.3961 32.4093C15.129 32.331 15.926 32.246 16.7266 32.246C23.2996 32.246 29.8749 31.9064 36.4508 31.3735C42.9085 30.8502 49.3695 31.0028 55.785 31.1543C58.2772 31.2132 60.7626 31.2718 63.2383 31.2907C64.9567 31.3038 66.6482 31.3359 68.3331 31.3678C70.4996 31.409 72.6553 31.4499 74.8435 31.4499C77.1616 31.4499 79.4663 31.313 81.8022 31.1743C82.781 31.1161 83.7653 31.0577 84.7583 31.0088C85.1371 30.9902 85.5187 30.9946 85.8531 31.0826C86.2416 31.185 86.6217 31.4178 86.8383 31.8574C87.0101 32.2061 87.0156 32.5768 87.0155 32.7842C87.0154 32.8919 87.0118 33.0082 87.0085 33.115L87.0074 33.1524ZM11.7969 34.5353C11.9487 34.5521 12.1102 34.5644 12.2709 34.5644C13.0504 34.5644 13.8337 34.4807 14.5593 34.4033L14.5942 34.3995C15.3487 34.319 16.045 34.246 16.7266 34.246C23.3675 34.246 29.9987 33.903 36.6124 33.367C42.9587 32.8527 49.2587 33.0015 55.6347 33.1521C58.1499 33.2116 60.6768 33.2713 63.2231 33.2906C64.8807 33.3032 66.563 33.335 68.252 33.3668C70.4512 33.4082 72.6617 33.4499 74.8435 33.4499C77.224 33.4499 79.6231 33.3075 81.9843 33.1673C82.9493 33.11 83.9081 33.0531 84.8566 33.0064C84.9132 33.0036 84.9645 33.0018 85.0111 33.0009C85.0105 33.019 85.0099 33.038 85.0093 33.0578L85.0083 33.0916C85.0045 33.2169 85.0003 33.3653 85.0003 33.529C85.0003 33.746 85.0352 33.9326 85.0671 34.0709C85.0821 34.1362 85.0985 34.1984 85.1108 34.2451L85.1121 34.2504C85.1259 34.3025 85.1348 34.3367 85.142 34.3684C85.1449 34.3809 85.1471 34.3912 85.1487 34.3996C84.9248 34.9274 84.9211 35.524 84.9361 35.9388C84.9435 36.1431 84.9584 36.3478 84.9713 36.5239L84.9761 36.5899C84.9908 36.7922 85.0003 36.9446 85.0003 37.0671C85.0003 38.0094 84.9495 38.9346 84.8969 39.8916C84.8754 40.2846 84.8535 40.6829 84.8347 41.0899C84.6656 44.756 84.7425 48.4036 84.8189 52.0324C84.83 52.5586 84.8411 53.0844 84.8514 53.6098C84.8746 54.7913 84.9964 55.9501 85.1228 57.0674C85.137 57.1934 85.1513 57.3188 85.1655 57.4436C85.279 58.4386 85.3884 59.3988 85.4403 60.3662C85.4783 61.0753 85.4904 61.7759 85.5028 62.4965C85.5074 62.761 85.512 63.0283 85.518 63.2997C85.5398 64.2951 85.5798 65.3228 85.7097 66.3629C85.8233 67.2728 85.9499 68.1574 86.0745 69.0286C86.3801 71.164 86.6742 73.219 86.7374 75.3702C86.8036 77.6229 86.959 79.8627 87.1348 82.0889C87.2276 83.2645 87.38 84.4559 87.529 85.6212C87.5744 85.9761 87.6195 86.3285 87.6625 86.6773C87.8489 88.1904 88 89.6609 88 91.1032C88 91.1728 87.9979 91.3213 87.986 91.4831C87.5305 91.4778 87.0677 91.4507 86.5835 91.4185C86.5024 91.4131 86.4205 91.4076 86.3379 91.402C85.7164 91.3598 85.0551 91.315 84.3864 91.315C82.5086 91.315 80.6391 91.3955 78.7955 91.4748L78.7882 91.4751C76.9351 91.5549 75.1082 91.6334 73.2823 91.6334C71.7432 91.6334 70.1914 91.7258 68.6747 91.816C68.0648 91.8523 67.4606 91.8882 66.8651 91.9177C64.4686 92.0363 62.0676 92.0021 59.639 91.9675C58.4752 91.9509 57.3051 91.9342 56.1261 91.9342C52.55 91.9342 49.011 91.814 45.4531 91.6932C42.8615 91.6052 40.2599 91.5168 37.6266 91.4743C35.0559 91.4329 32.4892 91.42 29.9267 91.4071C23.9929 91.3773 18.0816 91.3476 12.1957 90.9633C12.1311 90.9591 12.0698 90.9555 12.0121 90.9524C12.0866 89.8304 12.059 88.6569 12.033 87.5469C12.0202 87.0056 12.0079 86.4795 12.0079 85.9818C12.0079 85.2769 11.967 84.5811 11.9281 83.9183L11.9272 83.9034C11.8875 83.2266 11.85 82.5832 11.85 81.9394C11.85 80.4099 11.9108 78.8761 11.9725 77.3184L11.9764 77.2178C12.0392 75.6325 12.1016 74.0228 12.0956 72.4093C12.0843 69.3667 11.7954 66.3084 11.4395 63.3339C11.0124 59.7659 10.9146 56.3288 11.0685 52.7217C11.1607 50.5589 11.2156 48.4032 11.2703 46.2552C11.3705 42.3222 11.47 38.4147 11.7969 34.5353Z" fill="#F4F1ED"/>
<path fill-rule="evenodd" clip-rule="evenodd" d="M6.96601 24.0259L6.96844 24.0255C6.96176 24.0268 6.96052 24.0267 6.96601 24.0259ZM7.67461 24.0003C7.857 23.9994 8.06599 24.0006 8.29876 24.0037C9.25786 24.0166 10.5529 24.0613 11.8868 24.1162C13.3157 24.1751 14.8017 24.2463 15.9402 24.301C16.9026 24.3471 17.6167 24.3814 17.838 24.3861C19.737 24.4268 21.6321 24.3864 23.5028 24.3465C23.5752 24.345 23.6475 24.3434 23.7199 24.3419C25.6687 24.3004 27.5921 24.2629 29.5136 24.3167C33.3038 24.4227 37.1012 24.412 40.8796 24.4014C42.0171 24.3982 43.1529 24.395 44.2863 24.395C46.3911 24.395 48.523 24.4415 50.6671 24.4882C54.1903 24.5649 57.7464 24.6424 61.2692 24.5157C66.9726 24.3105 72.6515 24.3357 78.3513 24.361C80.2413 24.3693 82.1336 24.3777 84.0299 24.3777C84.6254 24.3777 85.2173 24.3416 85.7751 24.3075L85.7916 24.3065C86.3645 24.2716 86.9029 24.2391 87.4365 24.2391C87.5659 24.2391 87.7594 24.2227 87.9191 24.2092L87.957 24.206C88.1515 24.1897 88.3617 24.1722 88.565 24.162C88.609 24.1597 88.651 24.158 88.691 24.1566C88.6949 24.2363 88.6974 24.3171 88.7 24.4033C88.7009 24.4304 88.7017 24.458 88.7027 24.4863C88.7067 24.6108 88.7127 24.7929 88.7358 24.9468C88.8465 25.6857 88.8459 26.4134 88.8453 27.2514C88.8452 27.3168 88.8452 27.383 88.8452 27.4499C88.8452 28.1953 88.8851 28.9313 88.9234 29.6363L88.924 29.6488C88.9613 30.3344 88.9967 30.9913 88.9998 31.6469C88.9829 31.6956 88.9569 31.7589 88.9256 31.8231C88.2796 31.9204 87.5793 31.8859 86.7534 31.8452C86.6917 31.8422 86.6292 31.8391 86.5659 31.836C85.5938 31.789 84.4348 31.7464 83.3331 32.1163C82.8095 32.292 82.5276 32.859 82.7034 33.3825C82.8791 33.9061 83.4461 34.188 83.9696 34.0123C84.6669 33.7782 85.4652 33.7851 86.4693 33.8337C86.5477 33.8375 86.6276 33.8416 86.7089 33.8457C87.5989 33.8912 88.652 33.945 89.6593 33.7195C89.9044 33.6647 90.0777 33.54 90.1717 33.4616C90.2741 33.376 90.3542 33.2841 90.4127 33.2093C90.5297 33.0595 90.6258 32.8929 90.6984 32.7497C90.7731 32.6021 90.8396 32.4461 90.8897 32.3012C90.9259 32.1967 91 31.9722 91 31.7386C91 30.9937 90.9601 30.2579 90.9218 29.553L90.9211 29.5404C90.8822 28.8228 90.8452 28.1365 90.8452 27.4499C90.8452 27.3769 90.8453 27.3034 90.8454 27.2293C90.8465 26.4193 90.8478 25.545 90.7137 24.6504C90.7137 24.6504 90.7113 24.6325 90.7085 24.5861C90.7059 24.5422 90.7038 24.4888 90.7016 24.4214C90.7009 24.3999 90.7002 24.3769 90.6995 24.3527C90.6959 24.2352 90.6914 24.0889 90.6824 23.9461C90.6716 23.7753 90.6521 23.5662 90.6076 23.3636C90.5695 23.1902 90.4838 22.8728 90.2467 22.6074C90.029 22.3637 89.7597 22.2742 89.637 22.2393C89.4873 22.1966 89.3383 22.1772 89.2171 22.167C88.9722 22.1464 88.7001 22.1526 88.4645 22.1645C88.2232 22.1766 87.981 22.197 87.791 22.2129L87.7895 22.2131C87.6915 22.2213 87.6102 22.2281 87.5432 22.233C87.5101 22.2353 87.484 22.237 87.4638 22.238C87.4464 22.2389 87.4365 22.2391 87.4365 22.2391C86.836 22.2391 86.2409 22.2754 85.6814 22.3095L85.6698 22.3103C85.0966 22.3452 84.56 22.3777 84.0299 22.3777C82.1535 22.3777 80.2737 22.3694 78.3911 22.361C72.6811 22.3357 66.9449 22.3102 61.1973 22.517C57.7145 22.6423 54.2811 22.5666 50.8132 22.4903C48.6576 22.4428 46.4887 22.395 44.2863 22.395C43.1401 22.395 41.9961 22.3982 40.8536 22.4014C37.0812 22.412 33.3259 22.4225 29.5696 22.3174C27.5918 22.2621 25.6212 22.301 23.6773 22.3423C23.6099 22.3438 23.5425 22.3452 23.4751 22.3466C21.5928 22.3868 19.7361 22.4264 17.8808 22.3866C17.6736 22.3822 17.0103 22.3502 16.0981 22.3063C14.9711 22.252 13.4644 22.1795 11.9691 22.1179C10.632 22.0629 9.31393 22.0172 8.32563 22.0039C7.83459 21.9973 7.40774 21.9984 7.09577 22.012C6.94556 22.0185 6.78927 22.0292 6.65631 22.05C6.59809 22.0591 6.48756 22.0784 6.36982 22.123C6.31451 22.144 6.19627 22.1928 6.07377 22.2916C5.95281 22.3891 5.71817 22.6286 5.69503 23.0248C5.66528 23.5341 5.67259 24.0379 5.68254 24.5075C5.68379 24.5666 5.68508 24.6251 5.68636 24.6831C5.69547 25.0964 5.70396 25.4809 5.69369 25.8635C5.68439 26.2102 5.63664 26.6991 5.55201 27.1857C5.46495 27.6864 5.35196 28.1072 5.2399 28.3555C4.85806 29.2015 5.0121 30.1497 5.1578 30.8103C5.21315 31.0613 5.28085 31.3226 5.34112 31.5553C5.36409 31.6439 5.38598 31.7284 5.4057 31.8066C5.48363 32.1156 5.53388 32.3483 5.55198 32.5306C5.55415 32.5525 5.55678 32.5827 5.55998 32.6197C5.57386 32.7795 5.59849 33.0632 5.64328 33.3238C5.67179 33.4895 5.71443 33.6867 5.7831 33.878C5.84439 34.0487 5.96486 34.3272 6.21098 34.5503C6.38423 34.7073 6.57075 34.7817 6.68971 34.819C6.81628 34.8587 6.93702 34.8779 7.03276 34.8886C7.22235 34.9096 7.41774 34.907 7.56886 34.9014C7.67704 34.8975 7.79521 34.8903 7.88894 34.8846C7.9245 34.8824 7.95654 34.8805 7.98319 34.879C8.06158 34.8747 8.09726 34.8744 8.10543 34.8739C9.06296 34.9999 9.99232 35 10.8741 35C11.4264 35 11.8741 34.5523 11.8741 34C11.8741 33.4477 11.4264 33 10.8741 33C9.96547 33 9.15618 32.9971 8.34047 32.8876C8.23573 32.8735 8.13654 32.8734 8.07616 32.8742C8.0074 32.8752 7.93589 32.8786 7.87259 32.8821C7.82477 32.8847 7.78064 32.8874 7.73832 32.89C7.69103 32.8929 7.646 32.8956 7.60058 32.898C7.58056 32.7611 7.56886 32.6284 7.55736 32.498C7.55247 32.4427 7.54763 32.3877 7.54219 32.333C7.50815 31.9901 7.42425 31.6318 7.34497 31.3175C7.31855 31.2127 7.29265 31.1128 7.26747 31.0156C7.2109 30.7973 7.15794 30.593 7.11085 30.3795C6.96757 29.7299 6.9759 29.3708 7.06285 29.1782C7.27866 28.7 7.42588 28.0837 7.52244 27.5284C7.62145 26.959 7.68074 26.3729 7.69297 25.9171C7.70465 25.4819 7.69492 25.0448 7.68583 24.6362C7.68455 24.5786 7.68328 24.5215 7.68209 24.4651C7.67873 24.3065 7.67591 24.1518 7.67461 24.0003Z" fill="#F4F1ED"/>
<path fill-rule="evenodd" clip-rule="evenodd" d="M41 24C41.5523 24 42 24.4477 42 25V30.9993C42 31.5515 41.5523 32 41 32C40.4477 32 40 31.5523 40 31V25C40 24.4477 40.4477 24 41 24Z" fill="#F4F1ED"/>
<path fill-rule="evenodd" clip-rule="evenodd" d="M51 24C51.5523 24 52 24.4477 52 25V32C52 32.5523 51.5523 33 51 33C50.4477 33 50 32.5523 50 32V25C50 24.4477 50.4477 24 51 24Z" fill="#F4F1ED"/>
<path fill-rule="evenodd" clip-rule="evenodd" d="M41 33C41.5523 33 42 33.4477 42 34V92C42 92.5523 41.5523 93 41 93C40.4477 93 40 92.5523 40 92V34C40 33.4477 40.4477 33 41 33Z" fill="#F4F1ED"/>
<path fill-rule="evenodd" clip-rule="evenodd" d="M49.1486 33.0013C49.7001 33.0295 50.1244 33.4996 50.0961 34.0511C49.9205 37.4824 50.0135 40.9191 50.1526 44.391C50.1795 45.0616 50.2081 45.7339 50.2368 46.4079C50.3562 49.2107 50.4766 52.04 50.4766 54.8711C50.4766 57.7454 50.6407 62.0605 50.8059 65.6721C50.8883 67.4747 50.9708 69.0966 51.0326 70.2678C51.0635 70.8533 51.0893 71.3261 51.1073 71.6524L51.1356 72.1573C51.1356 72.1573 51.1356 72.1578 50.1372 72.2149L51.1356 72.1573L51.1379 72.1975L51.1359 72.2883L51.1329 72.438C51.1304 72.5686 51.1269 72.7589 51.1231 72.9965C51.1156 73.4719 51.1069 74.1364 51.1024 74.8924C51.0933 76.4091 51.1011 78.2763 51.1666 79.7232C51.2223 80.9541 51.348 82.0092 51.472 83.0505C51.483 83.1429 51.494 83.2353 51.5049 83.3277C51.6382 84.4532 51.7622 85.5804 51.7622 86.8402C51.7622 87.8413 51.8205 89.3602 51.88 90.644C51.9096 91.2827 51.9392 91.8577 51.9614 92.273C51.9725 92.4806 51.9818 92.6482 51.9882 92.7637L51.9983 92.9415L50.0017 93.0577L49.9913 92.8754C49.9848 92.7584 49.9755 92.5892 49.9643 92.3797C49.9419 91.961 49.912 91.3811 49.8822 90.7366C49.8227 89.454 49.7622 87.893 49.7622 86.8402C49.7622 85.7087 49.6515 84.6836 49.5188 83.5629C49.5078 83.4696 49.4966 83.3756 49.4853 83.2808C49.3618 82.245 49.2278 81.1211 49.1687 79.8136C49.1007 78.3131 49.0933 76.4036 49.1024 74.8804C49.107 74.1165 49.1157 73.4452 49.1234 72.9648C49.1272 72.7246 49.1307 72.532 49.1333 72.3992L49.1363 72.2464L49.1366 72.2326L49.1104 71.7627C49.0923 71.435 49.0664 70.9606 49.0354 70.3732C48.9734 69.1986 48.8907 67.5719 48.808 65.7635C48.6429 62.1531 48.4766 57.7963 48.4766 54.8711C48.4766 52.0868 48.3585 49.3107 48.2394 46.5115C48.2105 45.8329 48.1816 45.1529 48.1542 44.4711C48.0147 40.99 47.9181 37.4767 48.0987 33.9489C48.127 33.3973 48.597 32.9731 49.1486 33.0013ZM50.0017 93.0577C50.0336 93.6091 50.5065 94.0303 51.0578 93.9983C51.6092 93.9664 52.0302 93.4929 51.9983 92.9415L50.0017 93.0577Z" fill="#F4F1ED"/>
<path fill-rule="evenodd" clip-rule="evenodd" d="M16.1686 10.4443C16.4755 9.98515 17.0965 9.8617 17.5557 10.1686C18.1826 10.5876 18.8063 10.907 19.4862 11.2552C19.8614 11.4474 20.2537 11.6483 20.6731 11.8796C21.2678 12.2075 21.8376 12.5756 22.3779 12.9302C22.4501 12.9776 22.5217 13.0247 22.5928 13.0714C23.0629 13.3806 23.5105 13.675 23.967 13.9462C26.1535 15.2452 28.4843 16.2701 30.8905 17.2854C33.71 18.4752 36.5145 19.641 39.3643 20.6855L39.3893 20.6947C40.4193 21.0722 41.5173 21.4746 42.5557 22.1686C43.0149 22.4755 43.1383 23.0965 42.8314 23.5557C42.5245 24.0148 41.9035 24.1383 41.4443 23.8314C40.6266 23.2849 39.7428 22.9543 38.6761 22.5634C35.7773 21.5009 32.9344 20.3187 30.1129 19.1281C27.7023 18.1109 25.2603 17.0408 22.9455 15.6656C22.4465 15.3692 21.9572 15.0473 21.4902 14.7401C21.4198 14.6938 21.3499 14.6478 21.2806 14.6023C20.7417 14.2487 20.2284 13.9182 19.7074 13.631C19.4011 13.4621 19.0651 13.2894 18.7154 13.1096C17.9699 12.7263 17.1617 12.3109 16.4443 11.8314C15.9852 11.5245 15.8617 10.9035 16.1686 10.4443Z" fill="#F4F1ED"/>
<path fill-rule="evenodd" clip-rule="evenodd" d="M75.15 10.6268C75.1073 10.6472 75.064 10.6678 75.02 10.6888C73.7325 11.3014 72.5155 12.0358 71.2669 12.8089C71.1197 12.9 70.9719 12.9919 70.8234 13.0841C69.726 13.7656 68.5937 14.4687 67.4074 15.096C65.3752 16.1704 63.2142 16.9941 61.1246 17.7906C60.7935 17.9168 60.4642 18.0424 60.1375 18.1681C58.4072 18.8339 56.7665 19.5692 55.0973 20.3173C53.9912 20.8131 52.8726 21.3144 51.707 21.8049C51.4322 21.9205 51.1442 22.0456 50.8452 22.1754C49.1457 22.9134 47.0912 23.8055 45.0947 23.9955C44.5449 24.0478 44.0568 23.6445 44.0045 23.0947C43.9522 22.5449 44.3555 22.0568 44.9053 22.0045C46.5558 21.8474 48.2648 21.1094 49.9808 20.3684C50.2975 20.2316 50.6144 20.0948 50.9313 19.9614C52.0012 19.5112 53.0884 19.0246 54.1871 18.5329C55.9098 17.7619 57.661 16.9781 59.4192 16.3015C59.7562 16.1718 60.092 16.0438 60.4261 15.9163C62.523 15.1165 64.5573 14.3405 66.4726 13.3279C67.5932 12.7354 68.663 12.0712 69.7665 11.3861C69.915 11.2939 70.0641 11.2013 70.2141 11.1084C71.4651 10.3338 72.7642 9.54728 74.1606 8.88281C74.222 8.85361 74.2871 8.82203 74.3557 8.78878C75.0113 8.47079 75.9819 7.99999 77 7.99999C77.5523 7.99999 78 8.44771 78 8.99999C78 9.55228 77.5523 9.99999 77 9.99999C76.4645 9.99999 75.9082 10.2653 75.15 10.6268Z" fill="#F4F1ED"/>
<path fill-rule="evenodd" clip-rule="evenodd" d="M41.7385 3.19109C41.2596 3.02547 40.7027 2.97546 40.2754 3.01058C39.837 3.04662 39.5694 3.19083 39.4051 3.35979C39.2396 3.52991 39.0925 3.81408 39.0608 4.28685C38.8999 6.68446 39.0355 9.09005 39.7463 11.2814C40.0212 12.1288 40.2732 13.0597 40.5195 13.9698C40.6808 14.5657 40.8396 15.1527 41.0009 15.7014C41.3854 17.0092 41.8159 18.2311 42.4095 19.3084C42.4582 18.004 42.572 16.717 42.6833 15.4591L42.685 15.4394C42.8337 13.7583 42.9772 12.1288 42.9772 10.4912C42.9772 10.0104 42.9832 9.54158 42.989 9.07976C43.0011 8.11817 43.0128 7.18712 42.97 6.24285C42.9526 5.85704 42.9195 5.37825 42.8542 4.91719C42.7864 4.43874 42.6936 4.05412 42.5876 3.81734C42.4877 3.59448 42.2289 3.36066 41.7385 3.19109ZM43.6305 21.5355C44.0641 21.4261 44.385 21.0334 44.385 20.5658C44.385 18.9269 44.5285 17.2966 44.6772 15.6156L44.6792 15.5938C44.826 13.934 44.9772 12.2241 44.9772 10.4912C44.9772 10.0648 44.9827 9.62484 44.9883 9.17737C45.0006 8.18456 45.0134 7.1546 44.968 6.15241C44.9491 5.73438 44.9122 5.18565 44.8344 4.63662C44.7591 4.10499 44.6356 3.49697 44.4128 2.99966C43.9973 2.0722 43.1518 1.56361 42.3922 1.30092C41.6211 1.03428 40.7823 0.962165 40.1116 1.0173C39.2882 1.08499 38.5347 1.38612 37.9713 1.96539C37.4091 2.5435 37.1218 3.31044 37.0653 4.15292C36.8945 6.69725 37.027 9.38033 37.8439 11.8985C38.1117 12.7238 38.3327 13.5438 38.5628 14.3975C38.7249 14.9989 38.8915 15.617 39.0821 16.2654C39.524 17.7688 40.0653 19.3116 40.9004 20.6941C41.1187 21.0556 41.2906 21.3862 41.4768 21.7443C41.6096 21.9996 41.7496 22.2689 41.9188 22.5732C42.0322 22.777 42.1721 22.9293 42.2778 23.0329C42.3493 23.103 42.4417 23.1843 42.4984 23.2341C42.5147 23.2485 42.5281 23.2603 42.5371 23.2684C42.556 23.2854 42.5709 23.2994 42.5824 23.3107C42.7365 23.7841 43.223 24.0791 43.7241 23.9816C44.2662 23.8761 44.6202 23.351 44.5146 22.8089C44.4079 22.2605 44.0331 21.9238 43.8782 21.7846L43.874 21.7809C43.829 21.7404 43.797 21.7123 43.7713 21.6899C43.7334 21.6566 43.7094 21.6356 43.678 21.6048C43.6676 21.5946 43.6607 21.5873 43.6564 21.5826C43.6478 21.5671 43.6392 21.5514 43.6305 21.5355Z" fill="#F4F1ED"/>
<path fill-rule="evenodd" clip-rule="evenodd" d="M52.1567 4.18794L52.1555 4.18836C50.6064 4.83933 49.4525 6.22727 48.3604 7.78961C47.6339 8.82905 47.2936 9.91621 47.0942 11.1188C46.9934 11.7266 46.93 12.3543 46.8681 13.0257C46.8593 13.1218 46.8504 13.2189 46.8415 13.3169C46.7891 13.8941 46.7338 14.5029 46.6538 15.1215C46.5044 16.2762 46.243 17.4283 45.9943 18.5247C45.9775 18.5988 45.9607 18.6727 45.944 18.7463C45.7198 19.7367 45.5118 20.6827 45.3844 21.6096L45.3876 21.6092C45.9072 21.541 46.1675 21.4637 46.3763 21.2718C47.0913 20.6145 47.5962 19.7279 48.0636 18.6745C48.2436 18.2687 48.4096 17.8588 48.5816 17.434C48.6334 17.3062 48.6857 17.177 48.7391 17.0461C48.9652 16.4921 49.2071 15.9189 49.4862 15.3715C51.0516 12.3014 52.3746 9.55977 52.8564 6.30842C52.9145 5.91635 53.0012 5.31532 53 4.7431C52.9994 4.4575 52.9765 4.21721 52.9331 4.03588C52.9314 4.02857 52.9296 4.02147 52.9278 4.01459C52.8921 4.01893 52.8535 4.02435 52.812 4.03095C52.66 4.05512 52.5032 4.08986 52.3711 4.1245C52.2384 4.15928 52.1668 4.18439 52.1567 4.18794ZM43.3452 22.244C42.9721 22.5664 42.8857 23.123 43.163 23.5472C43.4652 24.0094 44.0849 24.1392 44.5472 23.837C44.7407 23.7105 44.9711 23.6804 45.5346 23.6069C45.5709 23.6022 45.6085 23.5973 45.6476 23.5922C46.2044 23.5192 47.0262 23.391 47.7298 22.7442C48.7505 21.8059 49.3899 20.6167 49.8917 19.4856C50.0864 19.0467 50.269 18.5957 50.4432 18.1654C50.4931 18.0423 50.5422 17.9209 50.5908 17.802C50.8137 17.2557 51.0293 16.748 51.2679 16.28C52.8296 13.2174 54.2997 10.2126 54.8348 6.60158L54.8355 6.59648C54.8926 6.21154 55.0015 5.47635 55 4.73902C54.9992 4.3682 54.971 3.95873 54.8783 3.57078C54.788 3.19324 54.615 2.74444 54.2566 2.39302C54.058 2.1982 53.8321 2.11034 53.6785 2.06756C53.5182 2.0229 53.3629 2.00711 53.2355 2.00205C52.9817 1.99196 52.7182 2.02071 52.4977 2.05579C52.0698 2.12387 51.6082 2.2489 51.3806 2.34455C49.2565 3.23718 47.8228 5.06781 46.7212 6.64381C45.7687 8.00641 45.3508 9.40676 45.1211 10.7916C45.0074 11.4774 44.9386 12.1683 44.8765 12.8423C44.8673 12.9427 44.8582 13.0426 44.8492 13.1421C44.7965 13.7206 44.745 14.2872 44.6703 14.8649C44.5335 15.9223 44.292 16.9876 44.0384 18.1062C44.0234 18.1722 44.0084 18.2383 43.9934 18.3047C43.7281 19.4765 43.4563 20.7067 43.3303 21.942C43.3198 22.0456 43.3254 22.1471 43.3452 22.244Z" fill="#F4F1ED"/>
</svg>
