<svg width="96" height="96" viewBox="0 0 96 96" fill="none" xmlns="http://www.w3.org/2000/svg">
<path fill-rule="evenodd" clip-rule="evenodd" d="M27.4301 10.2332C25.9556 10.2957 24.4729 10.3586 22.9716 10.4043C22.9218 10.4059 22.872 10.4074 22.8224 10.4089C19.4369 10.5118 16.6679 10.596 13.9847 12.1644C12.4363 13.0694 10.7328 14.658 9.91705 16.183C9.66591 16.6525 9.38762 17.1397 9.10996 17.6252L9.08917 17.6616C8.816 18.1392 8.54269 18.617 8.28185 19.0982C7.74322 20.0919 7.28784 21.0464 7.03314 21.9321C6.71438 23.0406 6.3804 24.1028 6.05537 25.1366C4.71647 29.395 3.52936 33.1707 4.18332 37.7055C4.39405 39.1669 4.49301 40.5093 4.57015 41.7781C4.58656 42.0481 4.60194 42.3137 4.61713 42.5758C4.67391 43.556 4.72795 44.489 4.82317 45.4333C5.06079 47.7898 5.55123 50.1621 6.97021 53.0603C8.96011 57.1244 11.6587 61.1982 15.3414 63.3629C16.5663 64.0829 17.7814 64.3722 19.0399 64.5095C19.6765 64.5789 20.3146 64.6087 20.9819 64.6378L21.0716 64.6417C21.7019 64.6691 22.3612 64.6977 23.0201 64.7641C23.5696 64.8194 23.9703 65.3097 23.9149 65.8592C23.8596 66.4087 23.3693 66.8093 22.8198 66.754C22.2189 66.6935 21.6111 66.6671 20.9656 66.639L20.8948 66.6359C20.2328 66.607 19.5332 66.5752 18.8231 66.4977C17.3882 66.3412 15.8737 65.9957 14.3279 65.0871C10.1218 62.6148 7.20802 58.0941 5.17396 53.9397C3.62817 50.7826 3.08893 48.1694 2.83326 45.634C2.73333 44.6429 2.67618 43.6552 2.61913 42.6693C2.60428 42.4126 2.58943 42.156 2.57383 41.8995C2.4977 40.6472 2.40264 39.3699 2.20379 37.991C1.47871 32.9629 2.83635 28.6671 4.19487 24.3685C4.50877 23.3753 4.82272 22.382 5.11103 21.3794C5.42707 20.2804 5.96662 19.1725 6.52356 18.1451C6.79549 17.6434 7.07877 17.1482 7.34888 16.6759L7.37386 16.6323C7.65387 16.1427 7.91797 15.68 8.15351 15.2397C9.18453 13.3123 11.1925 11.4798 12.9755 10.4377C16.1045 8.60879 19.3341 8.51225 22.5807 8.41521C22.6907 8.41192 22.8007 8.40863 22.9106 8.40528C24.3606 8.36105 25.8191 8.29932 27.2833 8.23734C30.0769 8.1191 32.8909 8 35.704 8C39.1281 8 42.6069 8.09964 46.0643 8.19867C48.8211 8.27763 51.5643 8.3562 54.2553 8.38356C58.024 8.42188 61.73 8.48787 65.5009 8.79155C67.5646 8.95773 69.6062 9.32533 71.597 9.68378C72.6799 9.87874 73.7477 10.071 74.7958 10.2267C79.3184 10.8984 82.5983 14.0791 85.5531 16.9446C85.6075 16.9974 85.6618 17.0501 85.7161 17.1026C89.1828 20.4631 92.462 24.7842 93.3294 29.9265C93.8036 32.7373 94.2639 35.6124 93.8197 38.6533C93.5918 40.213 93.6109 41.8037 93.6484 43.4796C93.6507 43.5823 93.6531 43.6853 93.6554 43.7887C93.6912 45.3467 93.7288 46.9819 93.549 48.6109C93.2772 51.0735 92.8891 53.2303 92.04 55.1711C91.1802 57.136 89.8712 58.8286 87.8353 60.4123C86.6849 61.3071 85.335 61.9138 84.0271 62.4111C83.4709 62.6226 82.9064 62.8199 82.3622 63.0102C82.2653 63.0441 82.169 63.0777 82.0735 63.1112C81.4347 63.3352 80.8275 63.5524 80.2562 63.7867C77.9008 64.7526 75.4408 65.2378 73.0974 65.6767C72.2851 65.8288 71.4921 66.0614 70.644 66.3103C70.496 66.3537 70.3464 66.3976 70.1946 66.4416C69.198 66.731 68.1279 67.0213 67.0049 67.1373C65.3254 67.3107 63.6449 67.3718 62.0044 67.4314C61.8548 67.4369 61.7055 67.4423 61.5565 67.4478C59.7613 67.5141 58.0117 67.5909 56.2789 67.816C53.6868 68.1527 51.0919 67.9709 48.5826 67.7191C48.0779 67.6685 47.578 67.6153 47.0819 67.5625C45.0785 67.3491 43.139 67.1426 41.2071 67.1426C40.9366 67.1426 40.6557 67.1475 40.3668 67.1526C38.9839 67.177 37.4189 67.2046 35.9362 66.7071C35.4126 66.5314 35.1306 65.9645 35.3063 65.4409C35.482 64.9173 36.0489 64.6353 36.5724 64.811C37.6983 65.1888 38.8456 65.172 40.2105 65.1521C40.53 65.1474 40.8613 65.1426 41.2071 65.1426C43.256 65.1426 45.329 65.3637 47.3418 65.5785C47.8258 65.6301 48.3064 65.6814 48.7822 65.7291C51.2711 65.9788 53.6718 66.1378 56.0213 65.8327C57.8562 65.5943 59.69 65.5154 61.4827 65.4492C61.6295 65.4437 61.7759 65.4384 61.922 65.4331C63.5745 65.3729 65.1896 65.3141 66.7995 65.1478C67.7284 65.0519 68.6486 64.808 69.6369 64.521C69.7773 64.4802 69.9196 64.4384 70.0635 64.3961C70.9077 64.1481 71.8096 63.8831 72.7292 63.7108C75.0842 63.2698 77.3552 62.8147 79.4973 61.9362C80.1212 61.6804 80.7717 61.4483 81.4117 61.2239C81.5106 61.1892 81.6091 61.1548 81.7074 61.1204C82.2522 60.9299 82.7875 60.7427 83.3163 60.5417C84.5674 60.066 85.6946 59.5435 86.6073 58.8336C88.404 57.4361 89.4931 56.0026 90.2077 54.3694C90.9329 52.7119 91.2954 50.7986 91.5611 48.3915C91.7257 46.8997 91.6913 45.3895 91.6552 43.8005C91.6531 43.7087 91.651 43.6166 91.6489 43.5243C91.6117 41.8595 91.5854 40.1115 91.8407 38.3642C92.2334 35.6763 91.8358 33.0957 91.3573 30.2592C90.5941 25.7353 87.6703 21.7824 84.324 18.5387C81.2204 15.5302 78.3598 12.7779 74.502 12.205C73.3204 12.0295 72.1952 11.826 71.0903 11.6262C69.1754 11.2799 67.3214 10.9446 65.3404 10.7851C61.6452 10.4875 58.0001 10.4217 54.235 10.3835C51.4362 10.355 48.6829 10.2754 45.9377 10.1961C42.5377 10.0979 39.1502 10 35.704 10C32.9295 10 30.1942 10.116 27.4301 10.2332Z" fill="#F4F1ED"/>
<path fill-rule="evenodd" clip-rule="evenodd" d="M21.8299 32.2748C22.2162 32.0127 22.7212 31.9056 23.2484 32.0977C24.2893 32.477 25.1091 32.9209 25.6254 33.5017C25.8964 33.8066 26.0928 34.1594 26.1792 34.559C26.2653 34.9576 26.2288 35.3419 26.1251 35.6914C25.929 36.3523 25.4722 36.9519 25.0092 37.4663C24.7349 37.771 24.4216 38.0845 24.0945 38.4005C24.2972 38.5746 24.5161 38.7317 24.7488 38.8678C26.5318 39.91 28.97 40.2639 31.1608 39.8182C31.8803 39.6718 32.5539 39.4442 33.1592 39.1381C33.0916 38.7097 33.093 38.2518 33.1597 37.7704C33.2554 37.0786 33.6276 36.478 34.0193 36.0313C34.4179 35.5767 34.9133 35.1933 35.3964 34.9507C35.6369 34.83 35.911 34.7256 36.1957 34.6814C36.4635 34.6398 36.8708 34.6326 37.2513 34.8694C37.684 35.1385 37.8583 35.5779 37.8836 35.9705C37.9067 36.3283 37.8155 36.6889 37.6906 37.0174C37.2622 38.1448 36.5827 39.0662 35.7459 39.7962C35.9705 39.9538 36.2706 40.094 36.6643 40.2057C38.0125 40.5881 40.0387 40.5208 42.3276 40.1736C46.4809 39.5437 50.9882 38.0814 52.5945 37.5603C52.7386 37.5135 52.8593 37.4744 52.9543 37.4441C54.2323 37.0364 56.7165 36.1892 58.5314 35.4497C58.7687 35.353 58.9872 35.261 59.1851 35.1747C59.204 34.9328 59.2868 34.6503 59.516 34.4015C59.8503 34.0385 60.292 33.972 60.5822 33.972C60.781 33.972 60.9877 33.983 61.1771 34.0217C61.2997 34.0468 61.7072 34.1338 61.9719 34.5087C62.3547 35.051 62.0969 35.5896 61.9608 35.7864C61.8855 35.8953 61.797 35.9866 61.7134 36.0605C62.1368 36.5914 62.6736 37.1225 63.0089 37.3712C64.2125 38.264 67.3906 40.0608 70.5597 41.1398C72.1458 41.6798 73.6501 42.0118 74.8626 41.9997C76.0796 41.9875 76.79 41.6407 77.1552 41.0641C77.4507 40.5975 78.0685 40.4588 78.535 40.7543C79.0016 41.0498 79.1403 41.6676 78.8448 42.1342C77.9594 43.5322 76.419 43.9842 74.8826 43.9996C73.3419 44.015 71.5902 43.6033 69.9151 43.033C66.5621 41.8914 63.1974 40.0011 61.8174 38.9776C61.2576 38.5624 60.4816 37.7698 59.9364 37.0292C59.7251 37.1208 59.5065 37.212 59.286 37.3019C57.4033 38.069 54.8643 38.9341 53.5621 39.3495C53.4718 39.3783 53.3547 39.4163 53.2132 39.4623C51.6239 39.9786 46.9582 41.4941 42.6276 42.151C40.2955 42.5047 37.9052 42.6366 36.1185 42.1297C35.3285 41.9056 34.5828 41.5361 34.0254 40.9393C33.2488 41.3273 32.4121 41.6045 31.5595 41.778C28.938 42.3114 25.9903 41.9101 23.7395 40.5944C23.3509 40.3673 22.9811 40.0929 22.6404 39.7804C22.058 40.3219 21.5313 40.7656 20.9536 41.0477C20.0669 41.4807 19.146 41.5113 17.9057 41.3938C17.3559 41.3417 16.9524 40.8537 17.0045 40.3039C17.0565 39.7541 17.5445 39.3506 18.0943 39.4027C19.2399 39.5112 19.7005 39.4339 20.0759 39.2505C20.4305 39.0774 20.7725 38.7871 21.3801 38.2185C20.7301 37.1027 20.4158 35.794 20.6547 34.4817C20.7086 34.185 20.8554 33.5913 21.1358 33.0791C21.2737 32.8272 21.4925 32.5036 21.8299 32.2748ZM22.8903 36.7816C23.1229 36.5534 23.3347 36.3371 23.5227 36.1282C23.9464 35.6576 24.1448 35.3344 24.2077 35.1225C24.2335 35.0355 24.2274 34.9958 24.2243 34.9814C24.2214 34.9679 24.2089 34.9185 24.1306 34.8305C23.9689 34.6486 23.6041 34.3882 22.8631 34.0912C22.8106 34.1969 22.761 34.3252 22.7182 34.4611C22.6691 34.6175 22.6373 34.7573 22.6223 34.8398C22.5075 35.4706 22.6139 36.1472 22.8903 36.7816ZM36.5026 36.6577C36.5097 36.6571 36.5095 36.6566 36.5026 36.6577V36.6577Z" fill="#F4F1ED"/>
<path fill-rule="evenodd" clip-rule="evenodd" d="M23.1789 64.9267C23.7312 64.9267 24.1789 65.3744 24.1789 65.9267C24.1789 66.3638 24.1571 66.7869 24.1346 67.1837C24.1317 67.2356 24.1288 67.287 24.1258 67.3379C24.106 67.6834 24.0875 68.0065 24.0803 68.3309C24.0641 69.064 24.1089 69.7408 24.3204 70.4374C25.2758 73.5844 26.5754 76.8814 28.2844 79.6157C29.0674 80.8685 30.18 81.763 31.5168 82.746C31.9386 83.0561 32.3347 83.3655 32.7184 83.6652C33.6383 84.3836 34.4871 85.0465 35.4479 85.5315C37.9825 86.8108 40.8909 88.1868 43.524 88.7719C43.5951 88.7877 43.6662 88.8027 43.7372 88.817C42.6772 87.5153 41.8069 86.0293 41.12 84.6555C39.0857 80.5869 37.4934 76.1019 36.3484 71.7302C35.9008 70.0209 35.6592 68.4404 35.6592 66.6653C35.6592 66.113 36.1069 65.6653 36.6592 65.6653C37.2115 65.6653 37.6592 66.113 37.6592 66.6653C37.6592 68.2409 37.871 69.6495 38.2832 71.2234C39.3998 75.4869 40.9473 79.8379 42.9089 83.761C43.8125 85.5683 44.9813 87.432 46.3881 88.7383C46.4854 88.8286 46.6011 88.9373 46.7043 89.0455C46.7918 89.1373 46.9393 89.2983 47.0422 89.4915C47.0916 89.5843 47.1856 89.7833 47.1862 90.0447C47.1869 90.3724 47.0382 90.7018 46.744 90.9155C46.5096 91.0859 46.2658 91.1213 46.143 91.1317C46.0025 91.1436 45.8686 91.1338 45.7581 91.12C45.6056 91.1009 45.4497 91.0823 45.2913 91.0634C44.589 90.9797 43.835 90.8898 43.0901 90.7243C40.1829 90.0783 37.0698 88.5905 34.5467 87.3169C33.3983 86.7373 32.3078 85.8857 31.3317 85.1235C30.983 84.8512 30.649 84.5904 30.3321 84.3573C28.9891 83.3698 27.5925 82.2823 26.5884 80.6757C24.7511 77.736 23.3896 74.2562 22.4067 71.0184C22.1097 70.0402 22.0622 69.1291 22.0808 68.2868C22.0888 67.9244 22.1096 67.5631 22.1293 67.2205C22.1322 67.1701 22.135 67.1201 22.1378 67.0706C22.1602 66.6764 22.1789 66.3024 22.1789 65.9267C22.1789 65.3744 22.6266 64.9267 23.1789 64.9267ZM46.025 89.1373C46.0251 89.1374 46.0244 89.1373 46.0228 89.1372L46.025 89.1373Z" fill="#F4F1ED"/>
</svg>
