<svg width="96" height="96" viewBox="0 0 96 96" fill="none" xmlns="http://www.w3.org/2000/svg">
<path fill-rule="evenodd" clip-rule="evenodd" d="M28.0004 1.97418C28.0146 1.42208 28.4737 0.986076 29.0258 1.00034C31.5966 1.06676 34.1526 1.1616 36.6995 1.25611C43.959 1.52548 51.1457 1.79214 58.3969 1.39043C62.2192 1.17867 66.0609 1.28223 69.8597 1.38463C72.0066 1.4425 74.1398 1.50001 76.248 1.50001C77.5912 1.50001 78.9513 1.63035 80.2465 1.75457L80.2476 1.75468C81.5607 1.88061 82.8055 2.00001 84 2.00001C84.5523 2.00001 85 2.44772 85 3.00001C85 3.55229 84.5523 4.00001 84 4.00001C82.7094 4.00001 81.3841 3.87288 80.1066 3.75034L80.0556 3.74544C78.7441 3.61966 77.4795 3.50001 76.248 3.50001C74.0212 3.50001 71.8377 3.44046 69.6719 3.38139C65.9409 3.27964 62.2627 3.17932 58.5075 3.38736C51.1559 3.79465 43.8349 3.52288 36.5485 3.2524C34.0195 3.15852 31.4947 3.0648 28.9742 2.99967C28.4221 2.98541 27.9861 2.52628 28.0004 1.97418Z" fill="#F4F1ED"/>
<path fill-rule="evenodd" clip-rule="evenodd" d="M27 13C27 12.4477 27.4477 12 28 12C31.6912 12 35.3752 12.1676 39.032 12.334L39.0411 12.3344C42.7086 12.5012 46.3488 12.6667 49.9871 12.6667H71.3882C73.5263 12.6667 75.656 12.7509 77.7556 12.8341L77.7675 12.8346C79.8696 12.9179 81.9412 13 84 13C84.5523 13 85 13.4477 85 14C85 14.5523 84.5523 15 84 15C81.9015 15 79.7967 14.9166 77.7079 14.8338L77.6764 14.8326C75.5705 14.7491 73.4802 14.6667 71.3882 14.6667H49.9871C46.3002 14.6667 42.6191 14.4992 38.9636 14.3329L38.9502 14.3323C35.2828 14.1655 31.6412 14 28 14C27.4477 14 27 13.5523 27 13Z" fill="#F4F1ED"/>
<path fill-rule="evenodd" clip-rule="evenodd" d="M85.4916 2.21866C85.9231 2.56334 85.9935 3.19258 85.6488 3.62411C85.6126 3.66954 85.5212 3.88886 85.5448 4.39006C85.566 4.8387 85.6699 5.3203 85.7709 5.66185C85.9529 6.27698 85.9594 6.94066 85.9392 7.49299C85.9291 7.76948 85.9143 8.00112 85.9008 8.21299C85.8831 8.49124 85.8675 8.73539 85.8675 9.0022C85.8675 11.8765 85.9417 15.0156 86.3032 17.8221C87.1381 24.3025 87.0341 30.9946 86.9324 37.5407C86.8992 39.6768 86.8663 41.7974 86.8663 43.8899C86.8663 53.381 86.5447 62.9091 86.2243 72.3997C86.0985 76.1264 85.973 79.8473 85.8671 83.5579C85.8043 85.7598 84.5422 88.0387 82.9451 89.8173C81.344 91.6004 79.2329 93.0745 77.2192 93.5227C73.1189 94.4353 69.0518 93.8638 65.1137 93.257C63.9592 93.0791 63.1402 92.4832 62.4854 91.782C62.0567 91.323 61.6432 90.7496 61.255 90.2113C61.0961 89.9911 60.9415 89.7767 60.7918 89.5783C59.2754 87.5697 58.7289 85.88 58.2304 83.7581C57.503 80.6618 58.522 77.5284 60.9009 74.9827C62.2014 73.5909 63.463 73.0545 64.8445 72.4672C65.1506 72.337 65.4627 72.2044 65.7823 72.0593C65.9527 71.982 66.1226 71.9037 66.2923 71.8256C67.5641 71.2396 68.821 70.6605 70.1733 70.5427C71.4237 70.4338 72.7504 70.4667 73.9963 70.4976C74.5569 70.5115 75.1011 70.525 75.6147 70.525C75.7339 70.525 75.8555 70.5242 75.9791 70.5235C77.1333 70.5161 78.4684 70.5076 79.7921 71.1168C80.2086 71.3084 80.621 71.4161 81.1269 71.5482C81.1748 71.5607 81.2235 71.5734 81.2732 71.5864C81.8232 71.7308 82.4709 71.9109 83.1249 72.2794C83.449 72.4619 83.7596 72.6824 84.0177 72.8656C84.042 72.8829 84.0658 72.8998 84.0891 72.9164C84.1283 72.9441 84.1662 72.9708 84.203 72.9966C84.2108 72.7638 84.2187 72.5311 84.2265 72.2984C84.5464 62.8208 84.8663 53.345 84.8663 43.8899C84.8663 41.7267 84.8998 39.561 84.9333 37.398C85.034 30.8879 85.1344 24.4019 84.3196 18.0777C83.941 15.1391 83.8675 11.8951 83.8675 9.0022C83.8675 8.70082 83.8903 8.32061 83.911 7.97397C83.9232 7.77002 83.9347 7.57769 83.9405 7.41988C83.9593 6.90659 83.938 6.51626 83.8531 6.22921C83.7218 5.78554 83.5779 5.13945 83.547 4.48416C83.5187 3.88144 83.5712 3.0206 84.0862 2.37591C84.4308 1.94438 85.0601 1.87398 85.4916 2.21866ZM84.1274 75.2468C84.0571 75.2293 83.9877 75.2039 83.9203 75.1702C83.5565 74.988 83.2139 74.7472 82.9332 74.5485L82.8768 74.5085C82.5995 74.312 82.372 74.1507 82.1432 74.0219C81.7316 73.79 81.3025 73.6619 80.7654 73.5209C80.7149 73.5076 80.663 73.4942 80.61 73.4804C80.1252 73.3546 79.5424 73.2034 78.9561 72.9336C78.0555 72.5192 77.1648 72.5214 75.9433 72.5245C75.8364 72.5247 75.7269 72.525 75.6147 72.525C74.9919 72.525 74.3896 72.5097 73.8003 72.4947C72.617 72.4646 71.4862 72.4359 70.3468 72.5351C69.3643 72.6207 68.4479 73.0399 67.1152 73.6496C66.9528 73.7239 66.7842 73.801 66.6086 73.8806C66.2076 74.0626 65.8468 74.2174 65.5163 74.3592C64.1921 74.9274 63.3537 75.2871 62.3622 76.3482C60.3547 78.4964 59.6292 80.9674 60.1774 83.3007C60.6443 85.2881 61.107 86.6765 62.388 88.3733C62.605 88.6607 62.7943 88.9237 62.9695 89.1671C63.3159 89.6484 63.6071 90.0528 63.9472 90.417C64.4086 90.9111 64.8468 91.1923 65.4183 91.2804C69.3899 91.8923 73.1012 92.3903 76.7847 91.5705C78.2546 91.2433 80.023 90.078 81.457 88.481C82.8952 86.8794 83.8241 85.0374 83.8679 83.5009C83.9464 80.7498 84.0355 77.9983 84.1274 75.2468Z" fill="#F4F1ED"/>
<path fill-rule="evenodd" clip-rule="evenodd" d="M27.7495 1.00001C28.3018 1.00001 28.7495 1.44772 28.7495 2.00001C28.7495 5.62547 28.9355 9.2276 29.1233 12.8629L29.1234 12.8661C29.3107 16.492 29.4997 20.1507 29.4997 23.8479C29.4997 28.9304 29.5572 34.1574 29.996 39.1788C30.2046 41.5657 30.19 43.9562 30.1758 46.2919L30.1749 46.44C30.1603 48.8389 30.1511 51.1809 30.3704 53.5015C30.6741 56.7145 30.6107 60.0452 30.5492 63.2757C30.5244 64.5781 30.4999 65.8642 30.4999 67.1198C30.4999 69.0643 30.6226 70.9905 30.7479 72.9486L30.7498 72.9775C30.8739 74.916 31 76.8869 31 78.8775C31 80.5512 30.9091 82.6366 30.3889 84.5321C29.8701 86.4224 28.8774 88.2865 26.9526 89.2655C26.7018 89.3931 26.498 89.5288 26.2506 89.6935C26.0938 89.7979 25.9195 89.9139 25.7046 90.047C25.2223 90.3456 24.6053 90.6731 23.8551 90.7534C22.7487 90.8719 21.5891 91.0822 20.4804 91.3642C18.6178 91.8379 17.211 92.0279 15.7763 91.9967C14.3628 91.966 12.9603 91.7201 11.1427 91.3777C9.03608 90.9809 7.76911 89.8987 7.04056 88.8784C6.68266 88.3772 6.46102 87.9009 6.3275 87.5447C6.26053 87.3661 6.21499 87.2157 6.1852 87.1048C6.17029 87.0493 6.15926 87.0034 6.15143 86.9686C6.14752 86.9512 6.1444 86.9365 6.14198 86.9247L6.13889 86.9092L6.13771 86.9031L6.13722 86.9005L6.137 86.8993C6.137 86.8993 6.13678 86.8982 7.11996 86.7155C6.12214 86.7815 6.12213 86.7814 6.12213 86.7814L6.12128 86.7683L6.11899 86.7324L6.11068 86.5973C6.10369 86.4808 6.09406 86.3133 6.08336 86.1084C6.06199 85.6989 6.0363 85.1374 6.01914 84.5312C5.98625 83.3689 5.97803 81.8852 6.13879 81.0675C6.22674 80.6202 6.24775 80.1563 6.27357 79.5863C6.28658 79.299 6.30081 78.9848 6.32546 78.6321C6.39376 77.6547 6.5454 76.5272 7.06731 75.3887C8.14247 73.0431 10.1095 71.5242 12.1259 70.5685C14.1414 69.6131 16.282 69.1821 17.8573 69.0486C21.1531 68.7692 24.5761 68.7044 27.8206 69.8046C28.3436 69.9819 28.6239 70.5497 28.4465 71.0727C28.2691 71.5958 27.7014 71.876 27.1783 71.6986C24.3443 70.7376 21.2684 70.7666 18.0263 71.0414C16.6304 71.1598 14.7341 71.5455 12.9826 72.3757C11.232 73.2055 9.70193 74.4408 8.8854 76.2221C8.51105 77.0387 8.38244 77.8864 8.32059 78.7715C8.30467 78.9994 8.29329 79.2453 8.28152 79.4996C8.25143 80.15 8.21879 80.8554 8.10122 81.4534C7.99201 82.0088 7.98377 83.2527 8.01834 84.4746C8.03492 85.0605 8.05984 85.6054 8.08064 86.0042C8.09104 86.2033 8.10038 86.3655 8.1071 86.4776L8.11285 86.5713C8.11405 86.5759 8.11535 86.5808 8.11675 86.586C8.13162 86.6414 8.15803 86.7301 8.20023 86.8427C8.28505 87.0689 8.43061 87.3835 8.66818 87.7161C9.13054 88.3636 9.96753 89.1212 11.513 89.4123C13.3476 89.7579 14.5949 89.9706 15.8197 89.9972C17.0235 90.0233 18.2436 89.8694 19.9875 89.4259C21.1848 89.1214 22.4379 88.8937 23.6422 88.7648C23.9395 88.7329 24.2463 88.5976 24.6518 88.3465C24.7517 88.2847 24.8725 88.205 25.006 88.1169C25.3185 87.9106 25.7005 87.6585 26.0459 87.4828C27.2542 86.8682 28.0119 85.6363 28.4602 84.0028C28.9071 82.3745 29 80.5085 29 78.8775C29 76.9516 28.8774 75.035 28.752 73.0764L28.7519 73.0747C28.6272 71.1269 28.4999 69.1381 28.4999 67.1198C28.4999 65.7801 28.5254 64.4449 28.5508 63.1158C28.6116 59.9324 28.6718 56.7836 28.3793 53.6897C28.1491 51.2537 28.1605 48.8133 28.1749 46.4279L28.1756 46.3196C28.1899 43.9556 28.2039 41.6457 28.0036 39.3529C27.5566 34.2378 27.4997 28.9357 27.4997 23.8479C27.4997 20.2097 27.3137 16.6012 27.1259 12.966L27.1248 12.9441C26.9379 9.32453 26.7495 5.67823 26.7495 2.00001C26.7495 1.44772 27.1972 1.00001 27.7495 1.00001ZM7.11996 86.7155L6.12213 86.7814L6.12603 86.8403L6.13678 86.8982L7.11996 86.7155Z" fill="#F4F1ED"/>
</svg>
