<svg width="96" height="96" viewBox="0 0 96 96" fill="none" xmlns="http://www.w3.org/2000/svg">
<path fill-rule="evenodd" clip-rule="evenodd" d="M60.3336 32.0896C62.8256 32.1337 65.3032 32.1774 67.7503 32.1774C68.524 32.1774 69.2092 32.2673 69.7585 32.5465C70.3771 32.8609 70.7249 33.363 70.8819 33.9387C71.0193 34.4427 71.0088 35.0027 70.9877 35.4862C70.9808 35.6432 70.9724 35.798 70.9639 35.9536C70.9436 36.3267 70.923 36.7051 70.923 37.1338C70.923 37.6809 70.9334 38.2482 70.9442 38.8278C70.9748 40.4871 71.0074 42.2479 70.8011 43.9282C70.6377 45.2602 70.3945 46.5583 70.1594 47.8127C70.0806 48.2332 70.0028 48.6488 69.9291 49.0591C69.6319 50.7156 69.3935 52.3323 69.3792 54.0304C69.3588 56.4589 69.3656 58.8835 69.3724 61.3144C69.3758 62.5328 69.3792 63.7528 69.3792 64.9758C69.3792 68.0866 69.2411 71.2312 69.1042 74.3503C69.0073 76.557 68.9109 78.751 68.8644 80.9112C68.8449 81.8215 68.5232 82.5699 67.8875 83.0765C67.3005 83.5443 66.5724 83.7012 65.9417 83.7533C65.2993 83.8065 64.6178 83.7602 64.0284 83.71C63.8958 83.6987 63.769 83.6874 63.6476 83.6765C63.1942 83.6359 62.816 83.6021 62.4903 83.6021C54.8708 83.6021 47.2927 83.7381 39.7027 83.8743C33.5579 83.9846 27.4053 84.095 21.2168 84.1335C20.8608 84.1358 19.7223 84.2216 18.1014 84.3437C17.9198 84.3574 17.7322 84.3716 17.539 84.3861C15.6549 84.5278 13.2999 84.7008 10.9979 84.8269C8.70227 84.9526 6.43227 85.0334 4.7259 84.9865C3.88128 84.9633 3.12489 84.908 2.55964 84.7965C2.28626 84.7427 1.98241 84.662 1.72267 84.5223C1.49709 84.4009 1 84.061 1 83.3993V78.882C1 71.8198 1.25624 64.642 1.51251 57.4635L1.5152 57.3881C1.7726 50.178 2.02914 42.967 2.02914 35.8347C2.02914 35.2824 2.47685 34.8347 3.02914 34.8347C3.58142 34.8347 4.02914 35.2824 4.02914 35.8347C4.02914 43.0087 3.77111 50.2554 3.51393 57.4594L3.51189 57.5166C3.25517 64.7077 3 71.8556 3 78.882V82.8445C3.39711 82.9169 3.99842 82.9658 4.78081 82.9873C6.40053 83.0318 8.60211 82.9551 10.8885 82.8299C13.1684 82.705 15.5057 82.5333 17.389 82.3917C17.6018 82.3757 17.8097 82.36 18.0118 82.3448C19.5654 82.2275 20.7734 82.1363 21.2043 82.1336C27.3242 82.0955 33.4711 81.9855 39.6238 81.8753C47.2503 81.7388 54.8858 81.6021 62.4903 81.6021C62.9149 81.6021 63.412 81.6469 63.8758 81.6887C63.9856 81.6986 64.0936 81.7083 64.1983 81.7172C64.7834 81.7671 65.3173 81.7982 65.7768 81.7602C66.2479 81.7212 66.508 81.6184 66.641 81.5124C66.7254 81.4452 66.8555 81.3057 66.8649 80.8682C66.9137 78.5982 67.012 76.3773 67.1097 74.1698C67.245 71.1111 67.3792 68.078 67.3792 64.9758C67.3792 63.765 67.3758 62.551 67.3724 61.3354C67.3656 58.8975 67.3587 56.4528 67.3793 54.0136C67.395 52.1436 67.6576 50.3942 67.9606 48.7058C68.04 48.2631 68.1217 47.8273 68.2026 47.395C68.4345 46.1574 68.6609 44.9483 68.816 43.6846C69.0037 42.1555 68.9752 40.6062 68.9455 38.9916C68.9343 38.3824 68.923 37.764 68.923 37.1338C68.923 36.6469 68.9483 36.1817 68.9695 35.792C68.9772 35.6501 68.9844 35.5181 68.9896 35.3989C69.0113 34.9021 68.9979 34.6319 68.9524 34.4648C68.9263 34.3694 68.9112 34.3593 68.8522 34.3294C68.724 34.2642 68.4173 34.1774 67.7503 34.1774C65.2262 34.1774 62.7076 34.1328 60.1953 34.0882C54.8614 33.9936 49.556 33.8996 44.2866 34.2345C42.7003 34.3353 41.1086 34.4793 39.5087 34.6241C35.8502 34.9551 32.1487 35.29 28.3699 35.1212C22.5621 34.8619 16.7838 34.7089 10.9763 34.7089H5.08741C4.53512 34.7089 4.08741 34.2612 4.08741 33.7089C4.08741 33.1566 4.53512 32.7089 5.08741 32.7089H10.9763C16.8189 32.7089 22.6274 32.8628 28.4591 33.1232C32.0995 33.2858 35.5802 32.9702 39.1719 32.6446C40.8031 32.4967 42.4573 32.3467 44.1597 32.2385C49.5103 31.8984 54.9555 31.9946 60.3336 32.0896Z" fill="#F4F1ED"/>
<path fill-rule="evenodd" clip-rule="evenodd" d="M3.88763 37.539C3.67842 37.1353 3.21207 36.9138 2.75266 37.0311C2.21754 37.1677 1.89447 37.7122 2.03107 38.2473C2.14412 38.6902 2.46377 38.9705 2.65313 39.1139C2.87321 39.2805 3.13358 39.4207 3.38715 39.5385C3.89894 39.7764 4.53816 39.9938 5.15888 40.1819C5.78717 40.3722 6.43392 40.5435 6.97284 40.6834C7.0792 40.711 7.17987 40.737 7.27457 40.7615C7.67936 40.8661 7.975 40.9425 8.13896 40.9939C9.26499 41.3468 10.3591 41.8816 11.5216 42.4699C11.6224 42.5209 11.7238 42.5724 11.8257 42.6241C12.8765 43.1575 13.9897 43.7225 15.1497 44.1506C15.6025 44.3177 16.0638 44.4908 16.5319 44.6665C18.9832 45.5864 21.6202 46.576 24.1923 47.1357C25.2171 47.3588 26.2904 47.7577 27.4275 48.2353C27.8749 48.4231 28.3505 48.6315 28.8357 48.8442C29.5293 49.1481 30.2425 49.4607 30.9204 49.7339C33.2649 50.6788 35.8707 51.4577 38.4332 50.6855C41.9377 49.6294 45.2796 48.1454 48.5506 46.6719C48.7059 46.6019 48.861 46.532 49.0161 46.4621C52.144 45.052 55.2107 43.6695 58.3847 42.6333C59.1792 42.374 60.1196 41.9694 61.0498 41.5692C61.51 41.3712 61.9676 41.1743 62.4039 40.9966C63.8159 40.4215 65.0577 40.0198 66 40.0198C66.5523 40.0198 67 39.5721 67 39.0198C67 38.4675 66.5523 38.0198 66 38.0198C64.6208 38.0198 63.0465 38.5753 61.6494 39.1444C61.1186 39.3606 60.6135 39.5783 60.1332 39.7854C59.2642 40.16 58.4762 40.4996 57.764 40.7321C54.4839 41.8029 51.3265 43.2265 48.2237 44.6254C48.0586 44.6998 47.8938 44.7742 47.7291 44.8484C44.4483 46.3264 41.2183 47.7574 37.8561 48.7705C36.0056 49.3282 33.9739 48.8082 31.668 47.8789C30.9943 47.6073 30.3531 47.3258 29.6986 47.0385C29.2133 46.8254 28.7207 46.6091 28.202 46.3913C27.0339 45.9007 25.8252 45.4443 24.6176 45.1815C22.2007 44.6555 19.7252 43.7274 17.2712 42.8073C16.7938 42.6283 16.3172 42.4496 15.8421 42.2743C14.7972 41.8887 13.7869 41.3763 12.717 40.8336C12.6201 40.7844 12.5227 40.735 12.4247 40.6854C11.2685 40.1002 10.0397 39.4937 8.73707 39.0854C8.51954 39.0172 8.15472 38.923 7.74747 38.8179C7.65841 38.7949 7.56733 38.7714 7.47531 38.7475C6.94046 38.6087 6.32632 38.4458 5.73875 38.2678C5.14361 38.0875 4.61201 37.9024 4.23014 37.7249C4.06287 37.6471 3.95261 37.5837 3.88763 37.539ZM3.84422 37.5066C3.83453 37.4986 3.83115 37.4944 3.83115 37.4944C3.83115 37.4944 3.83648 37.4984 3.84422 37.5066Z" fill="#F4F1ED"/>
<path fill-rule="evenodd" clip-rule="evenodd" d="M57 7C57.5523 7 58 7.44772 58 8V24C58 24.5523 57.5523 25 57 25C56.4477 25 56 24.5523 56 24V8C56 7.44772 56.4477 7 57 7Z" fill="#F4F1ED"/>
<path fill-rule="evenodd" clip-rule="evenodd" d="M82.8989 14.5618C83.1409 15.0582 82.9346 15.6569 82.4382 15.8989C81.5774 16.3185 80.8417 17.241 80.0272 18.2624C80.0109 18.2827 79.9946 18.3032 79.9783 18.3236C79.636 18.7528 79.1484 19.264 78.639 19.7863C78.4971 19.9317 78.3527 20.0789 78.2067 20.2277C77.8135 20.6284 77.4093 21.0403 77.0155 21.4589C76.4763 22.032 75.9852 22.5879 75.6098 23.0935C75.2168 23.6228 75.0258 23.9992 74.975 24.2222C74.8523 24.7607 74.3163 25.0977 73.7778 24.975C73.2393 24.8523 72.9023 24.3163 73.025 23.7778C73.1726 23.1304 73.5771 22.4762 74.004 21.9012C74.4486 21.3025 75.0018 20.6805 75.5589 20.0884C75.9682 19.6533 76.395 19.2184 76.7925 18.8133C76.9352 18.6679 77.0742 18.5263 77.2072 18.3899C77.7251 17.8588 78.144 17.4159 78.4148 17.0764C78.4631 17.0159 78.5127 16.9533 78.5637 16.889C79.2824 15.9828 80.2786 14.7267 81.5618 14.1011C82.0582 13.8591 82.6569 14.0654 82.8989 14.5618Z" fill="#F4F1ED"/>
<path fill-rule="evenodd" clip-rule="evenodd" d="M79 36C79 35.4477 79.4477 35 80 35H94C94.5523 35 95 35.4477 95 36C95 36.5523 94.5523 37 94 37H80C79.4477 37 79 36.5523 79 36Z" fill="#F4F1ED"/>
</svg>
