<svg width="96" height="96" viewBox="0 0 96 96" fill="none" xmlns="http://www.w3.org/2000/svg">
<path fill-rule="evenodd" clip-rule="evenodd" d="M78.6307 3.86487L79.269 4.63467L79.3046 4.60516L79.3367 4.57308L79.3389 4.57091L79.3508 4.55927C79.362 4.5483 79.3797 4.53111 79.4034 4.50859C79.4507 4.4635 79.5213 4.39737 79.6104 4.31726C79.7898 4.15603 80.0387 3.94324 80.3196 3.73285C80.507 3.59253 80.7001 3.45974 80.8894 3.34586C80.8542 3.51732 80.815 3.68556 80.7782 3.83551C80.7513 3.9455 80.7265 4.04227 80.7057 4.12312L80.6965 4.15924C80.6809 4.21972 80.6565 4.31472 80.6449 4.37886C80.2164 6.75605 80.2253 9.15957 80.2339 11.4676C80.2351 11.7887 80.2363 12.1079 80.2363 12.425C80.2363 14.5597 80.0873 16.6424 79.9345 18.7788C79.8806 19.5324 79.8263 20.2927 79.7778 21.0644C79.6487 23.1191 79.6839 25.2284 79.7181 27.2815C79.7335 28.2046 79.7487 29.1164 79.7487 30.0067C79.7487 33.7048 79.5866 37.3698 79.4224 41.083C79.4005 41.5786 79.3785 42.075 79.3569 42.5725C79.2747 44.4644 79.0517 46.3199 78.8228 48.2238C78.7489 48.8386 78.6744 49.4583 78.6038 50.086C78.5366 50.6833 78.4856 51.2585 78.4357 51.8202C78.3362 52.9408 78.2415 54.0079 78.0332 55.0907C77.6653 57.0034 77.535 58.8652 77.4057 60.7125C77.3844 61.0177 77.3631 61.3225 77.3407 61.6271C77.2125 63.3721 77.1004 65.2016 77.0673 66.9684C77.0579 67.4735 77.0065 67.9755 76.9501 68.5273L76.9423 68.6036C76.8993 69.0249 76.8546 69.4745 76.8344 69.9401C76.7478 69.9202 76.6519 69.8961 76.5448 69.8685C76.5277 69.8641 76.5098 69.8595 76.4912 69.8546C76.2965 69.8041 76.0219 69.7328 75.7873 69.7083C75.1808 69.6451 74.5844 69.5126 73.9219 69.3655C73.8243 69.3438 73.7253 69.3218 73.6246 69.2997C72.8666 69.1331 72.0276 68.9623 71.1466 68.9383C68.564 68.8679 65.9004 68.1956 63.2542 67.5278C63.172 67.507 63.0898 67.4863 63.0076 67.4656C62.5016 67.338 61.96 67.2427 61.4589 67.1545C61.3213 67.1303 61.1867 67.1067 61.0567 67.083C60.4248 66.968 59.8657 66.848 59.3744 66.6649C57.7444 66.0573 56.0124 65.6898 54.4014 65.3648C54.2652 65.3373 54.1334 65.3118 54.0063 65.2872C53.4137 65.1726 52.9226 65.0776 52.5548 64.8921C52.2787 64.7528 52.0065 64.6766 51.8034 64.6241C51.7401 64.6077 51.6851 64.5939 51.6358 64.5815C51.5039 64.5484 51.4124 64.5255 51.3133 64.4913C49.6728 63.9252 48.0213 63.3957 46.3048 62.9701C45.4018 62.7462 44.446 62.5522 43.511 62.3625C42.9565 62.25 42.4094 62.1389 41.885 62.024C40.4329 61.7059 39.0533 61.3397 37.7836 60.7842C36.2835 60.1279 34.7258 59.6207 33.1981 59.1495C32.8783 59.0509 32.5605 58.954 32.2447 58.8578C31.0364 58.4895 29.8571 58.13 28.7024 57.7133C27.976 57.4511 27.239 57.1753 26.4936 56.8964C24.2602 56.0606 21.951 55.1966 19.624 54.5856C19.3419 54.5116 19.0842 54.3611 18.7099 54.118C18.6821 54.0999 18.6533 54.0811 18.6237 54.0617C18.2923 53.845 17.8449 53.5524 17.3187 53.3755C16.7952 53.1995 16.2282 53.4812 16.0521 54.0047C15.8761 54.5282 16.1578 55.0952 16.6813 55.2712C16.9565 55.3637 17.201 55.5226 17.5874 55.7737L17.6203 55.7951C17.9897 56.035 18.4888 56.3554 19.1162 56.5201C21.3361 57.1029 23.5075 57.9153 25.7153 58.7413C26.4792 59.027 27.2474 59.3144 28.0234 59.5945C29.2305 60.0302 30.472 60.4085 31.6859 60.7784C31.9956 60.8728 32.3036 60.9666 32.6087 61.0607C34.1255 61.5285 35.5919 62.0083 36.982 62.6165C38.4326 63.2511 39.9635 63.6505 41.4569 63.9777C42.0502 64.1077 42.6243 64.2239 43.1874 64.3379C44.0828 64.5192 44.9505 64.6949 45.8235 64.9113C47.4572 65.3164 49.0453 65.8244 50.6609 66.3819C50.8506 66.4474 51.0563 66.4987 51.2052 66.5358C51.2414 66.5448 51.2742 66.553 51.3027 66.5604C51.477 66.6054 51.5775 66.6392 51.6541 66.6778C52.2988 67.0029 53.1354 67.1604 53.7195 67.2702C53.8239 67.2899 53.9202 67.308 54.0059 67.3253C55.6231 67.6516 57.2117 67.9931 58.6758 68.5389C59.3444 68.7881 60.0523 68.933 60.6985 69.0507C60.8561 69.0794 61.0089 69.1063 61.1576 69.1325C61.6458 69.2185 62.0902 69.2968 62.5186 69.4048C62.6265 69.4321 62.7349 69.4594 62.8437 69.4869C65.4275 70.1396 68.2831 70.861 71.0921 70.9375C71.7665 70.9559 72.4431 71.0877 73.1952 71.253C73.2882 71.2735 73.3828 71.2945 73.4788 71.3159C74.1317 71.4614 74.8499 71.6214 75.5797 71.6975C75.6514 71.705 75.7782 71.7363 76.0456 71.8052C76.2677 71.8624 76.5779 71.9423 76.8807 71.9787C77.151 72.0112 77.6208 72.0392 78.0548 71.806C78.6091 71.5081 78.8234 70.9587 78.8234 70.4297C78.8234 69.9047 78.8734 69.3804 78.932 68.8068C78.9353 68.7739 78.9387 68.7409 78.9421 68.7077C78.9966 68.1757 79.0559 67.597 79.067 67.0058C79.099 65.293 79.2081 63.5057 79.3353 61.7736C79.3586 61.4568 79.3805 61.1443 79.4022 60.8352C79.5323 58.9831 79.6538 57.2536 79.9972 55.4685C80.2244 54.2874 80.3354 53.0446 80.4407 51.8665C80.4886 51.3301 80.5353 50.8071 80.5913 50.3095C80.658 49.7164 80.7299 49.1186 80.8022 48.5169C81.0333 46.5957 81.2692 44.6347 81.355 42.6593C81.3766 42.1636 81.3985 41.6679 81.4204 41.1721C81.5845 37.4637 81.7487 33.7521 81.7487 30.0067C81.7487 29.0435 81.7327 28.0923 81.7169 27.1493C81.683 25.1381 81.6498 23.1643 81.7738 21.1898C81.8199 20.4566 81.8726 19.72 81.9256 18.98C82.0799 16.8231 82.2363 14.6374 82.2363 12.425C82.2363 12.0983 82.2352 11.7742 82.2342 11.4522C82.2266 9.12635 82.2194 6.9181 82.6132 4.73364C82.6121 4.73947 82.6116 4.74312 82.6116 4.74312C82.6116 4.74312 82.6181 4.71723 82.6384 4.63799L82.6433 4.61904C82.6639 4.53863 82.6911 4.43243 82.7207 4.31175C82.7842 4.05287 82.8625 3.71147 82.9195 3.36787C82.9731 3.04491 83.0228 2.63722 82.9887 2.27739C82.9725 2.10604 82.9285 1.83212 82.768 1.57386C82.5703 1.25588 82.212 1 81.7434 1C81.2059 1 80.6919 1.1936 80.2851 1.3967C79.8621 1.60787 79.4591 1.8786 79.1207 2.13201C78.7791 2.38784 78.4832 2.64127 78.2736 2.8297C78.1682 2.92442 78.0831 3.00399 78.0235 3.06087C77.9985 3.08462 77.978 3.10448 77.9621 3.1199L77.9426 3.13584C77.9085 3.16356 77.8584 3.20396 77.7963 3.25319C77.6716 3.3521 77.501 3.4845 77.3156 3.62042C77.1282 3.75776 76.9362 3.89099 76.7666 3.99541C76.5914 4.10335 76.5038 4.14029 76.4916 4.14544L76.4902 4.14607C75.8124 4.33835 75.1308 4.80282 74.6143 5.16415C74.5227 5.22826 74.435 5.29006 74.3508 5.34937C73.8887 5.67482 73.5338 5.92489 73.23 6.06568C72.7967 6.26646 72.3878 6.57349 72.063 6.82774C71.9668 6.90304 71.8775 6.974 71.7933 7.04088C71.5601 7.22622 71.3664 7.38019 71.1743 7.50822C70.6879 7.83237 70.2319 8.19321 69.812 8.5255C69.7817 8.54946 69.7516 8.57328 69.7217 8.59692C69.2648 8.95811 68.8449 9.28505 68.4028 9.56586C68.2021 9.69331 68.0033 9.8108 67.7897 9.93699C67.7306 9.97193 67.6704 10.0075 67.6086 10.0442C67.3324 10.2083 67.0363 10.3881 66.7411 10.5942C66.4759 10.7794 66.2819 10.9931 66.1535 11.1359L66.1276 11.1648C65.9994 11.3075 65.9365 11.3775 65.8604 11.4398C65.4122 11.8072 64.9682 12.0526 64.3772 12.3793C64.3027 12.4205 64.2258 12.463 64.1463 12.5072C63.404 12.9198 62.7491 13.488 62.1754 14.0247C61.9747 14.2124 61.7877 14.3922 61.6083 14.5648C61.2441 14.9151 60.9111 15.2353 60.5585 15.53C59.5226 16.3958 58.5607 17.2776 57.6165 18.1483C57.5509 18.2087 57.4855 18.2691 57.4201 18.3295C56.539 19.1423 55.6702 19.9438 54.7449 20.7365C53.8908 21.4682 53.0263 22.1519 52.1469 22.8474C51.7571 23.1557 51.3643 23.4663 50.9683 23.7844C49.6949 24.8071 48.4184 25.8841 47.2316 27.1221C46.4001 27.9894 45.4529 28.7371 44.4398 29.5105C44.3251 29.5981 44.2094 29.6861 44.0929 29.7747C43.1978 30.4555 42.2567 31.1713 41.3878 31.9793C40.5756 32.7347 40.0776 33.1382 39.3116 33.7589C39.2297 33.8253 39.1447 33.8941 39.0559 33.9662C38.1316 34.7163 36.8318 35.7843 34.3938 37.9241C31.9507 40.0684 30.987 40.8804 30.307 41.3583C29.9025 41.6425 29.6271 41.7932 29.1869 42.0342C28.8676 42.2089 28.4616 42.4312 27.8567 42.7863C26.1828 43.7688 24.9934 44.903 23.8852 45.987C23.8235 46.0473 23.7621 46.1074 23.701 46.1673C22.6545 47.1924 21.668 48.1587 20.3294 49.042C19.8957 49.3282 19.4593 49.6387 19.0387 49.9379C18.8792 50.0514 18.722 50.1633 18.568 50.2716C17.9937 50.6756 17.4414 51.0477 16.8806 51.3588C16.3976 51.6267 16.2233 52.2354 16.4912 52.7183C16.7592 53.2013 17.3679 53.3756 17.8508 53.1077C18.508 52.743 19.1311 52.3208 19.7187 51.9074C19.8922 51.7853 20.061 51.6653 20.2268 51.5473C20.6364 51.2559 21.0285 50.9769 21.431 50.7114C22.9352 49.7187 24.0473 48.6285 25.0778 47.6184C25.1468 47.5508 25.2153 47.4836 25.2837 47.4167C26.3811 46.3432 27.4222 45.3604 28.8691 44.5111C29.327 44.2423 29.6981 44.0375 30.0241 43.8577C30.5619 43.5609 30.9771 43.3318 31.4569 42.9947C32.2453 42.4406 33.3009 41.5445 35.7131 39.4272C38.1304 37.3055 39.4105 36.2542 40.3163 35.5191C40.4046 35.4473 40.4898 35.3784 40.5723 35.3115C41.3409 34.6888 41.8862 34.247 42.7498 33.4439C43.5413 32.7079 44.3994 32.0549 45.3032 31.367C45.4192 31.2788 45.5359 31.1899 45.6534 31.1003C46.6687 30.3251 47.7264 29.4959 48.6753 28.5062C49.7714 27.3628 50.9678 26.35 52.2207 25.3437C52.5914 25.0459 52.97 24.7465 53.3525 24.444C54.2462 23.7371 55.1613 23.0134 56.0461 22.2553C57.0005 21.4376 57.8951 20.6123 58.7712 19.8041C58.8383 19.7421 58.9054 19.6803 58.9723 19.6186C59.9173 18.7472 60.8468 17.8956 61.8411 17.0646C62.2478 16.7247 62.6659 16.3229 63.0573 15.9468C63.2246 15.786 63.387 15.63 63.5415 15.4854C64.0921 14.9704 64.6 14.5432 65.1179 14.2553C65.1925 14.2139 65.2678 14.1724 65.3436 14.1307C65.9206 13.8127 66.5297 13.4772 67.1282 12.9867C67.3307 12.8208 67.4969 12.6344 67.6052 12.5128C67.6179 12.4986 67.6298 12.4853 67.6409 12.473C67.764 12.336 67.8261 12.2759 67.8862 12.234C68.1182 12.072 68.3619 11.923 68.63 11.7637C68.6829 11.7323 68.7373 11.7002 68.7928 11.6674C69.0099 11.5391 69.2444 11.4006 69.475 11.2541C70.0154 10.9109 70.5099 10.5233 70.9621 10.1658L71.0373 10.1064C71.4719 9.76261 71.8676 9.44962 72.2834 9.17249C72.5521 8.99341 72.8406 8.7639 73.0907 8.56495C73.1626 8.50768 73.2314 8.45295 73.2957 8.40268C73.621 8.14803 73.8692 7.97379 74.071 7.88027C74.5553 7.6558 75.0902 7.27709 75.5386 6.95965C75.6154 6.90525 75.6897 6.85265 75.7608 6.80293C76.3246 6.40851 76.7361 6.15525 77.036 6.07014C77.3184 5.99004 77.6051 5.8279 77.8155 5.69833C78.0486 5.55476 78.2884 5.3871 78.498 5.23348C78.7095 5.07843 78.9009 4.92979 79.0389 4.8204C79.1081 4.76548 79.1646 4.71992 79.2042 4.68771L79.2507 4.64979L79.2635 4.6392L79.269 4.63467C79.269 4.63467 79.269 4.63467 78.6307 3.86487Z" fill="#F4F1ED"/>
<path fill-rule="evenodd" clip-rule="evenodd" d="M42.2521 64C42.8044 64 43.2521 64.4477 43.2521 65C43.2521 65.7649 43.2543 66.532 43.2566 67.3007C43.266 70.5412 43.2756 73.811 43.1179 77.0739C43.1035 77.3706 43.0866 77.6537 43.0702 77.9294C43.0639 78.0342 43.0577 78.1379 43.0517 78.2409C43.0681 78.2318 43.0844 78.2227 43.1007 78.2137C43.1188 78.2036 43.1369 78.1936 43.1548 78.1837C43.5024 77.991 43.8162 77.8171 44.1139 77.626C45.9541 76.4448 47.7162 75.2546 49.358 73.8901C49.7568 73.5586 50.1594 73.2139 50.5681 72.8639C51.8124 71.7985 53.1128 70.685 54.5322 69.7527C54.6568 69.6708 54.8086 69.5789 54.9526 69.4918C54.9828 69.4735 55.0127 69.4554 55.0419 69.4376C55.2211 69.3288 55.3982 69.2193 55.5641 69.1065C55.7317 68.9926 55.8694 68.8876 55.9725 68.7929C56.0705 68.7029 56.1034 68.653 56.1078 68.6462C56.3578 68.1537 56.9601 67.9565 57.4526 68.2065C57.945 68.4564 58.1417 69.0583 57.8917 69.5508C57.6141 70.0978 57.0589 70.5087 56.6886 70.7605C56.4777 70.9038 56.2638 71.0355 56.0803 71.1469C56.0435 71.1693 56.0086 71.1904 55.9754 71.2106C55.8328 71.2969 55.7212 71.3646 55.6302 71.4243C54.3266 72.2805 53.1646 73.2753 51.9463 74.3181C51.5194 74.6835 51.0856 75.0548 50.6364 75.4282C48.8983 76.8727 47.0535 78.1157 45.1942 79.3091C44.8401 79.5364 44.4733 79.7396 44.1392 79.9248C44.1162 79.9375 44.0933 79.9502 44.0706 79.9628C43.7074 80.1642 43.3818 80.3472 43.0798 80.5485C43.0468 80.5705 43.0178 80.5933 42.9606 80.6383C42.9498 80.6468 42.9381 80.656 42.9251 80.6662C42.9229 80.6679 42.9201 80.6702 42.9166 80.673C42.8692 80.7108 42.7055 80.8415 42.5143 80.9182C42.3981 80.9648 42.147 81.0448 41.8403 80.9686C41.4923 80.8821 41.2765 80.6487 41.1646 80.4492C41.0669 80.2749 41.0341 80.1067 41.02 80.0103C41.0042 79.9025 41 79.7962 41 79.7025C41 79.0415 41.0397 78.3758 41.0774 77.7431C41.093 77.4813 41.1082 77.2252 41.1202 76.9773C41.2752 73.7707 41.2659 70.5647 41.2566 67.3283C41.2543 66.5541 41.2521 65.7781 41.2521 65C41.2521 64.4477 41.6998 64 42.2521 64Z" fill="#F4F1ED"/>
<path fill-rule="evenodd" clip-rule="evenodd" d="M81.4469 3.10542C81.941 3.35225 82.1414 3.95286 81.8946 4.44692C81.6603 4.91588 81.2005 5.71091 80.716 6.54864C80.5747 6.79285 80.4314 7.04068 80.2909 7.28513C79.6358 8.42534 79.0539 9.4738 78.8483 10.0009C78.1485 11.7941 77.7332 12.6675 77.1932 13.493C76.9386 13.882 76.6614 14.2526 76.3383 14.6845L76.3113 14.7205C75.973 15.1727 75.5662 15.7173 75.0358 16.4747C74.6059 17.0886 73.8513 18.446 73.1129 19.8882C72.3775 21.3247 71.7105 22.743 71.443 23.457C71.061 24.4764 70.5164 25.3759 69.9803 26.1983C69.8345 26.4219 69.6913 26.6373 69.5511 26.8479C69.159 27.4373 68.7915 27.9898 68.4629 28.5823C66.7312 31.7058 64.7391 34.8134 62.707 37.7649C61.7853 39.1036 60.8281 40.2516 59.9172 41.3443C59.7722 41.5181 59.6285 41.6905 59.4862 41.8621C58.4413 43.1223 57.4603 44.355 56.5777 45.8493C55.6858 47.3591 54.7931 48.6052 53.9901 49.726C53.9367 49.8006 53.8837 49.8746 53.8311 49.948C52.9796 51.1379 52.2514 52.1771 51.6746 53.3106C50.6637 55.2973 49.5895 56.4552 48.287 57.8593C48.0973 58.0638 47.9027 58.2735 47.7028 58.4917C47.0699 59.1828 46.3793 59.8117 45.7274 60.4054C45.6611 60.4657 45.5953 60.5256 45.53 60.5853L45.5266 60.5884C45.3756 60.7262 45.2239 60.8646 45.1007 61.0095C45.0406 61.0801 45.0048 61.1325 44.9865 61.1653C44.8995 61.6851 44.4199 62.0528 43.8897 61.9939C43.3407 61.933 42.9452 61.4386 43.0061 60.8897C43.0647 60.3616 43.3827 59.9424 43.5771 59.7138C43.7849 59.4695 44.0196 59.2557 44.157 59.1305C44.1657 59.1226 44.174 59.1151 44.1819 59.1079C44.246 59.0494 44.3098 58.9913 44.3732 58.9335C45.0361 58.3295 45.6596 57.7614 46.228 57.1409C46.4379 56.9117 46.6376 56.696 46.8285 56.4899C48.1278 55.0865 49.014 54.1293 49.8921 52.4036C50.5464 51.1178 51.3598 49.9647 52.2047 48.7841C52.2552 48.7136 52.3058 48.6429 52.3566 48.572C53.1642 47.4445 54.01 46.2636 54.8557 44.8321C55.823 43.1944 56.889 41.8611 57.9466 40.5855C58.0941 40.4076 58.2412 40.2312 58.3877 40.0553C59.3005 38.9602 60.1941 37.8879 61.0597 36.6307C63.0682 33.7135 65.0227 30.6627 66.7138 27.6126C67.0851 26.9428 67.5173 26.2933 67.9219 25.6855C68.0535 25.4877 68.1822 25.2943 68.3049 25.1061C68.8222 24.3125 69.2677 23.5623 69.5701 22.7552C69.8813 21.9246 70.5949 20.4179 71.3327 18.9768C72.0675 17.5415 72.8785 16.0686 73.3975 15.3275C73.9466 14.5435 74.3687 13.9785 74.7099 13.5224L74.7127 13.5187C75.056 13.0597 75.2999 12.7338 75.5195 12.398C75.9432 11.7505 76.2984 11.0335 76.9851 9.27385C77.2581 8.57426 77.9326 7.37502 78.5568 6.2887C78.713 6.01699 78.8672 5.75023 79.0152 5.49422C79.4902 4.67277 79.9012 3.96194 80.1054 3.55308C80.3523 3.05902 80.9529 2.8586 81.4469 3.10542Z" fill="#F4F1ED"/>
<path fill-rule="evenodd" clip-rule="evenodd" d="M25.7185 70.0092C26.2658 69.9346 26.7698 70.3177 26.8444 70.865C27.0807 72.5991 27.0671 74.1814 26.6698 75.6966C26.2707 77.2186 25.5011 78.6102 24.3142 79.9864C23.5 80.9306 22.433 82.0968 21.231 83.0916C20.044 84.074 18.6344 84.9669 17.1302 85.2428C17.1252 85.2438 17.1201 85.2447 17.115 85.2456C16.0238 87.9768 14.3764 90.4506 12.4136 92.537C11.9243 93.0572 11.3927 93.4431 10.9283 93.7718C10.8856 93.8021 10.8435 93.8318 10.802 93.8611C10.3748 94.1628 10.0165 94.4158 9.68623 94.7274C9.28451 95.1064 8.65161 95.088 8.27262 94.6862C7.89362 94.2845 7.91205 93.6516 8.31377 93.2726C8.75343 92.8578 9.2287 92.5229 9.63959 92.2334C9.68482 92.2016 9.72928 92.1702 9.77283 92.1394C10.2312 91.8149 10.617 91.5279 10.9569 91.1667C12.7237 89.2885 14.195 87.0889 15.1834 84.6867C14.7165 84.3426 14.2948 83.8829 13.9387 83.4254C13.1973 82.4731 12.5948 81.3404 12.3437 80.6969C11.96 79.714 11.7589 78.6056 11.955 77.5538C12.1586 76.4622 12.7846 75.4846 13.9278 74.8624C14.9902 74.2842 16.0642 74.0523 16.9858 74.5405C17.871 75.0095 18.2327 75.9498 18.3907 76.7337C18.7138 78.337 18.4197 80.4602 18.1779 81.6764C18.0957 82.0902 18.0003 82.4999 17.8924 82.9052C18.5665 82.5935 19.2619 82.1252 19.9557 81.5509C21.0283 80.6632 22.0093 79.5967 22.7997 78.6803C23.8225 77.4942 24.426 76.3687 24.7352 75.1893C25.0462 74.0032 25.076 72.7 24.8627 71.135C24.7881 70.5878 25.1713 70.0837 25.7185 70.0092ZM15.8916 82.6392C16.0171 82.1934 16.1257 81.7423 16.2163 81.2865C16.4524 80.0984 16.6689 78.3137 16.4301 77.1289C16.3072 76.5188 16.1198 76.345 16.0495 76.3078C16.0156 76.2899 15.7279 76.1597 14.8839 76.6191C14.2997 76.9371 14.0208 77.3858 13.9212 77.9204C13.814 78.4949 13.9114 79.2127 14.2068 79.9698C14.3871 80.4317 14.8931 81.3956 15.5168 82.1968C15.6436 82.3596 15.7692 82.5078 15.8916 82.6392Z" fill="#F4F1ED"/>
</svg>
