<svg width="96" height="96" viewBox="0 0 96 96" fill="none" xmlns="http://www.w3.org/2000/svg">
<path fill-rule="evenodd" clip-rule="evenodd" d="M48.7079 2.25369C53.118 1.85928 57.7375 1.9358 62.1297 2.40649C71.3078 3.39005 79.631 6.82778 85.6714 14.8014C91.1535 22.0381 93.2973 30.8795 93.8613 39.8735C94.1974 45.2318 93.9095 50.398 93.1428 55.6827C92.3722 60.9943 90.6652 66.0465 89.0016 70.9702C88.9307 71.1801 88.8598 71.3898 88.7891 71.5993C88.5311 72.3639 88.2964 73.1549 88.0539 73.9725C88.0309 74.0501 88.0078 74.128 87.9846 74.2061C87.7194 75.099 87.4426 76.0192 87.1236 76.921C86.487 78.7209 85.6588 80.52 84.3271 82.013C81.3119 85.3934 77.761 87.4654 73.669 88.7951C67.7096 90.7315 61.3001 92.1085 55.0926 92.6991C50.8531 93.1025 46.6179 93.0128 42.4362 92.9243C41.0516 92.895 39.6728 92.8658 38.3017 92.8547C31.1617 92.7967 24.6687 91.0048 18.309 87.5993C15.7301 86.2183 12.4762 84.126 10.7452 81.2284C8.59889 77.6356 6.73968 73.9975 4.87605 70.2709C1.48605 63.4922 0.840424 55.7313 1.02988 48.3438C1.06705 46.8948 1.29872 45.505 1.53415 44.1848C1.55762 44.0532 1.58111 43.9224 1.60446 43.7923C1.81901 42.5972 2.02294 41.4613 2.11026 40.3006C2.14123 39.8889 2.16938 39.4713 2.19783 39.0494C2.34704 36.8365 2.50437 34.5033 3.11931 32.2553C3.38496 31.2842 3.54353 30.2651 3.7124 29.1798C3.7465 28.9606 3.78102 28.7388 3.81693 28.5141C4.02515 27.211 4.27841 25.8303 4.79028 24.5409C5.38309 23.0477 6.17959 21.5882 6.92346 20.2251C7.09465 19.9114 7.26305 19.6028 7.42554 19.3001C9.36359 15.6895 12.2598 12.6485 15.1867 10.1286C17.8552 7.83113 21.5071 4.98244 25.2153 4.23361C32.3315 2.79659 39.5442 2.602 46.6799 2.5934C47.322 2.45327 48.0092 2.31617 48.7079 2.25369ZM46.8996 4.5932C47.0037 4.59313 47.1077 4.59309 47.2118 4.59309C47.4298 4.59309 47.6315 4.52335 47.7958 4.40498C48.1633 4.33471 48.5227 4.27823 48.886 4.24574C53.1557 3.86389 57.6437 3.9372 61.9166 4.39511C70.71 5.33744 78.4576 8.59098 84.0772 16.0091C89.2314 22.813 91.3144 31.2149 91.8652 39.9987C92.1915 45.2007 91.9133 50.2275 91.1635 55.3956C90.4197 60.5222 88.7658 65.4185 87.0874 70.3875C87.023 70.5781 86.9585 70.7689 86.8941 70.9598C86.6236 71.7613 86.3785 72.5879 86.138 73.3987C86.1144 73.4782 86.0909 73.5575 86.0674 73.6367C85.8018 74.531 85.538 75.4062 85.2381 76.2541C84.637 77.9535 83.9144 79.471 82.8345 80.6817C80.0924 83.7561 76.8635 85.6542 73.0509 86.893C67.2209 88.7874 60.9551 90.1323 54.9032 90.7081C50.7899 91.0994 46.72 91.0135 42.5688 90.9259C41.1628 90.8962 39.7474 90.8663 38.3179 90.8547C31.5292 90.7996 25.3524 89.1022 19.2532 85.8362C16.712 84.4755 13.8927 82.5972 12.4622 80.2027C10.3571 76.679 8.52626 73.0985 6.66483 69.3763C3.49445 63.0368 2.84265 55.6701 3.02923 48.3951C3.06212 47.1123 3.26785 45.855 3.50308 44.536C3.5265 44.4047 3.55025 44.2726 3.57412 44.1398C3.78638 42.9591 4.00912 41.7202 4.10462 40.4506C4.138 40.0069 4.16789 39.5679 4.19748 39.1333C4.34816 36.9201 4.49113 34.8203 5.04843 32.783C5.34671 31.6926 5.52539 30.5411 5.69383 29.4554C5.72663 29.244 5.75904 29.0351 5.79187 28.8297C5.99882 27.5346 6.22565 26.3457 6.64915 25.2789C7.19252 23.9102 7.91537 22.5845 8.65489 21.2283C8.83229 20.9029 9.01065 20.5758 9.18772 20.246C10.9626 16.9393 13.6567 14.0849 16.4916 11.6442C19.1898 9.32123 22.4795 6.82646 25.6112 6.19404C31.2352 5.05834 36.9472 4.71679 42.7158 4.6243C42.8933 4.90282 43.2049 5.08755 43.5597 5.08755C44.566 5.08755 45.5254 4.89521 46.3943 4.70488C46.5101 4.67951 46.624 4.65426 46.7364 4.62935C46.7911 4.61721 46.8456 4.60515 46.8996 4.5932Z" fill="#F4F1ED"/>
<path fill-rule="evenodd" clip-rule="evenodd" d="M44.7725 4C45.3248 4 45.7725 4.44772 45.7725 5V26.0641C45.7725 28.7804 45.8291 31.4857 45.886 34.2044C45.9429 36.9195 46 39.6488 46 42.3942C46 43.4419 45.362 44.3452 44.7055 45.0224C44.0192 45.7303 43.1345 46.3724 42.2948 46.9038C41.4475 47.4401 40.606 47.8884 39.9798 48.2016C39.6656 48.3587 39.4031 48.483 39.2179 48.5685C39.1524 48.5988 39.0965 48.6242 39.0513 48.6446L32.6913 53.8939L32.5046 54.0597C32.3756 54.1741 32.1884 54.3402 31.9553 54.5466C31.489 54.9596 30.8388 55.5343 30.1032 56.1818C28.6332 57.4754 26.817 59.0636 25.4448 60.2302C24.8146 60.766 24.215 61.239 23.6401 61.6925C22.1557 62.8635 20.8356 63.9049 19.5756 65.5638C18.6628 66.7655 17.5946 67.574 16.6101 68.2861C16.5155 68.3546 16.4219 68.422 16.3293 68.4886C15.4367 69.1316 14.6403 69.7051 13.9309 70.4848C13.3155 71.1613 12.6453 71.6123 12.047 71.9931C11.9598 72.0486 11.8748 72.1023 11.7918 72.1546C11.2852 72.4745 10.853 72.7474 10.4392 73.1123C10.3502 73.1908 10.2207 73.2812 10.1439 73.3348L10.1336 73.342C10.1132 73.3563 10.0931 73.3703 10.0734 73.384C10.0168 73.4234 9.96302 73.4609 9.91237 73.497C9.7399 73.7976 9.41581 74 9.04443 74C8.97423 74 8.77639 73.996 8.56078 73.8873C8.27127 73.7412 8.01713 73.4326 8.00083 73.0177C7.98901 72.7167 8.11298 72.5022 8.15265 72.4364C8.20693 72.3466 8.26478 72.2801 8.29906 72.2429C8.41951 72.1121 8.58128 71.9923 8.66901 71.928C8.75814 71.8627 8.85747 71.7935 8.93835 71.7372C8.95602 71.7249 8.97282 71.7132 8.98843 71.7023C9.05081 71.6588 9.0867 71.6328 9.10454 71.62C9.11967 71.609 9.12183 71.6075 9.1162 71.6124C9.65998 71.1328 10.2404 70.7675 10.742 70.4519C10.8211 70.4021 10.8983 70.3535 10.973 70.3059C11.543 69.9431 12.024 69.6089 12.4515 69.139C13.3101 68.1952 14.2777 67.4999 15.1509 66.8724C15.2478 66.8027 15.3436 66.7339 15.4379 66.6657C16.4049 65.9662 17.2623 65.3028 17.9829 64.354C19.4088 62.4768 21.0084 61.2153 22.5574 59.9938C23.0974 59.5679 23.6312 59.1469 24.1494 58.7064C25.5077 57.5517 27.3129 55.9732 28.7818 54.6804C29.5156 54.0346 30.1642 53.4613 30.6293 53.0494C30.8619 52.8434 31.0485 52.6779 31.177 52.5638L31.3748 52.3882L32.04 53.1348L31.3756 52.3875L31.3893 52.3753L37.9925 46.9253L38.1219 46.8692L38.1245 46.8681L38.1359 46.8631L38.1848 46.8413C38.2287 46.8217 38.2945 46.792 38.379 46.753C38.5482 46.6748 38.792 46.5594 39.0853 46.4127C39.6741 46.1183 40.4526 45.7029 41.2253 45.2138C42.0055 44.72 42.7409 44.1755 43.2696 43.6302C43.8281 43.0542 44 42.6379 44 42.3942C44 39.6729 43.9434 36.965 43.8865 34.2463L43.8863 34.2371C43.8295 31.5248 43.7725 28.8017 43.7725 26.0641V5C43.7725 4.44772 44.2202 4 44.7725 4Z" fill="#F4F1ED"/>
<path fill-rule="evenodd" clip-rule="evenodd" d="M44.8483 44.0009C45.4001 43.9774 45.8665 44.4056 45.89 44.9574C46.0228 48.0733 46.0502 58.1639 45.8896 61.3227C45.7904 63.2749 45.6615 65.2049 45.5332 67.1267C45.3037 70.5627 45.0759 73.9725 45.0227 77.4368C44.9793 80.2588 44.991 82.8358 45.1216 85.6227C45.1883 87.0453 45.2414 88.5562 45.2414 90C45.2414 90.5523 44.7937 91 44.2414 91C43.6891 91 43.2414 90.5523 43.2414 90C43.2414 88.6012 43.1899 87.1255 43.1238 85.7163C42.9906 82.8747 42.9792 80.2537 43.0229 77.4061C43.0768 73.8978 43.3108 70.3888 43.5425 66.9135C43.6698 65.004 43.7965 63.1047 43.8922 61.2212C44.0489 58.1375 44.0226 48.1107 43.8918 45.0426C43.8683 44.4908 44.2966 44.0244 44.8483 44.0009Z" fill="#F4F1ED"/>
<path fill-rule="evenodd" clip-rule="evenodd" d="M44.3991 42.2007C44.8405 41.8688 45.4675 41.9576 45.7993 42.3991C46.8087 43.7416 48.2123 44.7143 49.6327 45.6765C53.2005 48.0932 56.7469 50.688 60.0674 53.7916C64.2734 57.7227 68.3946 61.8795 72.4975 66.0179C74.7762 68.3162 77.0492 70.6089 79.328 72.854C79.8067 73.3257 80.3071 73.9197 80.7951 74.5024C80.8226 74.5353 80.8502 74.5682 80.8777 74.6011C81.3505 75.1658 81.8226 75.7299 82.3086 76.245C82.8244 76.7918 83.3207 77.245 83.7978 77.5574C84.2758 77.8705 84.6704 78 85 78C85.5523 78 86 78.4477 86 79C86 79.5523 85.5523 80 85 80C84.1435 80 83.3675 79.6663 82.7021 79.2306C82.0358 78.7943 81.4157 78.2131 80.8538 77.6174C80.3255 77.0574 79.8176 76.4506 79.3536 75.8962C79.3228 75.8594 79.2922 75.8228 79.2617 75.7865C78.7609 75.1884 78.3225 74.6711 77.9243 74.2787C75.6088 71.9974 73.3197 69.6883 71.0346 67.3833C66.9528 63.2659 62.884 59.1616 58.7018 55.2527C55.4912 52.2519 52.0421 49.7241 48.5111 47.3324C47.1244 46.3931 45.4403 45.2497 44.2007 43.6009C43.8689 43.1595 43.9577 42.5326 44.3991 42.2007Z" fill="#F4F1ED"/>
</svg>
