<svg width="96" height="96" viewBox="0 0 96 96" fill="none" xmlns="http://www.w3.org/2000/svg">
<path fill-rule="evenodd" clip-rule="evenodd" d="M53.0075 12.5299C53.5433 12.3959 54.0862 12.7217 54.2202 13.2575C54.3258 13.6801 54.5904 14.1239 54.9847 14.6995C55.0369 14.7757 55.0921 14.8551 55.1492 14.9373C55.4828 15.4172 55.8828 15.9927 56.1499 16.5939C57.2927 19.1651 58.174 22.0666 58.6781 24.8199C59.1685 27.4984 58.9499 30.2303 58.4952 32.8643C58.2032 34.556 57.7995 36.2733 57.4129 37.9176C57.2052 38.8007 57.0026 39.6626 56.8248 40.4882C56.1207 43.7593 55.2561 47.282 53.4438 50.3428C52.2422 52.3722 50.6079 54.1917 49.0743 55.8991C48.5775 56.4522 48.0913 56.9935 47.6337 57.5264C42.8621 63.084 37.9398 68.1128 32.4716 72.9959C30.7803 74.5062 29.0906 76.1001 27.3885 77.7057C24.894 80.0586 22.3731 82.4365 19.7821 84.6129C16.4211 87.4361 12.973 89.6472 9.05547 91.5903C8.8068 91.7136 8.54328 91.8531 8.25474 92.0059C8.1932 92.0384 8.13052 92.0716 8.0666 92.1054C7.71009 92.2936 7.32398 92.4949 6.92728 92.6824C6.14911 93.0502 5.24969 93.405 4.34952 93.495C3.79997 93.55 3.30993 93.149 3.25498 92.5995C3.20002 92.05 3.60097 91.5599 4.15051 91.505C4.70152 91.4499 5.34961 91.2159 6.07269 90.8742C6.42661 90.7069 6.77955 90.5233 7.13269 90.3368C7.19198 90.3055 7.25158 90.2739 7.31132 90.2423C7.60024 90.0893 7.89222 89.9348 8.16678 89.7986C11.9527 87.9208 15.2654 85.795 18.4957 83.0815C21.0709 80.9183 23.4891 78.6353 25.93 76.3309C27.635 74.7213 29.3511 73.1012 31.1395 71.5041C36.5408 66.6807 41.4013 61.7151 46.1163 56.2236C46.6396 55.6141 47.1684 55.025 47.6905 54.4434C49.1891 52.774 50.6314 51.1672 51.7229 49.3238C53.3529 46.5709 54.1656 43.3378 54.8696 40.0673C55.0644 39.1626 55.2759 38.2645 55.4874 37.366C55.8642 35.7661 56.2411 34.1651 56.5244 32.5241C56.9608 29.9955 57.1407 27.5278 56.7108 25.1801C56.234 22.5762 55.3983 19.8271 54.3223 17.4061C54.1387 16.9931 53.865 16.5974 53.5277 16.1097C53.4655 16.0198 53.4011 15.9267 53.3347 15.8298C52.9456 15.2618 52.4823 14.5523 52.2799 13.7425C52.1459 13.2067 52.4717 12.6638 53.0075 12.5299Z" fill="#F4F1ED"/>
<path fill-rule="evenodd" clip-rule="evenodd" d="M47.8583 1.28178C47.8565 1.2774 47.8569 1.27798 47.8588 1.28298ZM47.9684 3.3085C47.9326 3.85131 47.8649 4.39834 47.8015 4.91053C47.7737 5.13474 47.7468 5.35227 47.7238 5.55986C47.6467 6.25338 47.6166 6.76844 47.7048 7.36383C47.7644 7.76634 47.9056 8.07696 48.1497 8.61383L48.1537 8.62267C48.3404 9.03344 48.6993 9.47758 49.1057 9.88399C49.4427 10.2209 49.6548 10.4221 49.8798 10.5346C50.1079 10.6486 50.3185 10.7824 50.4815 10.8859C50.4928 10.8931 50.5039 10.9002 50.5148 10.907C50.6981 11.0233 50.8282 11.1033 50.9554 11.1635C51.0639 11.215 51.1838 11.2693 51.3109 11.327C51.6752 11.4922 52.0989 11.6843 52.4849 11.911C52.5794 11.9665 52.6726 12.0257 52.7644 12.0879C52.8115 11.9548 52.8619 11.8123 52.9199 11.6558C52.9907 11.4645 53.0566 11.297 53.1183 11.1401C53.2208 10.8795 53.3119 10.648 53.3955 10.3842C53.5176 9.99892 53.5764 9.67192 53.5582 9.36262C53.5141 8.6125 53.4402 7.9496 53.2189 7.51348C53.0869 7.2531 52.9042 7.00907 52.6608 6.71153C52.6208 6.66276 52.5783 6.61143 52.5339 6.55781C52.3273 6.30867 52.08 6.01024 51.8667 5.69035C51.5665 5.24005 51.2701 5.02327 50.6376 4.72366C50.1746 4.50432 49.7418 4.25413 49.3271 3.98272C49.2088 3.90527 49.0678 3.83822 48.8591 3.74746C48.8356 3.73726 48.8109 3.72657 48.7849 3.71539C48.6038 3.63728 48.367 3.53516 48.1411 3.40843C48.0835 3.37614 48.0259 3.34273 47.9684 3.3085ZM54.3022 13.6532C54.4505 13.3208 54.5752 12.9684 54.6824 12.6652C54.7224 12.5523 54.7599 12.4461 54.7954 12.3504C54.8376 12.2364 54.889 12.105 54.9442 11.9639C55.0633 11.6597 55.2002 11.3099 55.3021 10.9883C55.4631 10.4802 55.5928 9.89205 55.5547 9.24518C55.514 8.553 55.4409 7.47272 55.0026 6.60873C54.7671 6.14439 54.4674 5.7612 54.2086 5.44495C54.1526 5.37649 54.0992 5.31192 54.0481 5.25013C53.8466 5.00651 53.6809 4.80612 53.5308 4.58095C52.9561 3.71886 52.3089 3.3023 51.4938 2.91619C51.1273 2.74258 50.7745 2.53978 50.4224 2.30931C50.1496 2.13076 49.8712 2.00666 49.6568 1.91342C49.6275 1.9007 49.5996 1.88858 49.5727 1.87694C49.3829 1.79468 49.2485 1.73647 49.1196 1.66415C48.8342 1.50401 48.5884 1.33692 48.3071 1.14568C48.1641 1.04845 48.0119 0.944974 47.8407 0.832994C47.8407 0.832994 47.8408 0.833054 47.8407 0.832994C47.8407 0.832992 47.8384 0.831483 47.8322 0.827224L47.8041 0.807839C47.7815 0.792206 47.7487 0.769616 47.7129 0.746001C47.6559 0.708402 47.5309 0.627112 47.3876 0.568105C47.3237 0.541785 47.1705 0.482722 46.9738 0.47696C46.7542 0.470526 46.3339 0.538604 46.0675 0.947687C45.8534 1.27652 45.8952 1.60679 45.9124 1.71356C45.9338 1.84636 45.9752 1.96152 46.009 2.04347C46.0104 2.04997 46.0133 2.0648 46.0161 2.08974C46.0222 2.14404 46.0252 2.21855 46.0232 2.31642C46.0213 2.41328 46.0151 2.5167 46.0071 2.63028C46.0055 2.65336 46.0037 2.67787 46.0019 2.70327C45.9955 2.79159 45.9883 2.89062 45.9842 2.97722C45.9585 3.5166 45.8948 4.03065 45.8259 4.5864C45.796 4.82758 45.7651 5.07662 45.736 5.339C45.6533 6.08323 45.5999 6.80301 45.7264 7.65692C45.8282 8.34423 46.0765 8.8882 46.2923 9.36104C46.306 9.39106 46.3196 9.4208 46.333 9.45028C46.6664 10.1839 47.2221 10.8288 47.6915 11.2982C47.705 11.3117 47.7189 11.3257 47.7331 11.3399C48.0198 11.6273 48.4444 12.053 48.9854 12.3235C49.1198 12.3906 49.2522 12.4746 49.4413 12.5946L49.4436 12.596C49.6178 12.7065 49.8455 12.8509 50.0992 12.971C50.2737 13.0537 50.4319 13.1254 50.5797 13.1923C50.9068 13.3406 51.1828 13.4657 51.4721 13.6356C51.7489 13.7982 52.0419 14.0364 52.312 14.3002C52.4186 14.5201 52.6034 14.695 52.8302 14.7888C53.1966 15.0063 53.6762 14.9719 54.0096 14.6718C54.3031 14.4076 54.4038 14.009 54.3022 13.6532Z" fill="#F4F1ED"/>
<path fill-rule="evenodd" clip-rule="evenodd" d="M50.5537 6.33756C50.5444 5.79337 50.1003 5.3551 49.5539 5.3551C49.0016 5.3551 48.5539 5.80282 48.5539 6.3551C48.5539 6.83263 48.7414 7.22275 48.8932 7.4801C48.9924 7.64836 49.1401 7.85538 49.2331 7.98566C49.2641 8.02913 49.289 8.06405 49.304 8.08614C49.4184 8.25467 49.5138 8.41383 49.6236 8.59707C49.6921 8.71146 49.7663 8.83523 49.8542 8.97653C50.0583 9.30447 50.3129 9.68361 50.6438 10.0146C51.0344 10.4051 51.6675 10.4051 52.0581 10.0146C52.4486 9.62404 52.4486 8.99088 52.0581 8.60036C51.893 8.43533 51.7353 8.21391 51.5523 7.91987C51.5016 7.83837 51.4439 7.74249 51.3821 7.63968C51.2509 7.42164 51.101 7.17243 50.959 6.96314C50.912 6.89393 50.8559 6.81543 50.8089 6.74974C50.7902 6.72364 50.773 6.69956 50.7583 6.67889C50.6977 6.5932 50.652 6.52529 50.6159 6.46408C50.5715 6.38886 50.5575 6.34941 50.5537 6.33756Z" fill="#F4F1ED"/>
<path fill-rule="evenodd" clip-rule="evenodd" d="M82.4605 15.5346C82.9963 15.6685 83.322 16.2115 83.1881 16.7473C82.2563 20.4746 79.4683 23.8009 76.5732 25.9455C73.0274 28.5719 68.8387 30.0848 64.7103 31.1169L64.701 31.1192C63.0688 31.5273 61.1873 31.9976 59.3258 31.9976C58.7735 31.9976 58.3258 31.5499 58.3258 30.9976C58.3258 30.4453 58.7735 29.9976 59.3258 29.9976C60.903 29.9976 62.5479 29.5959 64.2253 29.1766C68.2365 28.1738 72.138 26.7419 75.3827 24.3384C78.0396 22.3703 80.4631 19.401 81.2478 16.2622C81.3817 15.7264 81.9247 15.4006 82.4605 15.5346Z" fill="#F4F1ED"/>
<path fill-rule="evenodd" clip-rule="evenodd" d="M36.1315 36C36.6838 36 37.1315 36.4477 37.1315 37C37.1315 37.3292 37.0893 37.6473 37.0569 37.8908C37.053 37.9204 37.0492 37.949 37.0456 37.9763C37.0096 38.2533 36.9914 38.4462 37.0038 38.6282C37.0499 39.3021 37.3882 40.0209 37.9324 40.8097C38.286 41.3221 38.6539 41.7703 39.0291 42.2275C39.2568 42.5049 39.4872 42.7856 39.7187 43.0859C41.4863 45.3785 43.5127 47.1972 46.0072 48.6159C47.1724 49.2785 48.3931 49.8354 49.6596 50.4132C49.8167 50.4849 49.9745 50.5569 50.133 50.6294C50.2176 50.6682 50.2945 50.7039 50.3649 50.7366C50.7143 50.8989 50.9039 50.987 51.0913 51.0042C51.6413 51.0546 52.0463 51.5414 51.9958 52.0913C51.9454 52.6413 51.4587 53.0463 50.9087 52.9958C50.3355 52.9433 49.7683 52.6713 49.4374 52.5127C49.3857 52.4879 49.3398 52.4659 49.3005 52.4479C49.1442 52.3764 48.987 52.3047 48.8289 52.2326C47.5723 51.6596 46.2666 51.0642 45.0185 50.3544C42.2742 48.7937 40.0505 46.7918 38.1348 44.307C37.9769 44.1023 37.7824 43.8643 37.5713 43.6059C37.1563 43.0982 36.6771 42.512 36.2862 41.9455C35.6727 41.0563 35.0913 39.9764 35.0085 38.7646C34.9813 38.3665 35.0257 38.0002 35.0623 37.7186C35.066 37.6902 35.0696 37.6627 35.0731 37.6361C35.1074 37.3741 35.1315 37.1895 35.1315 37C35.1315 36.4477 35.5793 36 36.1315 36Z" fill="#F4F1ED"/>
<path fill-rule="evenodd" clip-rule="evenodd" d="M64.9499 56.8059C65.3405 57.1964 65.3405 57.8296 64.9499 58.2201C63.6702 59.4999 61.7416 59.9008 60.4023 60.1276C56.5933 60.7726 52.768 61.2882 48.9609 61.8014C48.5852 61.8521 48.2097 61.9027 47.8344 61.9534C47.5052 61.9979 47.1644 62.0492 46.8149 62.1019C45.6555 62.2766 44.4007 62.4656 43.1623 62.4656C42.61 62.4656 42.1623 62.0179 42.1623 61.4656C42.1623 60.9133 42.61 60.4656 43.1623 60.4656C44.2366 60.4656 45.2844 60.3082 46.4104 60.1391C46.7858 60.0827 47.1699 60.025 47.5665 59.9714C47.9412 59.9208 48.3157 59.8703 48.6899 59.8198C52.5026 59.3059 56.2946 58.7947 60.0684 58.1557C61.4495 57.9218 62.7597 57.582 63.5357 56.8059C63.9263 56.4154 64.5594 56.4154 64.9499 56.8059Z" fill="#F4F1ED"/>
<path fill-rule="evenodd" clip-rule="evenodd" d="M21.9173 58.8323C22.4621 58.7415 22.9773 59.1095 23.0681 59.6543C23.3702 61.4667 24.1632 63.2488 25.0655 64.996C26.1405 67.0778 27.451 68.9557 28.9189 70.843C29.0259 70.9806 29.1343 71.1398 29.2262 71.2749L29.238 71.2922C29.3399 71.4419 29.4323 71.5771 29.5275 71.7028C29.6228 71.8286 29.7051 71.9233 29.7764 71.9907C29.844 72.0545 29.8783 72.0712 29.8782 72.0713C29.8782 72.0713 29.8787 72.0715 29.8782 72.0713C30.388 72.2837 30.6283 72.8689 30.4159 73.3787C30.2035 73.8885 29.618 74.1296 29.1082 73.9171C28.5589 73.6883 28.1695 73.2222 27.9333 72.9105C27.8039 72.7397 27.6849 72.5649 27.5874 72.4217L27.5847 72.4176C27.4791 72.2626 27.4047 72.1538 27.3402 72.0709C25.834 70.1344 24.4422 68.1479 23.2884 65.9137C22.3662 64.1278 21.4509 62.1167 21.0953 59.9831C21.0045 59.4383 21.3725 58.9231 21.9173 58.8323Z" fill="#F4F1ED"/>
<path fill-rule="evenodd" clip-rule="evenodd" d="M25.2867 78.244C25.019 77.9546 24.5929 77.8396 24.201 77.9866C23.6838 78.1806 23.4218 78.757 23.6158 79.2741C23.7297 79.5781 23.942 79.7609 24.069 79.853C24.2073 79.9533 24.3521 80.0231 24.469 80.0717C24.704 80.1695 24.9685 80.2394 25.1921 80.2901C25.4239 80.3426 25.6557 80.384 25.8393 80.4152C25.9134 80.4278 25.9739 80.4379 26.0232 80.4461C26.1136 80.4611 26.1666 80.47 26.1977 80.4767C28.8787 81.0576 31.6263 81.4127 34.3116 81.6926C39.7068 82.2549 45.0973 82.2868 50.3155 80.0038C50.8214 79.7824 51.0522 79.1928 50.8308 78.6868C50.6094 78.1809 50.0198 77.9501 49.5138 78.1715C44.7788 80.2431 39.8118 80.255 34.519 79.7034C31.8611 79.4264 29.1971 79.0802 26.6212 78.5221C26.5399 78.5044 26.4083 78.4825 26.2851 78.462C26.2468 78.4556 26.2094 78.4494 26.1745 78.4435C26.001 78.414 25.8119 78.3798 25.6341 78.3395C25.483 78.3053 25.3664 78.2724 25.2867 78.244Z" fill="#F4F1ED"/>
<path fill-rule="evenodd" clip-rule="evenodd" d="M85.1567 4.80663C85.1558 4.80989 85.1482 4.83258 85.1274 4.90347C85.1263 4.90695 85.1253 4.91066 85.1241 4.91459C85.1 4.99717 85.0474 5.17723 84.9475 5.35716C84.8682 5.49983 84.7804 5.6317 84.7166 5.72756C84.7122 5.73421 84.7079 5.74068 84.7037 5.74698C84.6312 5.8561 84.5867 5.92499 84.5519 5.98971C84.3446 6.37567 84.0832 6.66344 83.8782 6.87814C83.829 6.92962 83.7843 6.97579 83.7433 7.01823C83.5949 7.1717 83.4938 7.27621 83.3983 7.40511C83.2348 7.62586 83.0146 7.87877 82.8336 8.08673C82.7499 8.18288 82.6745 8.26941 82.617 8.33873C82.3887 8.61387 82.2519 8.82234 82.1814 9.01764C82.0931 9.26207 82.0085 9.48104 81.9291 9.68671C81.7655 10.1103 81.6236 10.4775 81.5162 10.8945C81.3486 11.5451 81.3345 12.299 81.3497 13.1174C81.3505 13.1601 81.3696 13.2678 81.4503 13.4653C81.5089 13.6086 81.573 13.7389 81.6473 13.8897C81.6763 13.9488 81.707 14.011 81.7394 14.0784C81.9372 14.4891 82.1355 14.8354 82.3577 15.0823L82.3607 15.0856C82.408 15.1381 82.5153 15.2574 82.616 15.3921C82.6673 15.4609 82.7305 15.5516 82.7869 15.6542C82.8342 15.7402 82.9235 15.9165 82.9516 16.1414C83.0201 16.6894 82.6314 17.1892 82.0833 17.2577C81.604 17.3176 81.1615 17.0277 81.0123 16.5873C80.9936 16.5623 80.9704 16.5337 80.9445 16.5034C80.9184 16.4729 80.894 16.4456 80.8711 16.4202C80.4521 15.9546 80.1546 15.3972 79.9374 14.9461C79.9202 14.9103 79.8996 14.8684 79.8767 14.8221C79.7957 14.6577 79.6865 14.4361 79.599 14.222C79.486 13.9455 79.3576 13.5661 79.35 13.1544C79.3349 12.3356 79.3371 11.3366 79.5794 10.3957C79.717 9.86176 79.9262 9.31892 80.1086 8.84544C80.1782 8.66488 80.2439 8.4944 80.3002 8.33835C80.4904 7.81182 80.8064 7.3888 81.0779 7.06163C81.2079 6.90492 81.3159 6.78194 81.4125 6.67198C81.552 6.51314 81.6676 6.38149 81.7912 6.21466C81.9734 5.96868 82.1881 5.74794 82.3446 5.58701C82.3763 5.55437 82.4057 5.52419 82.4319 5.49676C82.6091 5.31117 82.7153 5.18249 82.7899 5.04345C82.8745 4.886 82.9685 4.74458 83.0361 4.64281L83.0381 4.63988C83.107 4.53615 83.1519 4.46846 83.1884 4.4048C83.1916 4.39516 83.198 4.37523 83.2083 4.34028C83.2098 4.33514 83.2115 4.32921 83.2134 4.32256C83.235 4.248 83.2828 4.08235 83.3641 3.91976C83.6111 3.42578 84.2117 3.22556 84.7057 3.47255C85.1972 3.71828 85.3979 4.3141 85.1567 4.80663Z" fill="#F4F1ED"/>
<path fill-rule="evenodd" clip-rule="evenodd" d="M85.0058 2.73469C85.558 2.73469 86.0058 3.1824 86.0058 3.73469C86.0058 4.01174 85.9151 4.23614 85.8857 4.30896C85.8842 4.31275 85.8828 4.31614 85.8816 4.31909C85.8714 4.44299 85.8615 4.52767 85.8534 4.59731C85.8415 4.69981 85.8333 4.76976 85.8333 4.8843C85.8333 5.36746 85.8597 5.83032 85.9416 6.24015C85.9415 6.2397 85.9416 6.24014 85.9416 6.24015C85.9416 6.2402 85.9442 6.25075 85.9561 6.27646C85.9704 6.30742 85.9932 6.3491 86.0318 6.41092C86.0592 6.45473 86.0829 6.49082 86.1121 6.53525C86.1304 6.56308 86.1508 6.59417 86.1757 6.63248C86.231 6.71794 86.2996 6.82669 86.3633 6.94768C86.5281 7.26072 86.6092 7.57891 86.6612 7.82573C86.6943 7.98274 86.7116 8.08017 86.7264 8.16369C86.7426 8.2552 86.7558 8.33001 86.7837 8.4482C86.8959 8.92342 86.9086 9.4017 86.9016 9.8097C86.8986 9.99056 86.8911 10.1717 86.8844 10.3372C86.8834 10.3599 86.8825 10.3822 86.8816 10.4043C86.874 10.5933 86.868 10.7614 86.868 10.9197C86.868 11.051 86.8718 11.2101 86.8759 11.3835C86.8845 11.7405 86.8945 12.1586 86.8757 12.5212C86.8451 13.1124 86.7394 13.7845 86.3894 14.43C85.9975 15.1529 85.493 15.7026 84.7938 16.1456C84.7577 16.1685 84.7226 16.1907 84.6884 16.2124C84.3274 16.4405 84.0708 16.6027 83.8735 16.8001C83.483 17.1906 82.8498 17.1906 82.4593 16.8001C82.0688 16.4095 82.0688 15.7764 82.4593 15.3859C82.8262 15.019 83.2817 14.7334 83.6097 14.5278C83.6495 14.5028 83.6875 14.479 83.7232 14.4564C84.1254 14.2014 84.397 13.9088 84.6312 13.4768C84.7824 13.1979 84.8555 12.8592 84.8784 12.4177C84.8939 12.1185 84.8868 11.8562 84.8788 11.5603C84.8736 11.3675 84.868 11.1605 84.868 10.9197C84.868 10.7166 84.8756 10.512 84.8833 10.3234C84.8842 10.3002 84.8851 10.2773 84.8861 10.2546C84.8929 10.0866 84.8993 9.93091 84.9019 9.77573C84.908 9.42027 84.8919 9.13919 84.8372 8.90779C84.8071 8.78025 84.7679 8.57205 84.7386 8.41646C84.7238 8.33808 84.7116 8.27306 84.7042 8.23841C84.6651 8.05279 84.6295 7.94763 84.5935 7.87918C84.5572 7.81021 84.5278 7.76608 84.4816 7.69655C84.4462 7.64338 84.401 7.57535 84.3353 7.47C84.2187 7.28335 84.053 6.99503 83.9805 6.63238C83.8613 6.03663 83.8333 5.42476 83.8333 4.8843C83.8333 4.67629 83.8629 4.39186 83.8809 4.21871C83.8868 4.16101 83.8916 4.11566 83.8935 4.08962C83.9038 3.94832 83.9345 3.83103 83.9613 3.7476C83.9799 3.68968 84.0018 3.63365 84.0145 3.60163C84.0796 3.11225 84.4986 2.73469 85.0058 2.73469Z" fill="#F4F1ED"/>
<path fill-rule="evenodd" clip-rule="evenodd" d="M84.2229 9.95014C84.4605 9.50207 84.3245 8.93802 83.8935 8.65067C83.434 8.34432 82.8131 8.46849 82.5068 8.92802C82.2895 9.25392 82.2445 9.632 82.2264 9.79439C82.2161 9.88674 82.2093 9.97936 82.2042 10.0478C82.2037 10.0558 82.2031 10.0633 82.2026 10.0706C82.1964 10.1529 82.1928 10.1915 82.1895 10.214C82.1471 10.5064 82.1098 10.8223 82.1089 11.1686C82.1086 11.1687 82.1072 11.1896 82.1009 11.2482C82.0999 11.2577 82.0988 11.2681 82.0976 11.2793C82.091 11.3399 82.082 11.4231 82.0758 11.5024C82.0689 11.5886 82.0601 11.7271 82.0713 11.8669C82.0766 11.9337 82.0901 12.0553 82.1378 12.1908C82.1774 12.3031 82.3056 12.6133 82.6617 12.7913C83.1557 13.0383 83.7563 12.8381 84.0033 12.3441C84.1188 12.1132 84.1365 11.859 84.0722 11.6285C84.0757 11.5902 84.08 11.5498 84.0851 11.5025C84.0866 11.4891 84.0881 11.4751 84.0897 11.4604C84.0935 11.4241 84.098 11.3814 84.1014 11.3399C84.1046 11.3024 84.1089 11.244 84.1089 11.1816C84.1089 10.9716 84.1311 10.7612 84.1688 10.5014C84.1836 10.3992 84.1916 10.2924 84.197 10.22C84.1975 10.2129 84.1981 10.2054 84.1986 10.1987C84.2041 10.1243 84.2082 10.069 84.2142 10.0155C84.2174 9.98649 84.2204 9.96517 84.2229 9.95014Z" fill="#F4F1ED"/>
<path fill-rule="evenodd" clip-rule="evenodd" d="M38.9669 24.0716C38.9667 24.0674 38.9669 24.0684 38.9671 24.074ZM38.3437 27.1584C38.7674 28.4318 39 29.7422 39 31.0501C39 31.8151 38.7656 32.6074 38.3512 33.3609C38.2819 33.4868 38.2187 33.6047 38.1592 33.7156C37.9189 34.1633 37.7395 34.4976 37.4689 34.7952C37.3532 34.9225 37.2631 35.0269 37.1849 35.1175C37.0393 35.2861 36.9351 35.4068 36.7843 35.5376C36.7806 35.54 36.7753 35.5433 36.7682 35.5476C36.7666 35.5487 36.7637 35.5504 36.7597 35.5528C36.7318 35.5696 36.6507 35.6182 36.5846 35.6651C36.5713 35.6746 36.5565 35.6853 36.5407 35.6974C36.3959 35.49 36.2412 35.3135 36.1279 35.1841C36.091 35.142 36.0585 35.1049 36.0321 35.0733C35.9037 34.9197 35.7913 34.7213 35.6607 34.4456C35.6291 34.379 35.5933 34.3002 35.5542 34.2144C35.4554 33.9974 35.3361 33.7354 35.2145 33.5123C35.0424 33.1964 35 32.7504 35 32.1217C35 31.934 35.0527 31.7327 35.1676 31.3984C35.1787 31.3661 35.1907 31.3318 35.2034 31.2957C35.3048 31.0057 35.4485 30.595 35.4983 30.1573C35.5096 30.0581 35.5842 29.8527 35.7821 29.5789C35.9692 29.32 36.2075 29.0821 36.4181 28.9221C37.1108 28.3958 37.7093 27.8069 38.2612 27.2458C38.2896 27.2169 38.3171 27.1878 38.3437 27.1584ZM36.8555 37.6892C36.6993 37.8535 36.4867 37.966 36.2438 37.9936C35.7462 38.0502 35.2925 37.7313 35.1657 37.2623C35.1604 37.2543 35.1543 37.2453 35.1469 37.2345C35.1437 37.2299 35.1397 37.224 35.1352 37.2174C35.1248 37.2022 35.1119 37.1833 35.1011 37.1674C35.0694 37.1206 35.0172 37.0423 34.9695 36.9522C34.9046 36.8294 34.8413 36.7563 34.7092 36.6038C34.6529 36.5389 34.5842 36.4596 34.4975 36.356C34.2035 36.0042 34.0047 35.6214 33.8533 35.3021C33.7916 35.1718 33.7408 35.0597 33.6945 34.9577C33.6128 34.7775 33.5455 34.6292 33.4584 34.4693C33.0146 33.6551 33 32.7264 33 32.1217C33 31.5694 33.1591 31.0892 33.2762 30.7483C33.2877 30.7149 33.2988 30.6828 33.3094 30.6519C33.4214 30.3272 33.4881 30.134 33.5111 29.9314C33.5775 29.3468 33.8685 28.8123 34.1611 28.4075C34.4644 27.9877 34.8415 27.6082 35.2081 27.3296C35.7786 26.8962 36.2923 26.3954 36.8354 25.8433C37.045 25.6302 37.1337 25.2711 37.0383 24.693C37.038 24.6912 37.0372 24.6871 37.0362 24.681C37.0255 24.6212 36.9804 24.3688 36.97 24.183C36.9671 24.1299 36.9631 24.0291 36.9774 23.9165C36.9842 23.8629 37.0011 23.7554 37.052 23.6324C37.096 23.5262 37.2294 23.2537 37.559 23.0976C37.9368 22.9187 38.2833 23.0217 38.4632 23.1148C38.6258 23.1989 38.7285 23.3072 38.7719 23.3558C38.8662 23.4612 38.9317 23.5739 38.9686 23.6407C40.2228 25.9088 41 28.4491 41 31.0501C41 32.2199 40.6443 33.3418 40.1036 34.3247C40.0606 34.4029 40.0151 34.4886 39.9667 34.5798C39.7223 35.0398 39.4029 35.6412 38.9486 36.1408C38.9046 36.1891 38.8529 36.249 38.7947 36.3163C38.6064 36.534 38.3503 36.83 38.0706 37.0693C38.0084 37.1225 37.9471 37.1664 37.8966 37.1999C37.7243 37.5011 37.3999 37.704 37.028 37.704C36.9692 37.704 36.9115 37.6989 36.8555 37.6892Z" fill="#F4F1ED"/>
<path fill-rule="evenodd" clip-rule="evenodd" d="M37 30C37.5523 30 38 30.4477 38 31V33C38 33.5523 37.5523 34 37 34C36.4477 34 36 33.5523 36 33V31C36 30.4477 36.4477 30 37 30Z" fill="#F4F1ED"/>
<path fill-rule="evenodd" clip-rule="evenodd" d="M73.3943 54.3761C73.332 54.3874 73.2382 54.4017 73.1277 54.4032L73.0969 54.4036C72.7476 54.4084 72.4281 54.4127 72.1091 54.4317C71.2657 54.4819 70.5693 54.5357 69.8689 54.7296C69.7189 54.7712 69.5734 54.8106 69.4322 54.8488C68.395 55.1298 67.5928 55.3471 66.949 55.8795C66.7075 56.0792 66.5548 56.315 66.2898 56.7243C66.2633 56.7652 66.2357 56.8079 66.2067 56.8525C65.9804 57.2006 65.7037 57.5529 65.4651 57.8446C65.5253 57.8834 65.5843 57.9249 65.6426 57.9685C66.0748 58.2927 66.4445 58.6553 66.7748 59.0031C66.936 59.1728 67.1939 59.3075 67.6336 59.4433C67.7943 59.493 67.9515 59.5351 68.1268 59.5821C68.1926 59.5998 68.261 59.6181 68.333 59.6378C68.5799 59.7052 68.8607 59.786 69.1326 59.8943C69.9578 60.2228 71.1835 60.1467 72.359 59.996C74.0021 59.7853 75.5572 59.0332 76.6644 57.8373C76.9815 57.4948 77.2399 57.1098 77.5465 56.6528C77.6127 56.5542 77.6811 56.4522 77.7528 56.3466C77.7613 56.334 77.7703 56.3208 77.7797 56.3068C77.8402 56.2172 77.9187 56.1009 78.018 55.9751C77.988 55.9656 77.9572 55.9559 77.9254 55.9459C77.7945 55.9046 77.6478 55.8584 77.4808 55.8033C76.872 55.6022 76.2649 55.3232 75.7232 55.0742C75.534 54.9872 75.3529 54.9039 75.1824 54.8289C74.6531 54.596 74.1133 54.4681 73.4682 54.3614C73.4484 54.3656 73.4227 54.3709 73.3943 54.3761ZM63.1668 58.0621C63.1378 57.9485 63.1285 57.8279 63.1422 57.7046C63.1763 57.3978 63.3171 57.1726 63.4215 57.0394C63.5261 56.9058 63.6413 56.805 63.7148 56.7438C63.7592 56.7069 63.8395 56.644 63.8762 56.6153C63.8858 56.6077 63.8924 56.6025 63.8946 56.6008C63.8992 56.5971 63.9031 56.5939 63.9065 56.5912C64.1352 56.312 64.3608 56.0225 64.5298 55.7625C64.5573 55.7203 64.5858 55.6756 64.6157 55.629C64.8559 55.2533 65.179 54.7479 65.6745 54.3382C66.6797 53.5069 67.9419 53.1727 68.9362 52.9093C69.0749 52.8726 69.2084 52.8373 69.3352 52.8021C70.263 52.5452 71.1535 52.4851 71.9903 52.4352C72.3561 52.4135 72.7168 52.4086 73.0537 52.404C73.0552 52.404 73.0566 52.404 73.058 52.4039C73.067 52.4019 73.0815 52.3988 73.1108 52.3926C73.1129 52.3922 73.1152 52.3917 73.1176 52.3912C73.1953 52.3747 73.417 52.3278 73.674 52.3687C74.432 52.4893 75.1982 52.6508 75.9879 52.9983C76.2246 53.1024 76.4449 53.2037 76.656 53.3007C77.1614 53.5331 77.6133 53.7408 78.1079 53.9041C78.1975 53.9337 78.295 53.9633 78.3985 53.9948C78.9559 54.1643 79.6901 54.3875 80.3297 54.9472C80.3346 54.9515 80.3399 54.9561 80.3457 54.9611C80.3984 55.0071 80.4849 55.0825 80.5535 55.1544C80.5932 55.1959 80.666 55.2758 80.7312 55.3852C80.7934 55.4896 80.905 55.7142 80.882 56.0154C80.8563 56.3534 80.6787 56.593 80.5188 56.7311C80.3794 56.8514 80.2379 56.9111 80.1662 56.9384C80.0214 56.9935 79.8638 57.0239 79.7599 57.0428C79.7593 57.0431 79.7582 57.0437 79.7565 57.0446C79.7492 57.0488 79.7296 57.0614 79.697 57.0928C79.6209 57.1664 79.5394 57.2758 79.4072 57.4704C79.3517 57.5521 79.2943 57.638 79.2349 57.7269C78.9276 58.1865 78.566 58.7274 78.132 59.1961C76.6782 60.7662 74.6791 61.7149 72.6133 61.9797C71.4976 62.1228 69.7663 62.2993 68.3928 61.7524C68.2316 61.6882 68.0423 61.6316 67.8065 61.5672C67.7538 61.5529 67.6976 61.5378 67.6389 61.5221C67.4535 61.4724 67.2433 61.416 67.0433 61.3543C66.5144 61.1909 65.849 60.9324 65.3248 60.3806C65.0253 60.0653 64.7443 59.7948 64.4426 59.5685C64.3908 59.5297 64.3598 59.5116 64.3439 59.5033C64.3304 59.4963 64.3248 59.4947 64.3219 59.4939C64.3082 59.4902 64.2624 59.4798 64.0756 59.4798C63.5233 59.4798 63.0756 59.0321 63.0756 58.4798C63.0756 58.3307 63.1083 58.1892 63.1668 58.0621Z" fill="#F4F1ED"/>
<path fill-rule="evenodd" clip-rule="evenodd" d="M72.3555 57.8081C72.2082 57.7913 72.1329 57.7852 72.0708 57.7871C71.6745 57.7995 71.2684 57.9111 70.7489 58.0539C70.6606 58.0782 70.5691 58.1034 70.4737 58.1291C70.2994 58.1762 70.1357 58.2178 69.9805 58.2574C69.541 58.3692 69.1699 58.4637 68.8209 58.6133C68.3132 58.8308 67.7254 58.5957 67.5078 58.0881C67.2902 57.5804 67.5254 56.9926 68.033 56.775C68.5405 56.5575 69.1262 56.4092 69.5973 56.29C69.7255 56.2575 69.8452 56.2272 69.9525 56.1982C70.0231 56.1792 70.0986 56.1581 70.1783 56.1359C70.6813 55.9955 71.3507 55.8087 72.0084 55.7881C72.2321 55.7811 72.4401 55.8048 72.5782 55.8205L72.5815 55.8209C72.741 55.839 72.8226 55.8481 72.8991 55.8481C73.4514 55.8481 73.8991 56.2958 73.8991 56.8481C73.8991 57.4003 73.4514 57.8481 72.8991 57.8481C72.7028 57.8481 72.514 57.8263 72.387 57.8117C72.376 57.8104 72.3655 57.8092 72.3555 57.8081Z" fill="#F4F1ED"/>
<path fill-rule="evenodd" clip-rule="evenodd" d="M21.1214 47.907C21.037 48.3447 20.903 48.756 20.7745 49.1209C20.7259 49.2589 20.6794 49.3869 20.6351 49.5088C20.5363 49.7809 20.4485 50.0226 20.3726 50.2775C20.189 50.8938 19.9027 51.4486 19.6655 51.9085C19.6378 51.9622 19.6108 52.0145 19.5847 52.0656C19.319 52.5847 19.1231 53.0055 19.0312 53.4604C18.8042 54.5832 18.8542 55.5414 19.3341 56.3266C19.5168 56.6257 19.7596 56.8954 20.0791 57.2503L20.097 57.2703C20.1915 57.3752 20.3091 57.5157 20.406 57.6315C20.4581 57.6937 20.5043 57.7488 20.5377 57.7874C20.6654 57.9353 20.7671 58.0394 20.8671 58.1184L20.874 58.1239C21.1677 58.3561 21.5347 58.6463 21.8569 58.9948C21.8624 58.9995 21.8713 59.0068 21.8836 59.0164C21.9153 59.0411 21.9566 59.0703 21.9998 59.0978C22.0298 59.1169 22.0545 59.1312 22.0726 59.1409C22.3629 59.2126 22.5981 59.4088 22.7261 59.6644C22.7848 59.6296 22.8374 59.5954 22.887 59.5591C23.7578 58.9233 24.5177 58.1182 24.8539 57.2714C25.2675 56.2299 25.1276 54.7694 24.8129 53.4226C24.4944 52.0593 24.0359 50.7606 23.2853 49.7267C23.1055 49.4791 22.8498 49.2592 22.4886 48.9926C22.4166 48.9395 22.3371 48.8824 22.2525 48.8216C21.9565 48.6088 21.5992 48.352 21.2918 48.0716C21.2335 48.0184 21.1768 47.9635 21.1214 47.907ZM21.0149 60.8398C20.863 61.1176 20.8453 61.4628 20.9976 61.7675C21.2446 62.2614 21.8452 62.4617 22.3392 62.2147C22.5041 62.1322 22.6494 62.0239 22.7256 61.9671L22.7532 61.9465C22.8391 61.8824 22.8697 61.8597 22.8966 61.8433C23.0119 61.7736 23.1226 61.7169 23.2663 61.6434C23.306 61.6231 23.3482 61.6015 23.3936 61.578C23.5876 61.4778 23.826 61.3499 24.0664 61.1743C25.0837 60.4316 26.1794 59.3528 26.7128 58.0095C27.3687 56.3574 27.0879 54.3688 26.7605 52.9676C26.4162 51.4941 25.8811 49.8979 24.9037 48.5517C24.5348 48.0435 24.0701 47.6741 23.6761 47.3834C23.5592 47.2971 23.451 47.2192 23.3496 47.1462C23.077 46.95 22.8533 46.7889 22.6399 46.5942C22.1225 46.1221 21.7299 45.3217 21.3497 44.4376C21.3483 44.4321 21.3466 44.4252 21.3447 44.4169C21.3393 44.3942 21.3338 44.3692 21.3263 44.3359L21.3253 44.3315C21.3179 44.2984 21.3089 44.2581 21.2991 44.2168C21.2807 44.1393 21.2526 44.0275 21.2122 43.9156C21.1916 43.8584 21.1622 43.7854 21.121 43.708C21.0822 43.6351 21.015 43.5241 20.9069 43.416C20.8676 43.3767 20.7888 43.3031 20.6727 43.2384C20.5629 43.1771 20.3209 43.0695 20.006 43.1236C19.6561 43.1838 19.4362 43.4028 19.3255 43.5759C19.2278 43.7288 19.1948 43.8712 19.1823 43.9353C19.1564 44.0679 19.1617 44.1806 19.1634 44.2171C19.166 44.2699 19.1714 44.3177 19.1754 44.35C19.1806 44.3927 19.1897 44.4528 19.1948 44.4868C19.1962 44.4966 19.1974 44.5042 19.198 44.5087C19.1988 44.5137 19.1994 44.5181 19.1999 44.5219C19.2008 44.8278 19.2126 45.1665 19.2238 45.4859C19.2308 45.686 19.2376 45.8786 19.2412 46.0508C19.2517 46.5524 19.2418 47.0015 19.1781 47.4109C19.1284 47.7304 19.0255 48.0664 18.8881 48.4563C18.8538 48.5538 18.8158 48.6585 18.7761 48.7678C18.669 49.0629 18.5495 49.392 18.4558 49.7066C18.3287 50.1332 18.1302 50.5197 17.8819 51.0031C17.8565 51.0525 17.8306 51.1029 17.8042 51.1545C17.5354 51.6799 17.2223 52.315 17.0708 53.0641C16.7961 54.4236 16.7736 55.9722 17.6275 57.3695C17.9099 57.8316 18.267 58.2275 18.5523 58.5437C18.5721 58.5656 18.5914 58.5871 18.6104 58.6082C18.6934 58.7004 18.753 58.7721 18.8223 58.8556C18.8777 58.9224 18.9394 58.9966 19.0241 59.0948C19.1828 59.2785 19.3804 59.4926 19.6266 59.6873C19.9426 59.9371 20.1931 60.1395 20.3961 60.3609C20.5459 60.5243 20.7631 60.6815 20.9265 60.7854C20.9547 60.8033 20.9843 60.8216 21.0149 60.8398Z" fill="#F4F1ED"/>
<path fill-rule="evenodd" clip-rule="evenodd" d="M22.0129 51.9802C22.5652 51.9802 23.0129 52.4279 23.0129 52.9802C23.0129 53.5539 23.0669 54.1236 23.129 54.756C23.161 55.0829 23.1336 55.461 23.1144 55.7252C23.1099 55.7871 23.1058 55.8427 23.1031 55.89C23.084 56.2226 23.1031 56.3645 23.1287 56.4316C23.3253 56.9477 23.0663 57.5255 22.5502 57.7221C22.0341 57.9187 21.4563 57.6597 21.2597 57.1436C21.0685 56.6416 21.0868 56.1171 21.1064 55.7753C21.1133 55.6549 21.1205 55.5525 21.1267 55.4631C21.1425 55.2365 21.1524 55.0931 21.1385 54.9514C21.0776 54.3308 21.0129 53.6665 21.0129 52.9802C21.0129 52.4279 21.4606 51.9802 22.0129 51.9802Z" fill="#F4F1ED"/>
<path fill-rule="evenodd" clip-rule="evenodd" d="M60.1944 77.6103C58.7401 77.6103 57.502 77.64 56.2696 78.0166C55.5713 78.2299 54.8369 78.442 54.1117 78.6515C53.5262 78.8206 52.9466 78.9879 52.3968 79.1529C52.2823 79.1872 52.154 79.2286 52.0153 79.2733C51.5722 79.4162 51.0235 79.5931 50.4833 79.6833C50.5412 79.7408 50.5906 79.7895 50.6435 79.8384C50.715 79.9046 50.784 79.9689 50.8512 80.0314C51.3426 80.4889 51.7322 80.8515 52.2331 81.1785C52.9082 81.6192 53.621 81.9034 54.4365 82.2286C54.7258 82.344 55.028 82.4645 55.3461 82.599C56.8368 83.2293 58.5291 83.5273 60.1742 83.5273C61.2933 83.5273 62.0439 83.4549 62.6645 82.9951C63.0682 82.6961 63.4093 82.2954 63.8427 81.7818L63.8569 81.765C64.2592 81.2881 64.7503 80.706 65.3813 80.2553C65.6024 80.0974 65.8284 79.9627 66.0583 79.8487C65.5494 79.6042 65.0505 79.3358 64.5778 79.0541C64.3876 78.9408 64.2227 78.8189 64.0918 78.7205C64.0688 78.7031 64.047 78.6867 64.0261 78.6709C63.9187 78.5899 63.8375 78.5286 63.7492 78.4697C63.7495 78.4699 63.7492 78.4697 63.7492 78.4697C63.7492 78.4698 63.7288 78.4573 63.6462 78.4289C63.6152 78.4182 63.591 78.4103 63.5605 78.4004C63.539 78.3934 63.5143 78.3854 63.4819 78.3746C63.4162 78.3529 63.3333 78.3244 63.2451 78.2885C63.0504 78.2092 62.8568 78.1057 62.7207 78.0329C62.6941 78.0187 62.6698 78.0057 62.648 77.9943C62.487 77.9095 62.3955 77.8692 62.322 77.8486C62.1987 77.8141 62.0487 77.7922 61.8414 77.7737C61.7907 77.7691 61.7297 77.7644 61.6629 77.7591C61.5015 77.7466 61.3058 77.7313 61.1363 77.7098C61.03 77.6963 60.9352 77.6834 60.8483 77.6715C60.5892 77.636 60.4011 77.6103 60.1944 77.6103ZM49.1172 78.7901C49.1077 78.7876 49.0982 78.7852 49.0885 78.7828C48.5527 78.6488 48.0098 78.9746 47.8759 79.5104C47.7419 80.0462 48.0677 80.5891 48.6035 80.7231C48.6458 80.7336 48.7001 80.7564 48.8043 80.8452C48.8606 80.8931 48.921 80.9509 49.0029 81.032C49.0155 81.0444 49.0287 81.0576 49.0426 81.0714C49.1118 81.1401 49.1969 81.2247 49.2846 81.3059C49.3501 81.3666 49.4161 81.4281 49.4829 81.4904C49.9645 81.94 50.4849 82.4257 51.1398 82.8533C51.9983 83.4136 52.9723 83.801 53.8335 84.1435C54.0901 84.2456 54.3367 84.3436 54.5672 84.4411C56.3385 85.19 58.3013 85.5273 60.1742 85.5273C61.2762 85.5273 62.6516 85.4937 63.855 84.6023C64.4563 84.1568 64.9328 83.5916 65.3249 83.1265C65.3405 83.108 65.3559 83.0897 65.3713 83.0715C65.8004 82.5629 66.1421 82.1697 66.5438 81.8828C67.1253 81.4674 67.7972 81.2968 68.6217 81.2968C68.7782 81.2968 68.9398 81.3086 69.1447 81.3242L69.1599 81.3253C69.3495 81.3397 69.5799 81.3573 69.8169 81.3573C69.867 81.3573 69.9664 81.3542 70.0855 81.3226C70.1911 81.2946 70.442 81.2101 70.6351 80.9527C70.8614 80.651 70.8609 80.3164 70.804 80.0966C70.7555 79.9091 70.6649 79.7829 70.6259 79.732C70.5428 79.6235 70.4548 79.5547 70.4283 79.534C70.3882 79.5027 70.3512 79.4778 70.3252 79.4611C70.2523 79.4141 70.122 79.3394 70.0042 79.2966C69.955 79.2787 69.8959 79.2511 69.7917 79.1981C69.7805 79.1924 69.7683 79.1861 69.7553 79.1795C69.666 79.1338 69.5383 79.0685 69.4068 79.013C69.1166 78.8904 68.827 78.7935 68.5735 78.7095L68.5292 78.6948C68.2839 78.6136 68.0732 78.5438 67.8683 78.4618C67.1006 78.1547 66.3187 77.7633 65.6014 77.3359C65.51 77.2815 65.4178 77.2152 65.2941 77.1222C65.2775 77.1097 65.26 77.0964 65.2416 77.0825C65.135 77.002 65.0003 76.9001 64.8586 76.8056C64.6475 76.6649 64.4384 76.5864 64.2971 76.5378C64.2188 76.5108 64.1683 76.4946 64.1294 76.4821C64.0782 76.4656 64.0472 76.4557 63.9997 76.4363C63.9097 76.3996 63.8277 76.3561 63.698 76.2872C63.6624 76.2682 63.6232 76.2474 63.5792 76.2243C63.4029 76.1315 63.1527 76.0042 62.8612 75.9227C62.5579 75.8377 62.2616 75.8033 62.02 75.7816C61.9164 75.7724 61.8293 75.7657 61.7504 75.7596C61.6192 75.7496 61.5109 75.7413 61.3878 75.7257C61.3312 75.7185 61.2684 75.7098 61.2008 75.7004C60.9188 75.6612 60.5519 75.6103 60.1944 75.6103C58.75 75.6103 57.236 75.63 55.6851 76.1039C54.971 76.3221 54.2865 76.5194 53.5937 76.7192C53.0164 76.8857 52.4332 77.0539 51.8221 77.2372C51.6199 77.2979 51.4347 77.3572 51.2614 77.4128C50.789 77.5642 50.4051 77.6872 50.0047 77.7316C49.4711 77.7909 49.0825 78.2598 49.1172 78.7901Z" fill="#F4F1ED"/>
<path fill-rule="evenodd" clip-rule="evenodd" d="M55.3399 80.2364C55.3399 79.6841 55.7877 79.2364 56.3399 79.2364C57.014 79.2364 57.7097 79.2533 58.3906 79.2699C58.8313 79.2806 59.2659 79.2912 59.6843 79.2969C60.2737 79.305 60.8703 79.4514 61.3232 79.5625C61.4155 79.5852 61.5018 79.6064 61.5809 79.6246C62.1191 79.7488 62.4546 80.2857 62.3304 80.8239C62.2063 81.362 61.6693 81.6976 61.1312 81.5734C60.9985 81.5428 60.876 81.5132 60.7613 81.4856C60.3223 81.3797 59.9978 81.3014 59.6569 81.2967C59.1887 81.2903 58.7383 81.2792 58.2943 81.2683C57.6412 81.2522 57.0019 81.2364 56.3399 81.2364C55.7877 81.2364 55.3399 80.7887 55.3399 80.2364Z" fill="#F4F1ED"/>
</svg>
