<svg width="96" height="96" viewBox="0 0 96 96" fill="none" xmlns="http://www.w3.org/2000/svg">
<path fill-rule="evenodd" clip-rule="evenodd" d="M16 6C16.5523 6 17 6.44772 17 7V33C17 33.5523 16.5523 34 16 34C15.4477 34 15 33.5523 15 33V7C15 6.44772 15.4477 6 16 6Z" fill="#F4F1ED"/>
<path fill-rule="evenodd" clip-rule="evenodd" d="M4.00082 17.96C4.02293 17.4081 4.48821 16.9787 5.04005 17.0008C6.89273 17.075 8.73418 17.214 10.5545 17.3513C10.9758 17.3831 11.396 17.4148 11.815 17.4456C14.054 17.6102 16.2699 17.75 18.5056 17.75C19.573 17.75 20.6797 17.7209 21.8081 17.6912C24.8815 17.6103 28.1163 17.5251 31.1583 18.0126C31.7036 18.1 32.0748 18.6129 31.9874 19.1582C31.9 19.7036 31.3871 20.0748 30.8418 19.9874C27.9972 19.5315 25.049 19.6091 22.0401 19.6882C20.8703 19.719 19.6913 19.75 18.5056 19.75C16.1921 19.75 13.9149 19.6054 11.6683 19.4402C11.2408 19.4088 10.8149 19.3767 10.39 19.3446C8.57206 19.2075 6.77396 19.0719 4.95998 18.9992C4.40814 18.9771 3.97871 18.5118 4.00082 17.96Z" fill="#F4F1ED"/>
<path fill-rule="evenodd" clip-rule="evenodd" d="M44.6783 38.2652C45.0841 38.6398 45.1094 39.2725 44.7348 39.6783C44.5826 39.8431 44.4816 40.1119 44.4431 40.5859C44.4243 40.8171 44.4227 41.0575 44.4219 41.3278C44.4218 41.3391 44.4218 41.3504 44.4218 41.3618C44.421 41.6068 44.4202 41.8936 44.3958 42.1591C44.2433 43.8212 44.1899 45.4936 44.152 47.1924C44.145 47.5036 44.1386 47.816 44.1322 48.1295C44.1036 49.5175 44.0747 50.9251 43.9986 52.3293C43.9341 53.5178 43.917 54.6613 43.8995 55.8308C43.8857 56.7561 43.8716 57.6976 43.8336 58.6908C43.7508 60.8573 43.5537 63.0757 42.9656 65.26C42.8221 65.7933 42.2733 66.1092 41.74 65.9656C41.2067 65.822 40.8908 65.2733 41.0344 64.74C41.5653 62.768 41.7545 60.7222 41.8351 58.6144C41.8684 57.7426 41.8831 56.8201 41.898 55.8872C41.9177 54.6521 41.9376 53.3988 42.0015 52.221C42.0756 50.8537 42.1037 49.4872 42.1323 48.1012C42.1388 47.7845 42.1453 47.4668 42.1525 47.1478C42.1905 45.4426 42.2449 43.7118 42.4042 41.9763C42.42 41.8047 42.421 41.6004 42.4219 41.3215L42.4219 41.3199C42.4227 41.0594 42.4237 40.7439 42.4497 40.424C42.5009 39.7944 42.6586 38.9789 43.2652 38.3217C43.6398 37.9159 44.2725 37.8906 44.6783 38.2652Z" fill="#F4F1ED"/>
<path fill-rule="evenodd" clip-rule="evenodd" d="M28.0007 51.9632C28.021 51.4113 28.4849 50.9803 29.0368 51.0007C31.3503 51.086 33.6833 51.1477 36.0258 51.2097C41.7048 51.36 47.4397 51.5118 53.0868 52.0038C53.637 52.0517 54.0442 52.5366 53.9962 53.0868C53.9483 53.637 53.4634 54.0442 52.9132 53.9962C47.3295 53.5098 41.6913 53.3606 36.0382 53.211C33.6815 53.1487 31.3222 53.0863 28.9632 52.9993C28.4113 52.979 27.9804 52.5151 28.0007 51.9632Z" fill="#F4F1ED"/>
<path fill-rule="evenodd" clip-rule="evenodd" d="M78 57C78.5523 57 79 57.4477 79 58C79 60.0728 78.8238 62.1348 78.6408 64.1539C78.6283 64.2917 78.6158 64.4294 78.6033 64.5668C78.4314 66.4558 78.2631 68.3058 78.222 70.1561C78.197 71.2829 78.1633 72.4027 78.1298 73.5185C78.0647 75.6869 78 77.8402 78 80C78 80.5523 77.5523 81 77 81C76.4477 81 76 80.5523 76 80C76 77.8119 76.0663 75.604 76.1319 73.4161C76.1651 72.3078 76.1982 71.2046 76.2225 70.1117C76.2651 68.1898 76.4395 66.2742 76.6102 64.3996C76.6231 64.2573 76.6361 64.1152 76.6489 63.9734C76.8323 61.9497 77 59.9711 77 58C77 57.4477 77.4477 57 78 57Z" fill="#F4F1ED"/>
<path fill-rule="evenodd" clip-rule="evenodd" d="M65.0006 67.9659C65.0195 67.4139 65.4822 66.9817 66.0342 67.0006C71.7811 67.1969 77.5753 68.0272 83.1738 69.0152C83.7177 69.1112 84.0808 69.6299 83.9848 70.1738C83.8888 70.7177 83.3701 71.0808 82.8262 70.9848C77.2632 70.0031 71.5752 69.191 65.9659 68.9994C65.4139 68.9806 64.9818 68.5178 65.0006 67.9659Z" fill="#F4F1ED"/>
<path fill-rule="evenodd" clip-rule="evenodd" d="M21 76C21.5523 76 22 76.4477 22 77V85C22 85.5523 21.5523 86 21 86C20.4477 86 20 85.5523 20 85V77C20 76.4477 20.4477 76 21 76Z" fill="#F4F1ED"/>
<path fill-rule="evenodd" clip-rule="evenodd" d="M15 81C15 80.4477 15.4477 80 16 80H24C24.5523 80 25 80.4477 25 81C25 81.5523 24.5523 82 24 82H16C15.4477 82 15 81.5523 15 81Z" fill="#F4F1ED"/>
<path fill-rule="evenodd" clip-rule="evenodd" d="M74 8C74.5523 8 75 8.44772 75 9V42.7352C75 42.7352 75 42.7362 74 42.7362C73 42.7362 73 42.736 73 42.736V9C73 8.44772 73.4477 8 74 8ZM74 43.7362C73.4477 43.7362 73 43.2883 73 42.736L74 42.7362H75C75 43.2885 74.5523 43.7362 74 43.7362Z" fill="#F4F1ED"/>
<path fill-rule="evenodd" clip-rule="evenodd" d="M53.0049 24.9008C53.0597 24.3512 53.5496 23.9502 54.0992 24.0049C60.1546 24.6086 66.2169 24.8056 72.3139 25.0038C75.8548 25.1189 79.4075 25.2344 82.9773 25.4301C84.0577 25.4893 85.1514 25.5931 86.2221 25.6947C86.5038 25.7214 86.7839 25.748 87.0618 25.7736C88.4095 25.8977 89.7202 26 91 26C91.5523 26 92 26.4477 92 27C92 27.5523 91.5523 28 91 28C89.6227 28 88.235 27.8901 86.8784 27.7652C86.5876 27.7384 86.2989 27.711 86.0119 27.6838C84.9464 27.5827 83.9044 27.4839 82.8678 27.4271C79.3953 27.2367 75.8841 27.1221 72.3585 27.007C66.2058 26.8062 60.0097 26.604 53.9008 25.9951C53.3513 25.9403 52.9502 25.4504 53.0049 24.9008Z" fill="#F4F1ED"/>
<path fill-rule="evenodd" clip-rule="evenodd" d="M48.1644 2.01361C48.7092 2.1044 49.0772 2.61963 48.9864 3.1644C48.8907 3.73885 48.8167 4.30502 48.7395 4.89648L48.7386 4.90339C48.6616 5.49236 48.5814 6.10546 48.4752 6.74305C48.4361 6.97732 48.4525 7.30365 48.4859 7.79232C48.4871 7.81107 48.4884 7.83015 48.4898 7.84955C48.5181 8.26062 48.5562 8.81331 48.4752 9.29923C48.3844 9.844 47.8691 10.212 47.3244 10.1212C46.7796 10.0304 46.4116 9.51521 46.5024 8.97044C46.5405 8.74164 46.524 8.41932 46.4905 7.92848C46.4893 7.91177 46.4882 7.8948 46.487 7.87758C46.4586 7.46385 46.4203 6.90689 46.5024 6.41426C46.602 5.81665 46.6779 5.2374 46.7554 4.64434L46.7583 4.62188C46.8342 4.04091 46.9121 3.44503 47.0136 2.8356C47.1044 2.29083 47.6196 1.92281 48.1644 2.01361Z" fill="#F4F1ED"/>
<path fill-rule="evenodd" clip-rule="evenodd" d="M43 6C43 5.44772 43.4477 5 44 5H51C51.5523 5 52 5.44772 52 6C52 6.55229 51.5523 7 51 7H44C43.4477 7 43 6.55229 43 6Z" fill="#F4F1ED"/>
<path fill-rule="evenodd" clip-rule="evenodd" d="M56 85C56.5523 85 57 85.4477 57 86V94C57 94.5523 56.5523 95 56 95C55.4477 95 55 94.5523 55 94V86C55 85.4477 55.4477 85 56 85Z" fill="#F4F1ED"/>
<path fill-rule="evenodd" clip-rule="evenodd" d="M51.0083 89.8719C51.079 89.3242 51.5804 88.9375 52.1281 89.0082C53.0373 89.1257 53.9399 89.2779 54.8105 89.4248C55.2654 89.5015 55.7117 89.5768 56.1456 89.6449C57.4376 89.8476 58.6931 90 60 90C60.5523 90 61 90.4477 61 91C61 91.5523 60.5523 92 60 92C58.5404 92 57.1666 91.8295 55.8356 91.6207C55.353 91.545 54.8844 91.4658 54.4199 91.3874C53.5767 91.2449 52.747 91.1048 51.8719 90.9918C51.3242 90.921 50.9375 90.4196 51.0083 89.8719Z" fill="#F4F1ED"/>
</svg>
