<svg width="96" height="96" viewBox="0 0 96 96" fill="none" xmlns="http://www.w3.org/2000/svg">
<path fill-rule="evenodd" clip-rule="evenodd" d="M21.675 7.02988C22.2108 6.89586 22.7537 7.22155 22.8878 7.75733C23.2818 9.33276 23.7387 10.9093 24.2031 12.5123C24.2323 12.613 24.2615 12.7138 24.2908 12.8148C24.7832 14.5152 25.2796 16.2444 25.6994 17.9927C25.7861 18.3535 25.9563 18.8183 26.1664 19.3919C26.1961 19.4731 26.2266 19.5564 26.2578 19.642C26.4937 20.2888 26.76 21.042 26.8987 21.7378C27.0251 22.3715 27.1161 23.2694 26.6436 23.9839C26.0885 24.8236 25.1029 24.9677 24.1373 24.8322C21.894 24.5176 19.6034 24.5506 17.2449 24.5846C16.877 24.5899 16.5075 24.5952 16.1362 24.5992C16.0682 24.6 15.9119 24.6207 15.6268 24.6766C15.5361 24.6944 15.4202 24.7183 15.295 24.7441C15.1086 24.7826 14.9016 24.8253 14.7265 24.8583C14.4072 24.9186 14.0481 24.977 13.7112 24.9945C13.4116 25.0101 12.9584 25.0065 12.5567 24.8058C12.1715 24.6133 12.0603 24.2672 12.0309 24.1503C11.9964 24.0131 11.999 23.9002 12.001 23.8545C12.0052 23.7534 12.0236 23.6706 12.031 23.6382C12.0493 23.5585 12.0751 23.4775 12.0963 23.4145C12.1419 23.2788 12.2095 23.0997 12.2904 22.894C12.4543 22.4775 12.6957 21.8948 12.9868 21.2066C13.5701 19.8275 14.3652 17.9958 15.169 16.157C15.817 14.6746 16.472 13.1847 17.0278 11.9205C17.1617 11.6161 17.2898 11.3247 17.4106 11.0497C17.7222 10.3407 17.9854 9.741 18.1754 9.30481C18.2706 9.08651 18.3466 8.91092 18.401 8.78376C18.4381 8.69714 18.4591 8.64649 18.4694 8.62197C18.4765 8.60485 18.4783 8.60045 18.4766 8.60544C18.6591 8.08419 19.2296 7.80961 19.7509 7.99215C20.2721 8.17469 20.5467 8.74522 20.3642 9.26647C20.308 9.42689 19.8472 10.4763 19.2416 11.8544C19.1206 12.1298 18.9924 12.4214 18.8584 12.726C18.3027 13.9902 17.6487 15.4777 17.0015 16.9581C16.1981 18.7959 15.4071 20.6184 14.8288 21.9857C14.6913 22.3108 14.5665 22.6085 14.4568 22.8736C14.5949 22.8467 14.7195 22.8208 14.8465 22.7945C14.971 22.7686 15.0979 22.7423 15.2421 22.714C15.509 22.6617 15.8371 22.6024 16.1145 22.5993C16.4726 22.5955 16.8341 22.5901 17.1983 22.5847C19.5457 22.5501 22.0066 22.5138 24.4151 22.8516C24.7527 22.899 24.9151 22.8754 24.9826 22.8544C24.9985 22.7867 25.0273 22.5804 24.9373 22.1289C24.8327 21.6043 24.6196 20.9872 24.3789 20.3272C24.3499 20.2478 24.3203 20.1671 24.2903 20.0855C24.0877 19.5336 23.8708 18.9431 23.7547 18.4597C23.3471 16.7622 22.863 15.0743 22.3697 13.3711C22.3397 13.2675 22.3096 13.1637 22.2796 13.06C21.8175 11.4653 21.3509 9.85535 20.9475 8.24266C20.8135 7.70688 21.1392 7.1639 21.675 7.02988ZM25.0233 22.8341C25.0244 22.8351 25.0188 22.8403 25.0033 22.8469C25.0145 22.8364 25.0223 22.8331 25.0233 22.8341Z" fill="#F4F1ED"/>
<path fill-rule="evenodd" clip-rule="evenodd" d="M70.7668 59.9649C70.7483 59.4289 70.308 59 69.7674 59C69.2152 59 68.7674 59.4477 68.7674 60C68.7674 61.0538 69.1057 61.7813 69.5036 62.5047C68.8288 63.9735 68.1828 65.4527 67.5445 66.9265C67.4171 67.2206 67.2901 67.5145 67.1632 67.808C66.3217 69.7543 65.4866 71.6858 64.6007 73.5899C63.9635 74.9595 63.2206 76.2859 62.4449 77.6329C62.3068 77.8726 62.1675 78.1133 62.0276 78.3551C61.3875 79.4612 60.7347 80.5891 60.1329 81.7404C60.0745 81.8522 59.983 81.9921 59.8502 82.1951C59.8167 82.2464 59.7805 82.3018 59.7415 82.3618C59.5734 82.6204 59.3593 82.9578 59.2107 83.2945C59.0896 83.5691 58.8668 84.1489 59.1065 84.7364C59.4017 85.4599 60.1185 85.64 60.6227 85.6673C65.5978 85.9366 70.6126 86.1756 75.5509 86.3538C76.4301 86.3856 77.307 86.4471 78.2039 86.5101C78.3091 86.5175 78.4146 86.5249 78.5204 86.5323C79.5208 86.6021 80.5445 86.6691 81.5785 86.6879C81.701 86.6902 81.8168 86.6915 81.9267 86.6927C82.4636 86.6988 82.8625 86.7033 83.2446 86.8063C83.248 86.8079 83.2519 86.8097 83.2563 86.8118C83.2597 86.8134 83.2643 86.8156 83.2698 86.8182C83.305 86.835 83.3801 86.8708 83.4485 86.8983C83.45 86.899 83.4518 86.8997 83.4538 86.9005C83.5089 86.9229 83.723 87.01 83.9811 86.999C84.1408 86.9922 84.4068 86.944 84.6444 86.7304C84.889 86.5105 84.9685 86.2372 84.9878 86.0496C85.0584 85.3609 84.8033 84.6143 84.5928 84.0872C84.4774 83.7985 84.3509 83.5192 84.2396 83.2774C84.2167 83.2276 84.1947 83.1801 84.1738 83.1348C84.088 82.9491 84.0183 82.7983 83.9641 82.6692C82.2697 78.6327 80.352 74.7458 77.9708 71.0092C77.7274 70.6273 77.4827 70.2389 77.2355 69.8465C75.9816 67.8558 74.6635 65.7632 73.1243 63.9033C72.9385 63.6787 72.7111 63.423 72.4982 63.1838C72.3596 63.0279 72.2271 62.879 72.1163 62.7501C71.9972 62.6116 71.8859 62.4773 71.7832 62.3458C71.9786 61.9309 72.1765 61.5176 72.3775 61.1062C72.62 60.61 72.4143 60.0112 71.9181 59.7687C71.5219 59.5751 71.0602 59.6673 70.7668 59.9649ZM70.8606 64.3527C70.9279 64.4286 70.9924 64.5008 71.0553 64.5713C71.2365 64.774 71.4041 64.9616 71.5835 65.1784C73.0324 66.9293 74.2693 68.8918 75.5236 70.8819C75.7758 71.282 76.0287 71.6832 76.2841 72.0841C78.5887 75.7004 80.4565 79.4804 82.12 83.4433C82.1894 83.6085 82.2785 83.8013 82.3654 83.9893C82.3848 84.0312 82.404 84.0728 82.4229 84.1138C82.5141 84.3119 82.6049 84.5126 82.6879 84.7124C82.3977 84.6943 82.1227 84.6925 81.8816 84.691C81.7871 84.6904 81.6979 84.6898 81.6149 84.6883C80.6377 84.6705 79.6597 84.6069 78.6596 84.5371C78.5543 84.5298 78.4487 84.5224 78.3429 84.5149C77.4505 84.4522 76.5385 84.3882 75.6231 84.3551C70.8752 84.1838 66.0536 83.956 61.2614 83.6988C61.3089 83.6217 61.3614 83.5395 61.4184 83.4517C61.4432 83.4135 61.4699 83.3729 61.4977 83.3305C61.6337 83.1232 61.7966 82.8749 61.9053 82.667C62.4854 81.5574 63.1119 80.4746 63.751 79.3702C63.8928 79.125 64.0353 78.8788 64.178 78.631C64.9574 77.2776 65.7376 75.8874 66.4141 74.4335C67.3124 72.5026 68.1593 70.5438 69 68.5993C69.1267 68.3063 69.2532 68.0136 69.3798 67.7213C69.8692 66.5914 70.3592 65.4673 70.8606 64.3527Z" fill="#F4F1ED"/>
<path fill-rule="evenodd" clip-rule="evenodd" d="M52.0739 17.6537C52.4738 18.1345 52.6505 18.8064 52.7299 19.5432C53.0251 22.2815 54.7679 25.4823 56.463 27.8731C56.7395 28.263 56.9775 28.7201 56.9985 29.2164C57.0235 29.8074 56.7369 30.2774 56.3183 30.5653C55.9608 30.8112 55.536 30.9094 55.1866 30.9554C54.8174 31.004 54.4148 31.008 54.0206 30.9905C53.2318 30.9555 52.3613 30.8278 51.6393 30.7071C51.3184 30.6534 51.04 30.6038 50.8051 30.5619C50.4731 30.5027 50.2281 30.459 50.0734 30.4415C49.6815 30.397 49.2788 30.3654 48.8523 30.332L48.8356 30.3307C48.4092 30.2973 47.9597 30.2619 47.5103 30.21C46.613 30.1065 45.6574 29.9318 44.7428 29.5349C43.969 29.1991 43.988 28.3943 44.0067 28.1705C44.0331 27.8531 44.1372 27.5276 44.2262 27.2841C44.3213 27.0239 44.4337 26.7676 44.5192 26.5746C44.6092 26.3717 44.6437 26.2916 44.6524 26.2715C44.6541 26.2676 44.6548 26.2659 44.6548 26.2661C44.8215 25.7054 45.0685 25.0432 45.3107 24.3938C45.4522 24.0146 45.592 23.6397 45.7133 23.292C46.0714 22.2649 46.314 21.3628 46.314 20.6468C46.314 20.0945 46.7617 19.6468 47.314 19.6468C47.4252 19.6468 47.5321 19.6649 47.632 19.6984C47.5537 19.6211 47.4868 19.5294 47.4358 19.4249C47.1935 18.9286 47.3994 18.3299 47.8957 18.0876C48.0768 17.9991 48.2605 17.9019 48.4551 17.798C48.4754 17.7871 48.4959 17.7762 48.5165 17.7652C48.6882 17.6734 48.8704 17.576 49.0486 17.4866C49.4258 17.2972 49.9079 17.0777 50.4009 17.017C50.9655 16.9475 51.6011 17.0851 52.0739 17.6537ZM48.0153 19.9339C48.1997 20.1153 48.314 20.3677 48.314 20.6468C48.314 21.7291 47.9647 22.9098 47.6018 23.9505C47.445 24.4001 47.2894 24.8154 47.143 25.2063C46.923 25.7933 46.7237 26.3254 46.5718 26.8361C46.5413 26.9388 46.4954 27.0476 46.4657 27.1168C46.438 27.1815 46.4047 27.2565 46.3719 27.3305C46.3638 27.3488 46.3557 27.367 46.3477 27.385C46.2708 27.5585 46.1919 27.7397 46.1259 27.9137C46.6224 28.0634 47.1598 28.1563 47.7396 28.2232C48.1469 28.2702 48.5606 28.303 48.9918 28.3368L49.0239 28.3393C49.4391 28.3718 49.872 28.4057 50.299 28.4542C50.5106 28.4783 50.869 28.5418 51.2714 28.6131C51.4963 28.653 51.7348 28.6953 51.9692 28.7345C52.6754 28.8526 53.4473 28.9631 54.1094 28.9925C54.3784 29.0044 54.6103 29.002 54.8003 28.9859C53.0646 26.529 51.0914 23.0034 50.7415 19.7576C50.7099 19.4646 50.6651 19.2594 50.6199 19.1202C50.6057 19.0764 50.5921 19.0414 50.5801 19.0138C50.452 19.0433 50.252 19.1203 49.9457 19.2741C49.7921 19.3512 49.6334 19.4359 49.4581 19.5296C49.438 19.5404 49.4177 19.5512 49.3972 19.5622C49.2027 19.666 48.9904 19.7787 48.7731 19.8848C48.527 20.0049 48.2558 20.0149 48.0153 19.9339Z" fill="#F4F1ED"/>
<path fill-rule="evenodd" clip-rule="evenodd" d="M83.4482 1.00024C83.8869 1.00903 84.1992 1.24453 84.3804 1.43552C84.6064 1.67375 84.8697 1.90478 85.1712 2.16013C85.2223 2.20344 85.275 2.2478 85.3288 2.2931C85.5787 2.5036 85.8525 2.73423 86.1068 2.97256C87.3412 4.12908 87.706 5.05684 88.1114 6.08785C88.1921 6.29296 88.2743 6.50216 88.3654 6.71806C88.7001 7.51199 89.0812 8.29065 89.4779 9.10129C89.6316 9.41531 89.7876 9.73412 89.9442 10.0605C90.4933 11.205 91.0335 12.4121 91.3995 13.6748C92.0345 15.8653 92.3964 18.0863 92.7243 20.2574C92.7618 20.5058 92.7989 20.7533 92.8358 21.0001C93.1245 22.9291 93.4063 24.8122 93.8479 26.6739C93.8981 26.8858 93.9538 27.127 93.981 27.3471C94.0042 27.5349 94.0362 27.8978 93.8753 28.2536C93.7829 28.4579 93.6323 28.6483 93.4176 28.7872C93.2122 28.9201 92.9988 28.9733 92.8217 28.9915C92.4961 29.025 92.1657 28.9525 91.892 28.8729C90.6509 28.512 89.2522 28.4502 87.7424 28.4792C87.262 28.4884 86.7593 28.5077 86.2486 28.5273C85.2201 28.5667 84.1593 28.6074 83.1832 28.5696C82.5129 28.5437 81.8598 28.5053 81.2186 28.4676C79.3901 28.36 77.6594 28.2583 75.9071 28.4682C75.9075 28.4681 75.9057 28.4683 75.9013 28.469L75.8829 28.472C75.8665 28.4747 75.8457 28.4786 75.8189 28.4838C75.7832 28.4907 75.7482 28.4979 75.7071 28.5062C75.6807 28.5116 75.6518 28.5175 75.6186 28.5242C75.4648 28.5551 75.2595 28.5946 75.0455 28.6186C74.839 28.6417 74.5698 28.6573 74.297 28.6139C74.0315 28.5717 73.6308 28.4517 73.3343 28.0871C73.0207 27.7015 72.9847 27.2577 73.0045 26.9596C73.0247 26.6562 73.11 26.3685 73.1911 26.1453C73.2751 25.9141 73.3752 25.697 73.4562 25.5285C73.4955 25.4467 73.526 25.3845 73.5502 25.3351C73.5849 25.2645 73.6068 25.2199 73.6235 25.1808C74.0061 24.2847 74.3968 23.4403 74.7794 22.6133C75.4576 21.1476 76.1104 19.7367 76.6478 18.1895C76.8788 17.5246 77.1998 16.7687 77.5165 16.0232C77.6811 15.6356 77.8446 15.2507 77.9936 14.8829C78.4545 13.7451 78.8126 12.6942 78.9075 11.7944C78.9443 11.4452 79.1567 11.1569 79.4477 11.0082C79.6557 10.3517 79.8684 9.71368 80.078 9.08525C80.6296 7.43081 81.1592 5.8427 81.5226 4.15717C81.5327 4.11025 81.5455 4.04669 81.5609 3.97036C81.6345 3.60518 81.7669 2.94778 81.9454 2.42291C82.0419 2.13901 82.212 1.69711 82.5184 1.39059C82.6909 1.21797 83.0056 0.991364 83.4482 1.00024ZM80.1935 14.7407C80.0823 15.044 79.9652 15.3428 79.8473 15.6338C79.667 16.0788 79.4878 16.4999 79.3168 16.9019C79.0201 17.5992 78.7479 18.2389 78.5371 18.8457C77.9712 20.4748 77.2411 22.0562 76.5334 23.5888C76.1613 24.3948 75.7954 25.1873 75.4629 25.9661C75.4259 26.0527 75.3653 26.1766 75.3129 26.2837C75.2932 26.324 75.2746 26.3619 75.2589 26.3945C75.2301 26.4547 75.2021 26.5143 75.1757 26.5731C75.1918 26.5699 75.2081 26.5667 75.2245 26.5634C75.2426 26.5597 75.2627 26.5556 75.2843 26.5512C75.3978 26.528 75.552 26.4964 75.6692 26.4824C77.6151 26.2493 79.6017 26.3667 81.4776 26.4775C82.0852 26.5135 82.6812 26.5487 83.2605 26.5711C84.1642 26.606 85.084 26.5703 86.0596 26.5323C86.5891 26.5117 87.1352 26.4905 87.7041 26.4796C89.05 26.4537 90.4656 26.4908 91.8221 26.792C91.4049 24.9547 91.1279 23.1024 90.8577 21.2956C90.8207 21.0482 90.7838 20.8016 90.7468 20.5561C90.4192 18.3871 90.0732 16.2827 89.4786 14.2316C89.1604 13.1341 88.6799 12.0489 88.141 10.9257C87.9997 10.6312 87.8531 10.3315 87.7046 10.0282C87.2992 9.19986 86.8807 8.34466 86.5225 7.49511C86.4064 7.21978 86.3097 6.97638 86.2221 6.75597C85.8385 5.79101 85.6301 5.26657 84.7394 4.43204C84.5272 4.23328 84.3029 4.04422 84.0552 3.83537C83.9976 3.78686 83.9388 3.73727 83.8785 3.68625C83.8209 3.63747 83.7623 3.58758 83.7031 3.5366C83.6371 3.79971 83.5823 4.06918 83.5351 4.30128C83.5146 4.40198 83.4956 4.49565 83.4777 4.57872C83.0894 6.37948 82.5077 8.12392 81.944 9.81435C81.7377 10.4332 81.5337 11.0447 81.3426 11.6492C81.2344 11.9913 81.0748 12.3634 80.9458 12.6644C80.8921 12.7897 80.8436 12.9026 80.8064 12.996C80.656 13.3727 80.5772 13.6625 80.5772 13.9532C80.5772 14.273 80.4271 14.5577 80.1935 14.7407ZM74.6112 26.6388C74.6075 26.638 74.6078 26.6382 74.6112 26.6388V26.6388Z" fill="#F4F1ED"/>
<path fill-rule="evenodd" clip-rule="evenodd" d="M27.9134 81.9317C27.9413 81.9791 27.9589 82.0088 27.9689 82.0256C27.9789 82.0425 27.9811 82.0462 27.978 82.0414C29.0565 83.7057 30.1563 85.3456 31.3665 86.8622C31.6613 87.2316 31.977 87.708 31.9988 88.2407C32.0118 88.5585 31.9192 88.8752 31.7079 89.1382C31.5147 89.3787 31.2736 89.5106 31.0886 89.5858C30.7416 89.7269 30.3353 89.767 30.0423 89.7892C29.8964 89.8003 29.7436 89.8086 29.6 89.8164C29.5844 89.8173 29.5689 89.8181 29.5535 89.819C29.392 89.8278 29.2394 89.8365 29.091 89.8488C27.928 89.9452 26.6019 90.0727 25.1977 90.2079C21.3714 90.576 16.9643 91 13.691 91C13.1387 91 12.691 90.5523 12.691 90C12.691 89.4477 13.1387 89 13.691 89C16.8602 89 21.1 88.5921 24.897 88.2269C26.3302 88.089 27.7003 87.9572 28.9259 87.8557C29.1053 87.8408 29.2831 87.8308 29.4443 87.8219L29.4891 87.8195C29.5168 87.818 29.5439 87.8165 29.5706 87.815C28.3887 86.3032 27.3183 84.7011 26.2996 83.1291C26.2763 83.0931 26.1377 82.8563 25.9182 82.4812C25.3811 81.5632 24.3592 79.8168 23.356 78.159C22.6345 76.9666 21.9108 75.7994 21.3428 74.9457C21.2297 74.7759 21.125 74.6217 21.0293 74.4843C20.851 74.795 20.6619 75.1912 20.4495 75.6654C20.3616 75.8616 20.2703 76.0704 20.1751 76.2878C19.7484 77.2628 19.2455 78.4121 18.6382 79.3814C17.144 81.7665 15.803 83.6425 14.4699 85.2986C13.8666 86.0482 13.3824 86.5668 12.9756 87.0024C12.069 87.9734 11.5469 88.5325 10.9481 90.318C10.7725 90.8416 10.2056 91.1237 9.68203 90.9481C9.15841 90.7725 8.87629 90.2056 9.05191 89.682C9.79453 87.4678 10.6534 86.5447 11.6855 85.4355C12.0694 85.0229 12.4772 84.5846 12.912 84.0445C14.1902 82.4565 15.4861 80.6457 16.9434 78.3196C17.4642 77.4883 17.8922 76.5122 18.3171 75.5433C18.4193 75.3103 18.5213 75.0778 18.6243 74.8478C18.8786 74.2802 19.1466 73.7141 19.4352 73.2544C19.6999 72.8327 20.0962 72.3068 20.6837 72.0733C21.1287 71.8963 21.4983 72.0867 21.5836 72.1326C21.7146 72.203 21.8142 72.2888 21.8719 72.342C21.9952 72.4554 22.1159 72.5973 22.2222 72.7311C22.4429 73.0089 22.7138 73.3959 23.0078 73.8378C23.6006 74.7286 24.3424 75.9259 25.0671 77.1235C25.7935 78.324 26.5095 79.536 27.0524 80.4608C27.2954 80.8747 27.5039 81.2315 27.6631 81.504L27.7172 81.5965C27.7998 81.7378 27.8658 81.8506 27.9134 81.9317Z" fill="#F4F1ED"/>
<path fill-rule="evenodd" clip-rule="evenodd" d="M30.2059 41.1718C30.5747 41.3791 30.7907 41.7195 30.9236 42.0015C31.06 42.2907 31.2545 42.5356 31.5215 42.8719C31.6258 43.0034 31.7413 43.1488 31.8687 43.3162C32.2607 43.8315 32.7501 44.5539 32.7964 45.4888C32.7963 45.4869 32.7968 45.4888 32.7982 45.4948C32.8055 45.5255 32.8384 45.6631 32.9552 45.951C33.0793 46.2566 33.2589 46.6404 33.4815 47.0855C33.839 47.8006 34.2823 48.6254 34.7367 49.4707C34.8489 49.6794 34.9617 49.8892 35.074 50.099C35.6324 51.1416 36.1841 52.19 36.542 53.0042C36.7169 53.4019 36.8724 53.8028 36.9474 54.1437C36.9828 54.3046 37.0217 54.5422 36.9853 54.7934C36.9458 55.0662 36.7785 55.5253 36.2629 55.7249C35.3526 56.0773 34.2944 56.0294 33.4192 55.9197C32.9642 55.8627 32.516 55.7825 32.1116 55.7069C32.0269 55.691 31.9449 55.6756 31.8653 55.6605C31.5536 55.6017 31.2795 55.55 31.031 55.5121C30.7575 55.4703 30.3926 55.4437 29.9263 55.4104C29.4788 55.3784 28.9599 55.3413 28.4445 55.2754C27.931 55.2097 27.3854 55.1115 26.8809 54.9455C26.3837 54.7819 25.8559 54.53 25.4435 54.1134C25.0996 53.7659 25.0311 53.3085 25.0103 53.056C24.9856 52.7565 25.0082 52.4288 25.0484 52.1139C25.1296 51.4781 25.3065 50.7238 25.5021 50.0008C25.6998 49.2702 25.9265 48.5362 26.1184 47.9323C26.1916 47.7019 26.2579 47.4959 26.3155 47.3168C26.4143 47.0101 26.4876 46.7823 26.5268 46.6454C26.6788 46.1144 27.2325 45.8072 27.7634 45.9592C28.2944 46.1113 28.6016 46.6649 28.4496 47.1959C28.4015 47.3635 28.3104 47.6467 28.2014 47.9855C28.146 48.1579 28.0859 48.3446 28.0245 48.5379C27.8356 49.1323 27.6192 49.8342 27.4327 50.5232C27.2442 51.22 27.0959 51.8693 27.0323 52.3673C27.0071 52.5639 26.9987 52.7117 27.0001 52.815C27.1144 52.8909 27.2781 52.9707 27.5059 53.0457C27.8394 53.1554 28.2446 53.2336 28.6981 53.2915C29.1496 53.3493 29.6139 53.383 30.0689 53.4155L30.1097 53.4184C30.5335 53.4487 30.9736 53.4801 31.3329 53.535C31.6196 53.5788 31.9386 53.639 32.2539 53.6985C32.3294 53.7128 32.4046 53.727 32.4791 53.7409C32.877 53.8153 33.2759 53.8861 33.6678 53.9352C34.0934 53.9885 34.4692 54.01 34.791 53.9954C34.7667 53.9371 34.7401 53.875 34.7111 53.8091C34.3896 53.0777 33.8755 52.0972 33.311 51.0433C33.2027 50.8411 33.0927 50.6365 32.9824 50.4312C32.5267 49.5836 32.0648 48.7243 31.6926 47.9799C31.4612 47.517 31.2549 47.0797 31.102 46.7032C30.9651 46.3658 30.8169 45.9519 30.7988 45.5877C30.7846 45.3006 30.6344 44.997 30.2769 44.5272C30.2156 44.4466 30.1432 44.3558 30.064 44.2566C29.8877 44.0357 29.6782 43.7734 29.4856 43.4902C29.2462 43.9356 29.0452 44.4337 28.8881 44.8232C28.8202 44.9914 28.7606 45.1393 28.7095 45.2539C28.4848 45.7584 27.8937 45.9853 27.3892 45.7606C26.8847 45.5359 26.6578 44.9448 26.8825 44.4403C26.8986 44.4042 26.9276 44.332 26.9672 44.2333C27.1333 43.8195 27.4866 42.9397 27.8595 42.3013C27.9825 42.0906 28.1255 41.8725 28.2873 41.6805C28.4387 41.5007 28.6634 41.2746 28.9662 41.1335C29.3155 40.9708 29.7709 40.9274 30.2059 41.1718ZM27.0121 52.9509C27.0117 52.9513 27.0101 52.9455 27.008 52.9321C27.0114 52.9437 27.0124 52.9504 27.0121 52.9509Z" fill="#F4F1ED"/>
<path fill-rule="evenodd" clip-rule="evenodd" d="M59.852 45.9388C60.3759 45.7642 60.9422 46.0473 61.1169 46.5713C61.1437 46.6518 61.2211 46.8163 61.3658 47.1185C61.4921 47.3823 61.6524 47.7178 61.7768 48.0418C61.8861 48.3261 62.0359 48.7655 62.0115 49.1907C61.9981 49.4245 61.9251 49.7747 61.6386 50.0643C61.3522 50.3538 60.9966 50.4389 60.7135 50.445C60.6958 50.4533 60.6435 50.4755 60.5257 50.5282C60.2923 50.6325 59.8447 50.8132 59.2682 50.6485C58.8408 50.5263 58.6622 50.1932 58.6056 50.0604C58.5432 49.9142 58.5269 49.784 58.5209 49.7215C58.5079 49.5858 58.5182 49.4587 58.5271 49.3776C58.5467 49.1989 58.5887 48.9977 58.6373 48.8148C58.686 48.6321 58.7528 48.4242 58.8361 48.2389C58.8768 48.1484 58.9346 48.0332 59.0134 47.9215C59.0561 47.861 59.1711 47.7026 59.3717 47.5789C59.312 47.4469 59.2569 47.3159 59.2195 47.2037C59.0449 46.6798 59.328 46.1135 59.852 45.9388Z" fill="#F4F1ED"/>
<path fill-rule="evenodd" clip-rule="evenodd" d="M86.0623 50.2553C86.6039 50.147 87.1307 50.4982 87.239 51.0397C87.239 51.0395 87.2388 51.0389 87.239 51.0397C87.2409 51.0468 87.2533 51.0938 87.2889 51.1953C87.3247 51.2975 87.3728 51.4243 87.4311 51.5722C87.5004 51.7482 87.5745 51.9301 87.652 52.1204C87.7096 52.2618 87.769 52.4079 87.8298 52.5596C87.9625 52.8904 88.0993 53.2428 88.1829 53.5175C88.2193 53.6372 88.2728 53.8268 88.2843 54.0156C88.2884 54.0827 88.304 54.3385 88.1659 54.6053C88.0819 54.7677 87.929 54.9552 87.6807 55.0696C87.4387 55.181 87.2097 55.1751 87.0547 55.1461C87.0092 55.1375 86.9303 55.1269 86.8043 55.1099C86.7438 55.1018 86.6724 55.0922 86.5886 55.0806C86.359 55.049 86.0728 55.007 85.7982 54.9522C85.5435 54.9013 85.2182 54.8244 84.9495 54.6998C84.8269 54.6429 84.6013 54.5256 84.4225 54.3044C84.3235 54.1819 84.221 54.0054 84.1823 53.7768C84.1422 53.5403 84.1821 53.3175 84.2646 53.1318C84.5025 52.5967 84.7123 52.0434 84.7518 51.6479C84.789 51.2766 85.0248 50.973 85.3434 50.8322C85.4705 50.5448 85.7307 50.3216 86.0623 50.2553ZM85.7911 52.8855C85.7822 52.8813 85.7846 52.8816 85.7952 52.8873C85.7937 52.8867 85.7924 52.8861 85.7911 52.8855Z" fill="#F4F1ED"/>
<path fill-rule="evenodd" clip-rule="evenodd" d="M38.0252 72.7512C38.5741 72.8122 38.9696 73.3066 38.9086 73.8555C38.9028 73.9083 38.8946 73.9606 38.8847 74.0122C38.9534 74.1043 39.0237 74.1977 39.0956 74.2932C39.1763 74.4004 39.2591 74.5105 39.3442 74.6246C39.5118 74.8495 39.6981 75.1036 39.8039 75.2799C39.8301 75.3235 39.874 75.3991 39.9106 75.4871C39.9272 75.527 39.9625 75.6165 39.9817 75.7331L39.9819 75.7342C39.9928 75.8004 40.0525 76.163 39.7942 76.5084C39.464 76.9498 38.9817 76.9257 38.8204 76.8993C38.6519 76.8717 38.5292 76.8075 38.4873 76.7851C38.46 76.7704 38.434 76.755 38.4097 76.7397C38.3597 76.7349 38.3014 76.7313 38.2198 76.7264L38.2153 76.7261C38.1353 76.7212 38.0328 76.715 37.9295 76.7047C37.7484 76.6867 37.413 76.6455 37.1054 76.4744C36.9346 76.3794 36.747 76.231 36.6057 76.0044C36.4616 75.7733 36.4032 75.5208 36.4032 75.2798C36.4032 74.8419 36.565 74.4477 36.6789 74.201C36.5994 73.8127 36.7586 73.4063 37.0912 73.1776C37.2935 72.8844 37.6464 72.7091 38.0252 72.7512Z" fill="#F4F1ED"/>
<path fill-rule="evenodd" clip-rule="evenodd" d="M9.41453 54.4135C9.22637 53.9853 8.75628 53.7354 8.28235 53.8407C7.70716 53.9685 7.38626 54.3989 7.22577 54.6912C7.05596 55.0005 6.95545 55.3499 6.89145 55.6491C6.76162 56.2562 6.73192 56.9036 6.73192 57.2468C6.73192 57.5122 6.80306 57.784 6.96826 58.0249C7.12797 58.2578 7.33541 58.4034 7.51908 58.4931C7.8574 58.6585 8.22613 58.6881 8.46964 58.6943C8.73688 58.7011 9.00849 58.6805 9.2148 58.663C9.26327 58.6589 9.30679 58.6551 9.34599 58.6517C9.50259 58.6381 9.5904 58.6305 9.65032 58.6305C9.67479 58.6305 9.70151 58.6306 9.72978 58.6308C9.86209 58.6314 10.0283 58.6321 10.1568 58.6212C10.2388 58.6143 10.3885 58.5975 10.5494 58.5361C10.7256 58.4689 10.9831 58.3205 11.1431 58.0132C11.2944 57.7226 11.2757 57.4461 11.2498 57.2945C11.2239 57.1426 11.1731 57.0131 11.1372 56.9298C11.0657 56.764 10.9562 56.5663 10.8513 56.3775C10.6953 56.0967 10.51 55.8255 10.3557 55.5997C10.3396 55.5762 10.3238 55.5531 10.3084 55.5305C10.1327 55.2727 10.0002 55.0711 9.90528 54.8812C9.79687 54.6644 9.62031 54.5042 9.41453 54.4135ZM9.98752 56.6284C9.98673 56.6285 9.98577 56.6286 9.98463 56.6286L9.98752 56.6284Z" fill="#F4F1ED"/>
<path fill-rule="evenodd" clip-rule="evenodd" d="M63.6384 8.16563C63.6388 8.16932 63.6454 8.22059 63.7189 8.35696C63.7597 8.43278 63.8089 8.51324 63.8748 8.61939C63.8793 8.62672 63.884 8.63422 63.8887 8.64186C63.9471 8.73588 64.0199 8.85297 64.0866 8.97304C64.0862 8.97227 64.0859 8.97211 64.0866 8.97304C64.0904 8.97808 64.1134 9.0082 64.1787 9.06106C64.2437 9.11365 64.2712 9.13193 64.3098 9.15763C64.3441 9.18043 64.3872 9.20907 64.473 9.27271C64.5043 9.29588 64.5521 9.33241 64.6019 9.37788C64.6419 9.41445 64.7396 9.50648 64.8214 9.64713C64.9055 9.79149 65.0487 10.1273 64.898 10.5288C64.76 10.8968 64.4698 11.0543 64.3594 11.1056C64.1532 11.2015 63.9396 11.2172 63.8663 11.2226C63.8642 11.2227 63.8622 11.2229 63.8604 11.223C63.7468 11.2314 63.614 11.234 63.4709 11.234C63.4617 11.234 63.4376 11.2347 63.4013 11.2358C63.1913 11.242 62.574 11.2604 62.0736 11.2221C61.8053 11.2015 61.3907 11.1563 61.0573 10.9978C60.9012 10.9236 60.5369 10.7196 60.3927 10.2669C60.2302 9.75691 60.4663 9.34593 60.6231 9.14994C60.7641 8.97377 60.8925 8.80444 60.9907 8.63809C61.0929 8.4649 61.1228 8.35968 61.1278 8.31497C61.1782 7.86168 61.5241 7.51298 61.9522 7.4396C62.1313 7.27062 62.3727 7.16704 62.6384 7.16704C63.1902 7.16704 63.6376 7.61399 63.6384 8.16563Z" fill="#F4F1ED"/>
<path fill-rule="evenodd" clip-rule="evenodd" d="M2.65966 3.09835C2.71321 2.56039 2.32808 2.07493 1.78856 2.00749C1.24054 1.93898 0.740748 2.32771 0.672246 2.87573C0.662713 2.95199 0.626421 3.08332 0.546535 3.32949C0.539587 3.3509 0.532234 3.3734 0.524571 3.39684C0.459714 3.59528 0.372634 3.86171 0.321105 4.11183C0.271916 4.3506 0.191428 4.83876 0.42568 5.30095C0.729839 5.90106 1.32452 6.06667 1.79371 6.06667C2.00214 6.06667 2.18509 6.06389 2.33818 6.05513C2.4742 6.04735 2.65791 6.03192 2.83208 5.98103C2.94674 5.94753 3.4829 5.77792 3.62121 5.17445C3.68253 4.90689 3.62648 4.68343 3.57962 4.55577C3.53308 4.42897 3.47196 4.33197 3.43485 4.27714C3.37027 4.18172 3.28845 4.0864 3.24368 4.03422C3.23992 4.02985 3.23643 4.02579 3.23323 4.02205C3.17645 3.95568 3.12941 3.90045 3.08245 3.83893C2.99174 3.72009 2.91816 3.5984 2.87157 3.45863C2.82552 3.32046 2.75223 3.19904 2.65966 3.09835Z" fill="#F4F1ED"/>
</svg>
